<svg width="512" height="512" viewBox="0 0 512 512" fill="none" xmlns="http://www.w3.org/2000/svg">
<path d="M256 0C114.84 0 0 114.84 0 256C0 397.16 114.84 512 256 512C397.16 512 512 397.16 512 256C512 114.84 397.16 0 256 0ZM256 475.429C135.003 475.429 36.571 376.997 36.571 256C36.571 135.003 135.003 36.571 256 36.571C376.997 36.571 475.429 135.003 475.429 256C475.429 376.997 376.997 475.429 256 475.429Z" fill="#F15A29"/>
<path d="M256 134.095C245.9 134.095 237.714 142.281 237.714 152.381V359.619C237.714 369.719 245.9 377.905 256 377.905C266.1 377.905 274.286 369.719 274.286 359.619V152.381C274.286 142.281 266.1 134.095 256 134.095Z" fill="#F15A29"/>
<path d="M359.619 237.714H152.381C142.281 237.714 134.095 245.9 134.095 256C134.095 266.1 142.281 274.286 152.381 274.286H359.619C369.719 274.286 377.905 266.1 377.905 256C377.905 245.9 369.719 237.714 359.619 237.714Z" fill="#F15A29"/>
</svg>
