<svg width="55" height="55" viewBox="0 0 55 55" fill="none" xmlns="http://www.w3.org/2000/svg">
<path d="M46.9574 8.05051C36.2338 -2.67309 18.7796 -2.67309 8.05597 8.05051C2.86142 13.2471 0 20.1547 0 27.5012C0 34.8476 2.86142 41.7552 8.05597 46.9497C13.4188 52.3126 20.4628 54.9929 27.5066 54.9929C34.5504 54.9929 41.5945 52.3126 46.9572 46.9497C57.6808 36.2261 57.6808 18.7762 46.9574 8.05051ZM43.9446 43.937C34.8808 53.0008 20.1325 53.0008 11.0686 43.937C6.67956 39.5479 4.26125 33.7099 4.26125 27.5012C4.26125 21.2924 6.67956 15.4544 11.0686 11.0632C20.1325 1.99938 34.8808 2.00153 43.9446 11.0632C53.0062 20.127 53.0062 34.8753 43.9446 43.937Z" fill="black"/>
<path d="M36.6875 33.3898L30.6555 27.3665L36.6875 21.3432C37.5184 20.5123 37.5184 19.1636 36.6896 18.3305C35.8565 17.4952 34.5078 17.4974 33.6748 18.3283L27.6387 24.3559L21.6026 18.3283C20.7695 17.4974 19.4208 17.4952 18.5878 18.3305C17.7568 19.1635 17.7568 20.5122 18.5899 21.3432L24.6218 27.3665L18.5899 33.3898C17.7568 34.2208 17.7568 35.5695 18.5878 36.4026C19.0033 36.8202 19.5508 37.0269 20.0963 37.0269C20.6418 37.0269 21.1872 36.818 21.6027 36.4047L27.6388 30.3771L33.6749 36.4047C34.0904 36.8202 34.6358 37.0269 35.1813 37.0269C35.7268 37.0269 36.2743 36.818 36.6898 36.4026C37.5205 35.5695 37.5205 34.2208 36.6875 33.3898Z" fill="black"/>
</svg>
