<svg width="512" height="512" viewBox="0 0 512 512" fill="none" xmlns="http://www.w3.org/2000/svg">
<g clip-path="url(#clip0)">
<path d="M445.213 225.242C454.802 213.415 460.562 198.364 460.562 181.988C460.562 144.049 429.696 113.183 391.757 113.183C353.82 113.183 322.954 144.049 322.954 181.988C322.954 198.374 328.722 213.433 338.321 225.264C329.233 228.162 320.605 232.406 312.743 237.852C300.331 219.783 279.53 207.904 256 207.904C232.47 207.904 211.67 219.783 199.257 237.852C191.395 232.405 182.767 228.162 173.679 225.264C183.278 213.433 189.046 198.374 189.046 181.988C189.046 144.049 158.18 113.183 120.243 113.183C82.304 113.183 51.4385 144.049 51.4385 181.988C51.4385 198.364 57.1989 213.414 66.7871 225.242C28.099 237.582 0 273.865 0 316.591V401.76C0 410.061 6.72941 416.79 15.0299 416.79H135.76V496.479C135.76 504.78 142.49 511.509 150.79 511.509H361.21C369.51 511.509 376.24 504.78 376.24 496.479V416.79H496.97C505.271 416.79 512 410.061 512 401.76V316.591C512 273.865 483.901 237.582 445.213 225.242V225.242ZM391.758 143.243C413.122 143.243 430.503 160.624 430.503 181.988C430.503 203.337 413.143 220.709 391.798 220.73H391.72C370.375 220.709 353.016 203.337 353.016 181.988C353.015 160.624 370.395 143.243 391.758 143.243ZM256 237.964C277.511 237.964 295.036 255.608 294.73 277.278C294.418 298.458 277.099 315.451 256 315.451C234.567 315.451 217.256 297.968 217.256 276.708C217.256 255.629 234.379 237.964 256 237.964V237.964ZM120.243 143.243C141.605 143.243 158.986 160.624 158.986 181.988C158.986 203.337 141.626 220.709 120.282 220.73H120.204C98.8579 220.709 81.4994 203.337 81.4994 181.988C81.4984 160.624 98.879 143.243 120.243 143.243V143.243ZM30.0599 316.591C30.0599 280.307 59.5777 250.79 95.861 250.79H144.628C160.562 250.79 175.96 256.629 187.876 267.012C185.186 285.996 190.594 305.237 202.501 319.964C171.355 329.891 147.276 355.258 138.952 386.73H94.1776V330.481C94.1776 322.181 87.4482 315.451 79.1477 315.451C70.8471 315.451 64.1177 322.181 64.1177 330.481V386.73H30.0599V316.591ZM346.18 481.449H316.12V437.028C316.12 428.727 309.39 421.998 301.09 421.998C292.789 421.998 286.06 428.727 286.06 437.028V481.449H225.94V437.028C225.94 428.727 219.211 421.998 210.91 421.998C202.61 421.998 195.88 428.727 195.88 437.028V481.449H165.82V411.309C165.82 375.171 195.217 345.511 231.618 345.511H280.382C316.734 345.511 346.18 375.118 346.18 411.309V481.449ZM481.94 386.73H447.882V330.481C447.882 322.181 441.153 315.451 432.852 315.451C424.552 315.451 417.822 322.181 417.822 330.481V386.73H373.048C364.779 355.465 340.848 329.956 309.499 319.964C320.99 305.751 326.905 286.642 324.124 267.012C336.041 256.629 351.438 250.79 367.372 250.79H416.139C452.422 250.79 481.94 280.307 481.94 316.591V386.73Z" fill="#064E5A"/>
<path d="M174.833 76.6547C178.267 84.2098 187.176 87.5544 194.734 84.1176C202.291 80.6827 205.633 71.773 202.197 64.2159L182.157 20.1281C178.721 12.571 169.81 9.22838 162.256 12.6652C154.699 16.1001 151.357 25.0098 154.793 32.5669L174.833 76.6547Z" fill="#064E5A"/>
<path d="M317.266 84.1176C324.832 87.5554 333.737 84.2038 337.168 76.6547L357.208 32.5669C360.644 25.0098 357.302 16.0991 349.745 12.6652C342.187 9.22939 333.277 12.571 329.843 20.1281L309.804 64.2159C306.368 71.773 309.709 80.6827 317.266 84.1176Z" fill="#064E5A"/>
<path d="M256 74.4714C264.3 74.4714 271.03 67.742 271.03 59.4414V15.5209C271.03 7.22039 264.3 0.490982 256 0.490982C247.699 0.490982 240.97 7.22039 240.97 15.5209V59.4414C240.97 67.742 247.699 74.4714 256 74.4714Z" fill="#064E5A"/>
</g>
<defs>
<clipPath id="clip0">
<rect width="512" height="512" fill="white"/>
</clipPath>
</defs>
</svg>
