<svg width="512" height="512" viewBox="0 0 512 512" fill="none" xmlns="http://www.w3.org/2000/svg">
<g clip-path="url(#clip0)">
<path d="M69.1909 260.253C69.1909 276.397 82.3249 289.53 98.4669 289.53C114.611 289.53 127.744 276.397 127.744 260.253C127.744 244.11 114.61 230.977 98.4669 230.977C82.3249 230.977 69.1909 244.11 69.1909 260.253ZM112.745 260.253C112.745 268.125 106.34 274.53 98.4679 274.53C90.5959 274.53 84.1919 268.125 84.1919 260.253C84.1919 252.381 90.5959 245.977 98.4679 245.977C106.34 245.977 112.745 252.381 112.745 260.253Z" fill="#C4C4C4"/>
<path d="M198.082 260.253C198.082 244.11 184.948 230.977 168.805 230.977C152.662 230.977 139.529 244.11 139.529 260.253C139.529 276.397 152.663 289.53 168.805 289.53C184.948 289.53 198.082 276.397 198.082 260.253ZM154.528 260.253C154.528 252.381 160.932 245.977 168.804 245.977C176.676 245.977 183.081 252.381 183.081 260.253C183.081 268.125 176.676 274.53 168.804 274.53C160.932 274.53 154.528 268.125 154.528 260.253Z" fill="#C4C4C4"/>
<path d="M268.419 260.253C268.419 244.11 255.285 230.977 239.142 230.977C222.999 230.977 209.866 244.11 209.866 260.253C209.866 276.397 223 289.53 239.142 289.53C255.285 289.53 268.419 276.397 268.419 260.253ZM224.865 260.253C224.865 252.381 231.269 245.977 239.141 245.977C247.013 245.977 253.418 252.381 253.418 260.253C253.418 268.125 247.013 274.53 239.141 274.53C231.269 274.53 224.865 268.125 224.865 260.253Z" fill="#C4C4C4"/>
<path d="M338.756 260.253C338.756 244.11 325.622 230.977 309.479 230.977C293.336 230.977 280.203 244.11 280.203 260.253C280.203 276.397 293.337 289.53 309.479 289.53C325.622 289.53 338.756 276.397 338.756 260.253ZM295.202 260.253C295.202 252.381 301.606 245.977 309.478 245.977C317.35 245.977 323.755 252.381 323.755 260.253C323.755 268.125 317.35 274.53 309.478 274.53C301.606 274.53 295.202 268.125 295.202 260.253Z" fill="#C4C4C4"/>
<path d="M438.874 3.86301H162.154C121.833 3.86301 89.028 36.667 89.028 76.988V88.818H73.125C32.804 88.819 0 121.623 0 161.944V347.882C0 388.204 32.804 421.007 73.125 421.007H151.305C155.448 421.007 158.805 417.649 158.805 413.507C158.805 409.365 155.448 406.007 151.305 406.007H73.125C41.075 406.007 15 379.932 15 347.882V161.944C15 129.894 41.075 103.819 73.125 103.819H349.846C381.896 103.819 407.971 129.894 407.971 161.944V347.882C407.971 379.932 381.896 406.007 349.846 406.007C341.303 406.007 333.328 409.765 327.965 416.319C298.548 452.269 263.518 477.674 239.312 492.655C237.055 494.048 234.457 491.695 235.643 489.273C245.155 469.865 252.448 449.512 257.318 428.779C260.046 417.161 251.189 406.007 239.209 406.007H186.306C182.163 406.007 178.806 409.365 178.806 413.507C178.806 417.649 182.163 421.007 186.306 421.007H239.209C241.51 421.007 243.236 423.135 242.715 425.349C238.103 444.987 231.192 464.273 222.174 482.672C214.398 498.544 232.199 514.697 247.206 505.41C272.384 489.827 308.848 463.37 339.574 425.819C342.077 422.761 345.821 421.007 349.846 421.007C390.167 421.007 422.971 388.203 422.971 347.882V336.052H438.874C479.196 336.052 512 303.248 512 262.927V187.458C512 183.316 508.643 179.958 504.5 179.958C500.357 179.958 497 183.316 497 187.458V262.927C497 294.977 470.925 321.052 438.874 321.052H422.971V161.944C422.971 121.623 390.167 88.819 349.846 88.819H104.028V76.989C104.028 44.939 130.103 18.864 162.154 18.864H438.874C470.925 18.864 497 44.939 497 76.989V152.458C497 156.6 500.357 159.958 504.5 159.958C508.643 159.958 512 156.6 512 152.458V76.989C512 36.667 479.196 3.86301 438.874 3.86301V3.86301Z" fill="#C4C4C4"/>
</g>
<defs>
<clipPath id="clip0">
<rect width="512" height="512" fill="white"/>
</clipPath>
</defs>
</svg>
