<svg width="68" height="63" viewBox="0 0 68 63" fill="none" xmlns="http://www.w3.org/2000/svg">
<g clip-path="url(#clip0)">
<path d="M58.3258 28.7925C60.283 27.5098 61.579 25.3761 61.579 22.9711C61.579 19.0367 58.1671 15.8547 53.9487 15.8547C49.7302 15.8547 46.3184 19.0367 46.3184 22.9711C46.3184 25.3761 47.6011 27.5098 49.5715 28.7925C47.892 29.3351 46.3581 30.1738 45.0621 31.2592C43.2768 29.8408 41.1742 28.7555 38.8732 28.1141C41.6635 26.5355 43.5413 23.6618 43.5413 20.3934C43.5413 15.4107 39.2171 11.3776 33.8745 11.3776C28.532 11.3776 24.2077 15.423 24.2077 20.3934C24.2077 23.6618 26.0723 26.5355 28.8758 28.1141C26.6013 28.7555 24.5251 29.8285 22.7531 31.2222C21.4571 30.1615 19.9496 29.3351 18.2966 28.8048C20.2537 27.5221 21.5497 25.3884 21.5497 22.9834C21.5497 19.049 18.1379 15.867 13.9194 15.867C9.70094 15.867 6.28913 19.049 6.28913 22.9834C6.28913 25.3884 7.57186 27.5221 9.54225 28.8048C4.2923 30.4945 0.523438 35.1442 0.523438 40.6079V41.4219C0.523438 41.4466 0.549886 41.4713 0.576334 41.4713H16.7494C16.6568 42.1496 16.6039 42.8526 16.6039 43.5556V44.3943C16.6039 48.0203 19.7512 50.9557 23.6391 50.9557H44.1364C48.0243 50.9557 51.1716 48.0203 51.1716 44.3943V43.5556C51.1716 42.8526 51.1187 42.1496 51.0261 41.4713H67.305C67.3314 41.4713 67.3579 41.4466 67.3579 41.4219V40.6079C67.3314 35.1319 63.5758 30.4822 58.3258 28.7925ZM48.4342 22.9587C48.4342 20.1221 50.9071 17.8157 53.9487 17.8157C56.9902 17.8157 59.4631 20.1221 59.4631 22.9587C59.4631 25.7584 57.0431 28.0401 54.0545 28.1018C54.0148 28.1018 53.9883 28.1018 53.9487 28.1018C53.909 28.1018 53.8825 28.1018 53.8429 28.1018C50.841 28.0525 48.4342 25.7708 48.4342 22.9587ZM26.2971 20.3934C26.2971 16.5083 29.6825 13.351 33.8481 13.351C38.0137 13.351 41.399 16.5083 41.399 20.3934C41.399 24.1428 38.2385 27.2138 34.2845 27.4235C34.139 27.4235 33.9935 27.4235 33.8481 27.4235C33.7026 27.4235 33.5572 27.4235 33.4117 27.4235C29.4577 27.2138 26.2971 24.1428 26.2971 20.3934ZM8.36531 22.9587C8.36531 20.1221 10.8382 17.8157 13.8797 17.8157C16.9213 17.8157 19.3942 20.1221 19.3942 22.9587C19.3942 25.7584 16.9742 28.0401 13.9855 28.1018C13.9459 28.1018 13.9194 28.1018 13.8797 28.1018C13.8401 28.1018 13.8136 28.1018 13.774 28.1018C10.7853 28.0525 8.36531 25.7708 8.36531 22.9587ZM17.1196 39.4856H2.66574C3.26082 34.2315 8.02148 30.1122 13.8004 30.0752C13.8268 30.0752 13.8533 30.0752 13.8797 30.0752C13.9062 30.0752 13.9326 30.0752 13.9591 30.0752C16.7097 30.0875 19.2223 31.0372 21.1662 32.5788C19.2619 34.5029 17.847 36.8709 17.1196 39.4856ZM49.0293 44.3943C49.0293 46.9227 46.8209 48.9824 44.11 48.9824H23.6127C20.9017 48.9824 18.6933 46.9227 18.6933 44.3943V43.5556C18.6933 35.8966 25.2524 29.6312 33.4117 29.4091C33.5572 29.4215 33.7158 29.4215 33.8613 29.4215C34.0068 29.4215 34.1655 29.4215 34.3109 29.4091C42.4702 29.6312 49.0293 35.8966 49.0293 43.5556V44.3943ZM50.603 39.4856C49.8757 36.8832 48.4871 34.5522 46.5961 32.6282C48.5532 31.0495 51.0923 30.0998 53.8693 30.0752C53.8958 30.0752 53.9222 30.0752 53.9487 30.0752C53.9751 30.0752 54.0016 30.0752 54.028 30.0752C59.8069 30.1122 64.5676 34.2315 65.1627 39.4856H50.603Z" fill="#F15A29"/>
</g>
<defs>
<clipPath id="clip0">
<rect width="66.8344" height="62.3333" fill="white" transform="translate(0.523438)"/>
</clipPath>
</defs>
</svg>
