<svg width="67" height="67" viewBox="0 0 67 67" fill="none" xmlns="http://www.w3.org/2000/svg">
<g clip-path="url(#clip0)">
<path d="M60.0065 50.752C60.9793 49.614 61.5685 48.1386 61.5685 46.5273V45.8304C61.5685 42.2386 58.6464 39.3166 55.0547 39.3166C51.4629 39.3166 48.5409 42.2386 48.5409 45.8304V46.5273C48.5409 48.1386 49.13 49.614 50.1029 50.752C47.7216 51.3648 45.712 52.9102 44.4844 54.9732C43.2567 52.9102 41.2471 51.3648 38.8659 50.752C39.8387 49.614 40.4279 48.1386 40.4279 46.5273V45.8304C40.4279 42.2386 37.5058 39.3166 33.9141 39.3166C30.3223 39.3166 27.4003 42.2386 27.4003 45.8304V46.5273C27.4003 48.1386 27.9894 49.614 28.9622 50.752C26.581 51.3648 24.5714 52.9102 23.3438 54.9732C22.1161 52.9102 20.1065 51.3648 17.7253 50.752C18.6981 49.614 19.2872 48.1386 19.2872 46.5273V45.8304C19.2872 42.2386 16.3652 39.3166 12.7734 39.3166C9.18169 39.3166 6.25964 42.2386 6.25964 45.8304V46.5273C6.25964 48.1386 6.84879 49.614 7.82162 50.752C3.85423 51.7732 0.914062 55.3805 0.914062 59.6621V65.0978C0.914062 65.8098 1.49112 66.3869 2.20312 66.3869H65.625C66.337 66.3869 66.9141 65.8098 66.9141 65.0978V59.6621C66.9141 55.3805 63.9739 51.7732 60.0065 50.752V50.752ZM51.119 45.8304C51.119 43.6601 52.8844 41.8947 55.0547 41.8947C57.2249 41.8947 58.9904 43.6601 58.9904 45.8304V46.5273C58.9904 48.6975 57.2249 50.463 55.0547 50.463C52.8844 50.463 51.119 48.6975 51.119 46.5273V45.8304ZM29.9784 45.8304C29.9784 43.6601 31.7438 41.8947 33.9141 41.8947C36.0843 41.8947 37.8497 43.6601 37.8497 45.8304V46.5273C37.8497 48.6975 36.0843 50.463 33.9141 50.463C31.7438 50.463 29.9784 48.6975 29.9784 46.5273V45.8304ZM8.83777 45.8304C8.83777 43.6601 10.6032 41.8947 12.7734 41.8947C14.9437 41.8947 16.7091 43.6601 16.7091 45.8304V46.5273C16.7091 48.6975 14.9437 50.463 12.7734 50.463C10.6032 50.463 8.83777 48.6975 8.83777 46.5273V45.8304ZM3.49219 59.6621C3.49219 56.0115 6.46207 53.0411 10.1132 53.0411H15.4336C19.0843 53.0411 22.0547 56.0115 22.0547 59.6621V63.8088H3.49219V59.6621ZM24.6328 59.6621C24.6328 56.0115 27.6027 53.0411 31.2539 53.0411H36.5743C40.2249 53.0411 43.1953 56.0115 43.1953 59.6621V63.8088H24.6328V59.6621ZM64.3359 63.8088H45.7734V59.6621C45.7734 56.0115 48.7433 53.0411 52.3945 53.0411H57.7149C61.3656 53.0411 64.3359 56.0115 64.3359 59.6621V63.8088Z" fill="#F15A29"/>
<path d="M10.8837 26.2437L10.8721 33.401C10.8711 33.8995 11.1581 34.3542 11.6082 34.5677C11.7845 34.6513 11.9733 34.6926 12.1606 34.6926C12.4532 34.6926 12.7427 34.5929 12.9774 34.4005L20.2591 28.4406H28.3147L32.9231 34.2077C33.1749 34.5229 33.5611 34.7042 33.9629 34.6916C34.3662 34.6815 34.7414 34.4831 34.9765 34.1558L39.0864 28.4401H47.6209L54.8694 34.399C55.2546 34.7157 55.7878 34.7817 56.2385 34.5687C56.6897 34.3557 56.9772 33.9015 56.9772 33.403V26.223C60.9778 23.653 63.4336 19.1961 63.4336 14.4135C63.4336 6.67914 57.1414 0.386902 49.407 0.386902H18.4211C10.6868 0.386902 4.39453 6.67914 4.39453 14.4135C4.39453 19.2122 6.86238 23.6771 10.8837 26.2437V26.2437ZM18.4211 2.96503H49.407C55.7199 2.96503 60.8555 8.10114 60.8555 14.4135C60.8555 18.5254 58.6313 22.3423 55.0517 24.3761C54.6483 24.6047 54.3991 25.0327 54.3991 25.4964V30.6748L48.9009 26.1556C48.6703 25.9657 48.3813 25.862 48.0827 25.862H38.4258C38.0109 25.862 37.6216 26.0619 37.3794 26.3988L33.8763 31.27L29.9421 26.3464C29.6974 26.0403 29.3268 25.862 28.9351 25.862H19.7988C19.5012 25.862 19.2127 25.9652 18.9821 26.1535L13.4547 30.6784L13.4628 25.5176C13.4638 25.0513 13.213 24.6213 12.8072 24.3927C9.20837 22.3634 6.97266 18.5395 6.97266 14.4135C6.97266 8.10114 12.1083 2.96503 18.4211 2.96503V2.96503Z" fill="#F15A29"/>
<path d="M49.4072 8.12128H49.4505H49.4556C50.1651 8.12128 50.7421 7.54774 50.7446 6.83725C50.7477 6.12524 50.1726 5.54617 49.4606 5.54315H49.4072C48.6952 5.54315 48.1182 6.12021 48.1182 6.83221C48.1182 7.54422 48.6952 8.12128 49.4072 8.12128Z" fill="#F15A29"/>
<path d="M53.5397 9.67369C54.9119 10.8721 55.6989 12.5998 55.6989 14.4135C55.6989 16.1311 55.0166 17.7364 53.7779 18.9348C53.2663 19.4298 53.2527 20.2455 53.7472 20.7576C54.0005 21.0189 54.3368 21.1504 54.6742 21.1504C54.997 21.1504 55.3197 21.03 55.57 20.7878C57.3158 19.0995 58.277 16.836 58.277 14.4135C58.277 11.855 57.1682 9.4194 55.2356 7.73153C54.6994 7.26324 53.8851 7.31863 53.4169 7.8549C52.9486 8.39117 53.0035 9.2054 53.5397 9.67369V9.67369Z" fill="#F15A29"/>
<path d="M29.9518 18.468C31.5556 19.9519 33.1392 21.0331 33.2057 21.0784C33.4242 21.2274 33.6775 21.3014 33.9308 21.3014C34.1835 21.3014 34.4368 21.2269 34.6554 21.0784C34.7218 21.0331 36.3055 19.9519 37.9092 18.468C40.2764 16.2786 41.4265 14.4075 41.4265 12.7488C41.4265 9.86906 39.2356 7.52609 36.5421 7.52609C35.6121 7.52609 34.7052 7.81261 33.9308 8.33578C33.1553 7.81261 32.2489 7.52609 31.3189 7.52609C28.6255 7.52609 26.4346 9.86856 26.4346 12.7488C26.4346 14.4075 27.5847 16.2781 29.9518 18.468V18.468ZM31.3189 10.1042C31.9368 10.1042 32.5178 10.3827 32.9554 10.8887C33.2006 11.1717 33.5561 11.3344 33.9308 11.3344C34.3049 11.3344 34.6604 11.1717 34.9056 10.8887C35.3432 10.3827 35.9243 10.1042 36.5421 10.1042C37.8141 10.1042 38.8483 11.2906 38.8483 12.7488C38.8483 14.1909 36.1317 16.7917 33.9298 18.4297C31.7278 16.7937 29.0122 14.195 29.0122 12.7488C29.0127 11.2906 30.047 10.1042 31.3189 10.1042V10.1042Z" fill="#F15A29"/>
</g>
<defs>
<clipPath id="clip0">
<rect width="66" height="66" fill="white" transform="translate(0.914062 0.386902)"/>
</clipPath>
</defs>
</svg>
