<svg width="55" height="58" viewBox="0 0 55 58" fill="none" xmlns="http://www.w3.org/2000/svg">
<g clip-path="url(#clip0)">
<path d="M27.5 0.101562C12.336 0.101562 0 12.9945 0 28.8429C0 44.6914 12.336 57.5843 27.5 57.5843C42.664 57.5843 55 44.6914 55 28.8429C55 12.9945 42.664 0.101562 27.5 0.101562Z" fill="#607D8B"/>
<path d="M27.5 57.5843C12.336 57.5843 0 44.6914 0 28.8429C0 12.9945 12.336 0.101562 27.5 0.101562C42.664 0.101562 55 12.9945 55 28.8429C55 44.6914 42.664 57.5843 27.5 57.5843ZM27.5 3.69423C14.2313 3.69423 3.4375 14.9752 3.4375 28.8429C3.4375 42.7106 14.2313 53.9916 27.5 53.9916C40.7688 53.9916 51.5625 42.7106 51.5625 28.8429C51.5625 14.9752 40.7688 3.69423 27.5 3.69423Z" fill="black"/>
<path d="M37.2394 20.4601H17.7603C16.8115 20.4601 16.0415 19.6553 16.0415 18.6638C16.0415 17.6722 16.8115 16.8674 17.7603 16.8674H37.2394C38.1882 16.8674 38.9582 17.6722 38.9582 18.6638C38.9582 19.6553 38.1882 20.4601 37.2394 20.4601Z" fill="black"/>
<path d="M37.2394 30.6393H17.7603C16.8115 30.6393 16.0415 29.8345 16.0415 28.843C16.0415 27.8514 16.8115 27.0466 17.7603 27.0466H37.2394C38.1882 27.0466 38.9582 27.8514 38.9582 28.843C38.9582 29.8345 38.1882 30.6393 37.2394 30.6393Z" fill="black"/>
<path d="M37.2394 40.8185H17.7603C16.8115 40.8185 16.0415 40.0137 16.0415 39.0222C16.0415 38.0306 16.8115 37.2258 17.7603 37.2258H37.2394C38.1882 37.2258 38.9582 38.0306 38.9582 39.0222C38.9582 40.0137 38.1882 40.8185 37.2394 40.8185Z" fill="black"/>
</g>
<defs>
<clipPath id="clip0">
<rect width="55" height="57.4827" fill="white" transform="translate(0 0.101562)"/>
</clipPath>
</defs>
</svg>
