<svg width="20" height="19" viewBox="0 0 20 19" fill="none" xmlns="http://www.w3.org/2000/svg">
<g clip-path="url(#clip0)">
<path d="M14.0094 2.53949C13.5695 2.53949 13.1417 2.59097 12.7316 2.68815C11.6137 1.83238 10.23 1.35806 8.8031 1.34687C7.06133 1.33371 5.4198 1.99125 4.18306 3.19978C2.94471 4.40986 2.26275 6.02317 2.26275 7.74246C2.26275 8.16754 2.15595 8.59087 1.9539 8.9666L0.855309 11.0094C0.676953 11.3398 0.685779 11.7299 0.878931 12.0529C1.07216 12.376 1.4144 12.5729 1.79444 12.5794L2.26099 12.5795V14.2148C2.26099 15.1927 3.06795 15.9883 4.05979 15.9883H5.22892V16.4665C5.22892 17.2792 5.8996 17.9403 6.72396 17.9403H11.8622C12.6865 17.9403 13.3572 17.2792 13.3572 16.4665V15.4075C13.3572 14.7039 13.4304 14.0004 13.5751 13.3099C13.7184 13.321 13.8632 13.3267 14.0094 13.3267C17.0252 13.3267 19.4787 10.9071 19.4787 7.93307C19.4787 4.95908 17.0252 2.53949 14.0094 2.53949ZM12.2586 15.4075V16.4665C12.2586 16.6825 12.0808 16.8582 11.8622 16.8582H6.72396C6.50539 16.8582 6.32758 16.6825 6.32758 16.4665V15.8559C6.32758 15.3322 5.89528 14.9061 5.36384 14.9061H4.05979C3.67374 14.9061 3.35966 14.596 3.35966 14.2148V12.4471C3.35966 11.9234 2.92735 11.4973 2.39591 11.4973H1.83619L2.92472 9.47311C3.21041 8.94189 3.36141 8.34344 3.36141 7.74238C3.36141 6.31377 3.92801 4.97336 4.95684 3.968C5.98409 2.96418 7.34623 2.41865 8.79435 2.42896C9.74261 2.4364 10.6676 2.68978 11.4747 3.1544C9.73162 4.05717 8.54 5.86048 8.54 7.93307C8.54 10.3888 10.2129 12.4665 12.4939 13.1161C12.3376 13.8706 12.2586 14.639 12.2586 15.4075ZM14.0094 12.2446C11.5994 12.2446 9.63874 10.3105 9.63874 7.93314C9.63874 5.5558 11.5994 3.62169 14.0094 3.62169C16.4194 3.62169 18.3801 5.5558 18.3801 7.93314C18.3801 10.3105 16.4194 12.2446 14.0094 12.2446Z" fill="#F15A29"/>
<path d="M14.1138 4.54643C13.5434 4.51833 12.9852 4.72925 12.5823 5.12617C12.3678 5.33749 12.3678 5.68007 12.5823 5.89139C12.7968 6.10271 13.1446 6.10271 13.3591 5.89139C13.5455 5.70785 13.7941 5.61374 14.0582 5.62726C14.5135 5.64999 14.8951 6.01819 14.9269 6.46557C14.9555 6.86757 14.7194 7.23433 14.3393 7.37819C13.8134 7.57724 13.4602 8.09035 13.4602 8.65504C13.4602 8.95387 13.7061 9.19614 14.0095 9.19614C14.3129 9.19614 14.5589 8.95387 14.5589 8.65504C14.5589 8.53506 14.629 8.42789 14.7334 8.38835C15.5674 8.07271 16.0855 7.26957 16.0229 6.38989C15.9518 5.38968 15.131 4.59719 14.1138 4.54643Z" fill="#F15A29"/>
<path d="M14.0093 9.67749C13.7059 9.67749 13.46 9.91976 13.46 10.2186V10.7813C13.46 11.0801 13.7059 11.3224 14.0093 11.3224C14.3127 11.3224 14.5587 11.0801 14.5587 10.7813V10.2186C14.5586 9.91976 14.3127 9.67749 14.0093 9.67749Z" fill="#F15A29"/>
</g>
<defs>
<clipPath id="clip0">
<rect width="18.7512" height="18.4695" fill="white" transform="translate(0.727539 0.408691)"/>
</clipPath>
</defs>
</svg>
