<svg width="34" height="34" viewBox="0 0 34 34" fill="none" xmlns="http://www.w3.org/2000/svg">
<g clip-path="url(#clip0)">
<path d="M32.9365 15.938H19.4785C18.892 15.938 18.416 15.4621 18.416 14.8756C18.416 14.2891 18.892 13.8131 19.4785 13.8131H32.9365C33.523 13.8131 33.9989 14.2891 33.9989 14.8756C33.9989 15.4621 33.523 15.938 32.9365 15.938Z" fill="#677A87"/>
<path d="M27.6247 21.2504C27.3526 21.2504 27.0808 21.1469 26.8738 20.9389C26.4588 20.5236 26.4588 19.8507 26.8738 19.4357L31.4353 14.8743L26.8738 10.3126C26.4588 9.89761 26.4588 9.22475 26.8738 8.80972C27.2891 8.39444 27.9618 8.39444 28.3769 8.80972L33.6893 14.1221C34.1043 14.5371 34.1043 15.2099 33.6893 15.625L28.3769 20.9373C28.1686 21.1469 27.8968 21.2504 27.6247 21.2504Z" fill="#677A87"/>
<path d="M11.3331 34.0009C11.0298 34.0009 10.7422 33.9584 10.4548 33.8692L1.92935 31.0288C0.769355 30.6236 0 29.5428 0 28.3345V2.83531C0 1.27274 1.27076 0.00198364 2.83333 0.00198364C3.1363 0.00198364 3.42397 0.0445239 3.71163 0.133754L12.2368 2.97409C13.397 3.37926 14.1661 4.46014 14.1661 5.66839V31.1676C14.1661 32.7302 12.8956 34.0009 11.3331 34.0009ZM2.83333 2.12692C2.44373 2.12692 2.12493 2.44571 2.12493 2.83531V28.3345C2.12493 28.6362 2.32752 28.9166 2.61648 29.0172L11.1019 31.8449C11.1629 31.8646 11.2423 31.876 11.3331 31.876C11.7227 31.876 12.0412 31.5572 12.0412 31.1676V5.66839C12.0412 5.36671 11.8386 5.08631 11.5497 4.98567L3.06419 2.15804C3.00323 2.13833 2.92386 2.12692 2.83333 2.12692Z" fill="#677A87"/>
<path d="M21.604 11.3343C21.0176 11.3343 20.5416 10.8583 20.5416 10.2719V3.89705C20.5416 2.92096 19.7471 2.12619 18.771 2.12619H2.83394C2.24746 2.12619 1.77148 1.6502 1.77148 1.06372C1.77148 0.477234 2.24746 0.00125122 2.83394 0.00125122H18.771C20.92 0.00125122 22.6665 1.74799 22.6665 3.89705V10.2719C22.6665 10.8583 22.1905 11.3343 21.604 11.3343Z" fill="#677A87"/>
<path d="M18.7701 29.7501H13.1035C12.517 29.7501 12.041 29.2741 12.041 28.6876C12.041 28.1012 12.517 27.6252 13.1035 27.6252H18.7701C19.7462 27.6252 20.5408 26.8304 20.5408 25.8543V19.4795C20.5408 18.893 21.0167 18.4171 21.6032 18.4171C22.1897 18.4171 22.6657 18.893 22.6657 19.4795V25.8543C22.6657 28.0034 20.9192 29.7501 18.7701 29.7501Z" fill="#677A87"/>
</g>
<defs>
<clipPath id="clip0">
<rect width="34" height="34" fill="white"/>
</clipPath>
</defs>
</svg>
