<svg width="479" height="240" viewBox="0 0 479 240" fill="none" xmlns="http://www.w3.org/2000/svg">
<g clip-path="url(#clip0)">
<path d="M58.8206 3.6557L114.476 35.7939V100.07L58.8206 132.208L3.16504 100.07V35.7939L58.8206 3.6557Z" stroke="#F15A29" stroke-width="7.88" stroke-miterlimit="10"/>
<path d="M180.125 3.6557L235.781 35.7939V100.07L180.125 132.208L124.47 100.07V35.7939L180.125 3.6557Z" stroke="#F15A29" stroke-width="7.88" stroke-miterlimit="10"/>
<path d="M119.328 107.792L174.992 139.93V204.206L119.328 236.344L63.6729 204.206V139.93L119.328 107.792Z" stroke="#F15A29" stroke-width="7.88" stroke-miterlimit="10"/>
<path d="M241.179 107.792L296.835 139.93V204.206L241.179 236.344L185.524 204.206V139.93L241.179 107.792Z" stroke="#F15A29" stroke-width="7.88" stroke-miterlimit="10"/>
</g>
<path d="M330.056 195H335.432V175.224H352.968V195H358.344V153.016H352.968V170.616H335.432V153.016H330.056V195ZM369.455 195H395.695V190.456H385.263V157.496H395.695V153.016H369.455V157.496H379.887V190.456H369.455V195ZM417.878 195H424.086L437.398 153.016H431.958L425.238 175.672C423.83 180.664 422.742 184.632 421.206 189.56H420.95C419.414 184.632 418.39 180.664 416.918 175.672L410.134 153.016H404.502L417.878 195ZM447.421 195H474.045V190.456H452.797V175.224H470.205V170.68H452.797V157.496H473.405V153.016H447.421V195Z" fill="#F15A29"/>
<path d="M270.336 91H283.2C292.608 91 299.008 86.968 299.008 78.712C299.008 72.952 295.424 69.624 289.28 68.664V68.408C294.272 67.128 296.64 63.416 296.64 59.256C296.64 51.896 290.816 49.016 282.24 49.016H270.336V91ZM275.648 66.68V53.496H281.6C288.064 53.496 291.392 55.16 291.392 59.704C291.392 64.376 288.512 66.68 281.344 66.68H275.648ZM275.648 86.52V71.16H282.432C289.792 71.16 293.76 73.272 293.76 78.456C293.76 84.152 289.6 86.52 282.432 86.52H275.648ZM309.671 91H336.295V86.456H315.047V71.224H332.455V66.68H315.047V53.496H335.655V49.016H309.671V91ZM348.046 91H374.67V86.456H353.422V71.224H370.83V66.68H353.422V53.496H374.03V49.016H348.046V91Z" fill="#F15A29"/>
<defs>
<clipPath id="clip0">
<rect width="300" height="240" fill="white"/>
</clipPath>
</defs>
</svg>
