<svg width="62" height="56" viewBox="0 0 62 56" fill="none" xmlns="http://www.w3.org/2000/svg">
<path d="M55.7288 0.742218H5.58887C2.64439 0.742218 0.242188 3.59037 0.242188 7.08837V49.3961C0.242188 52.8822 2.6337 55.7422 5.58887 55.7422H55.7288C58.666 55.7422 61.0755 52.9037 61.0755 49.3961V7.08837C61.0755 3.60222 58.684 0.742218 55.7288 0.742218ZM54.9905 4.97299L30.7722 33.7187L6.34441 4.97299H54.9905ZM3.80664 48.52V7.94426L20.9729 28.1448L3.80664 48.52ZM6.32707 51.5115L23.5042 31.1234L29.523 38.206C30.2197 39.0259 31.3441 39.0232 32.0379 38.1995L37.9066 31.2338L54.9906 51.5115H6.32707ZM57.5111 48.5199L40.427 28.2422L57.5111 7.96442V48.5199Z" fill="#F15A29"/>
</svg>
