<svg width="52" height="43" viewBox="0 0 52 43" fill="none" xmlns="http://www.w3.org/2000/svg">
<path d="M50.0962 17.6993C52.6346 19.7983 52.6346 23.2016 50.0962 25.3007C47.5578 27.3997 43.4422 27.3997 40.9038 25.3007C38.3654 23.2016 38.3654 19.7983 40.9038 17.6993C43.4422 15.6002 47.5578 15.6002 50.0962 17.6993Z" fill="#F15A29"/>
<path d="M30.5962 17.6993C33.1346 19.7983 33.1346 23.2016 30.5962 25.3007C28.0578 27.3997 23.9422 27.3997 21.4038 25.3007C18.8654 23.2016 18.8654 19.7983 21.4038 17.6993C23.9422 15.6002 28.0578 15.6002 30.5962 17.6993Z" fill="#F15A29"/>
<path d="M11.0962 17.6993C13.6346 19.7983 13.6346 23.2016 11.0962 25.3007C8.55778 27.3997 4.4422 27.3997 1.9038 25.3007C-0.6346 23.2016 -0.6346 19.7983 1.9038 17.6993C4.4422 15.6002 8.55778 15.6002 11.0962 17.6993Z" fill="#F15A29"/>
</svg>
