<svg width="79" height="70" viewBox="0 0 79 70" fill="none" xmlns="http://www.w3.org/2000/svg">
<g clip-path="url(#clip0)">
<path d="M62.9068 35.8748V29.4246C62.9068 20.015 55.8746 12.0397 46.2396 9.43483V6.51446C46.2396 3.17053 43.1809 0.450012 39.4212 0.450012C35.6616 0.450012 32.6028 3.17053 32.6028 6.51446V9.43483C22.9677 12.0397 15.9357 20.0149 15.9357 29.4246V35.8748C15.9357 44.1402 12.3934 51.9776 5.96157 57.9434C5.33125 58.528 5.15412 59.3907 5.51141 60.1357C5.86869 60.8807 6.69144 61.3641 7.60208 61.3641H28.2859C29.3417 65.972 33.9333 69.45 39.4212 69.45C44.9093 69.45 49.5006 65.972 50.5566 61.3641H71.2404C72.151 61.3641 72.9736 60.8807 73.3309 60.1357C73.6882 59.3907 73.5111 58.528 72.8809 57.9434C66.449 51.9776 62.9068 44.1401 62.9068 35.8748ZM37.1484 6.51446C37.1484 5.39982 38.168 4.49298 39.4212 4.49298C40.6745 4.49298 41.694 5.39982 41.694 6.51446V8.63406C40.946 8.56991 40.1879 8.53595 39.4212 8.53595C38.6545 8.53595 37.8965 8.56991 37.1484 8.63406V6.51446ZM39.4212 65.407C36.4583 65.407 33.932 63.7169 32.9938 61.3641H45.8487C44.9105 63.7169 42.3842 65.407 39.4212 65.407ZM12.5007 57.3211C17.6768 51.1499 20.4813 43.6817 20.4813 35.8748V29.4246C20.4813 20.1359 28.9777 12.5789 39.4212 12.5789C49.8647 12.5789 58.3612 20.1359 58.3612 29.4246V35.8748C58.3612 43.6817 61.1657 51.1499 66.3419 57.3211H12.5007Z" fill="#F15A29"/>
<path d="M68.9681 29.4246C68.9681 30.541 69.9857 31.4461 71.2409 31.4461C72.4961 31.4461 73.5137 30.541 73.5137 29.4246C73.5137 21.3252 69.9675 13.7105 63.5283 7.9834C62.6409 7.19408 61.2017 7.19394 60.3141 7.9834C59.4265 8.77286 59.4265 10.0527 60.3141 10.8422C65.8948 15.8057 68.9681 22.4051 68.9681 29.4246Z" fill="#F15A29"/>
<path d="M7.6019 31.4461C8.85709 31.4461 9.87469 30.541 9.87469 29.4246C9.87469 22.4052 12.9481 15.8059 18.5286 10.8423C19.4162 10.0529 19.4162 8.773 18.5286 7.98354C17.6411 7.19408 16.202 7.19408 15.3144 7.98354C8.87527 13.7107 5.3291 21.3252 5.3291 29.4246C5.3291 30.541 6.34671 31.4461 7.6019 31.4461Z" fill="#F15A29"/>
</g>
<defs>
<clipPath id="clip0">
<rect width="77.5781" height="69" fill="white" transform="translate(0.632812 0.450012)"/>
</clipPath>
</defs>
</svg>
