<svg width="78" height="94" viewBox="0 0 78 94" fill="none" xmlns="http://www.w3.org/2000/svg">
<path d="M8.11768 6.76062V22.3199H10.7045V6.76062C10.7045 5.04171 11.8624 3.64877 13.2913 3.64877H65.0277C66.4566 3.64877 67.6145 5.04171 67.6145 6.76062H70.2013C70.2013 3.32358 67.8848 0.536911 65.0277 0.536911H13.2913C10.4342 0.536911 8.11768 3.32358 8.11768 6.76062Z" fill="#F15A29"/>
<path d="M5.53106 93.8926H65.0279C67.885 93.8926 70.2015 91.1059 70.2015 87.6689V81.4452H67.6147V87.6689C67.6147 89.3878 66.4568 90.7808 65.0279 90.7808C63.599 90.7808 62.4411 89.3878 62.4411 87.6689V83.0011C62.4411 82.1415 61.8623 81.4452 61.1477 81.4452H10.7047V50.3266H8.11788V81.4452H1.65083C0.936223 81.4452 0.357422 82.1415 0.357422 83.0011V87.6689C0.357422 91.1059 2.67392 93.8926 5.53106 93.8926ZM2.94424 84.557H59.8543V87.6689C59.8536 88.7623 60.0922 89.8355 60.5491 90.7808H5.53106C4.10217 90.7808 2.94424 89.3878 2.94424 87.6689V84.557Z" fill="#F15A29"/>
<path d="M1.65083 47.2148H27.519C28.2336 47.2148 28.8124 46.5185 28.8124 45.6588V26.9877C28.8124 26.128 28.2336 25.4318 27.519 25.4318H1.65083C0.936223 25.4318 0.357422 26.128 0.357422 26.9877V45.6588C0.357422 46.5185 0.936223 47.2148 1.65083 47.2148ZM2.94424 28.5436H26.2256V44.1029H2.94424V28.5436Z" fill="#F15A29"/>
<path d="M8.49663 32.1114L5.90981 35.2232C5.40506 35.8312 5.40506 36.8153 5.90981 37.4233L8.49663 40.5352L10.3255 38.3351L8.65314 36.3233L10.3255 34.3115L8.49663 32.1114Z" fill="#F15A29"/>
<path d="M20.6731 32.1114L18.8442 34.3115L20.5166 36.3233L18.8442 38.3351L20.6731 40.5352L23.2599 37.4233C23.7647 36.8153 23.7647 35.8312 23.2599 35.2232L20.6731 32.1114Z" fill="#F15A29"/>
<path d="M12.0635 40.499L14.6516 31.1622L17.1065 32.1471L14.5171 41.4831L12.0635 40.499Z" fill="#F15A29"/>
<path d="M76.6687 9.87247H32.6928C31.9782 9.87247 31.3994 10.5687 31.3994 11.4284V42.547C31.3994 43.4066 31.9782 44.1029 32.6928 44.1029H76.6687C77.3834 44.1029 77.9622 43.4066 77.9622 42.547V11.4284C77.9622 10.5687 77.3834 9.87247 76.6687 9.87247ZM75.3753 40.991H33.9862V37.2039L45.601 28.8206L56.9245 37.6302C57.3135 37.9317 57.8073 37.9609 58.2179 37.7049L67.5819 31.8702L75.3753 37.2257V40.991ZM75.3753 33.6424L68.2616 28.749C67.8807 28.486 67.4147 28.4755 67.0248 28.7179L57.7035 34.5265L46.3344 25.6807C45.9199 25.3586 45.3889 25.3481 44.9657 25.6543L33.9862 33.5755V12.9843H75.3753V33.6424Z" fill="#F15A29"/>
<path d="M61.794 26.9877C64.2942 26.9877 66.321 24.5495 66.321 21.5419C66.321 18.5343 64.2942 16.0962 61.794 16.0962C59.2939 16.0962 57.2671 18.5343 57.2671 21.5419C57.2671 24.5495 59.2939 26.9877 61.794 26.9877ZM61.794 19.208C62.8656 19.208 63.7341 20.2528 63.7341 21.5419C63.7341 22.831 62.8656 23.8758 61.794 23.8758C60.7224 23.8758 59.8539 22.831 59.8539 21.5419C59.8539 20.2528 60.7224 19.208 61.794 19.208Z" fill="#F15A29"/>
<path d="M13.2915 51.8825V70.5537C13.2915 71.4133 13.8703 72.1096 14.5849 72.1096H46.9201C47.6347 72.1096 48.2135 71.4133 48.2135 70.5537V51.8825C48.2135 51.0229 47.6347 50.3266 46.9201 50.3266H14.5849C13.8703 50.3266 13.2915 51.0229 13.2915 51.8825ZM15.8783 53.4385H45.6267V68.9978H15.8783V53.4385Z" fill="#F15A29"/>
<path d="M18.4653 56.5503H23.639V59.6622H18.4653V56.5503Z" fill="#F15A29"/>
<path d="M26.2256 56.5503H37.8663V59.6622H26.2256V56.5503Z" fill="#F15A29"/>
<path d="M40.4531 56.5503H43.0399V59.6622H40.4531V56.5503Z" fill="#F15A29"/>
<path d="M18.4653 62.774H33.9862V65.8859H18.4653V62.774Z" fill="#F15A29"/>
<path d="M36.5732 62.774H43.0403V65.8859H36.5732V62.774Z" fill="#F15A29"/>
<path d="M13.2915 6.76063H15.8783V9.87249H13.2915V6.76063Z" fill="#F15A29"/>
<path d="M18.4653 6.76063H21.0521V9.87249H18.4653V6.76063Z" fill="#F15A29"/>
<path d="M23.6387 6.76063H26.2255V9.87249H23.6387V6.76063Z" fill="#F15A29"/>
<path d="M13.2915 12.9843H28.8124V16.0962H13.2915V12.9843Z" fill="#F15A29"/>
<path d="M76.6685 56.5503H52.0937C51.3791 56.5503 50.8003 57.2466 50.8003 58.1063V76.7774C50.8003 77.637 51.3791 78.3333 52.0937 78.3333H76.6685C77.3831 78.3333 77.9619 77.637 77.9619 76.7774V58.1063C77.9619 57.2466 77.3831 56.5503 76.6685 56.5503ZM75.3751 75.2215H53.3871V59.6622H75.3751V75.2215Z" fill="#F15A29"/>
<path d="M55.9741 62.774H58.5609V65.8859H55.9741V62.774Z" fill="#F15A29"/>
<path d="M55.9741 68.9978H58.5609V72.1096H55.9741V68.9978Z" fill="#F15A29"/>
<path d="M61.1475 62.774H72.7882V65.8859H61.1475V62.774Z" fill="#F15A29"/>
<path d="M61.1475 68.9978H72.7882V72.1096H61.1475V68.9978Z" fill="#F15A29"/>
<path d="M67.6147 47.2148H70.2016V53.4385H67.6147V47.2148Z" fill="#F15A29"/>
</svg>
