<svg width="79" height="73" viewBox="0 0 79 73" fill="none" xmlns="http://www.w3.org/2000/svg">
<g clip-path="url(#clip0)">
<path d="M17.5535 12.9319H3.25219C1.99147 12.9319 0.969727 11.9858 0.969727 10.8198C0.969727 9.6538 1.99147 8.7077 3.25219 8.7077H17.5535C18.8142 8.7077 19.8359 9.6538 19.8359 10.8198C19.8359 11.9858 18.8142 12.9319 17.5535 12.9319Z" fill="#F15A29"/>
<path d="M25.7258 20.4937C19.9609 20.4937 15.271 16.1538 15.271 10.8196C15.271 5.48433 19.9609 1.14452 25.7258 1.14452C31.4908 1.14452 36.1807 5.48433 36.1807 10.8196C36.1807 16.154 31.4908 20.4937 25.7258 20.4937ZM25.7258 5.36888C22.4781 5.36888 19.8359 7.81428 19.8359 10.8196C19.8359 13.825 22.4781 16.2693 25.7258 16.2693C28.9736 16.2693 31.6158 13.825 31.6158 10.8196C31.6158 7.81428 28.9736 5.36888 25.7258 5.36888Z" fill="#F15A29"/>
<path d="M76.2917 12.9319H42.178C40.9172 12.9319 39.8955 11.9858 39.8955 10.8198C39.8955 9.6538 40.9172 8.7077 42.178 8.7077H76.2916C77.5523 8.7077 78.574 9.6538 78.574 10.8198C78.574 11.9858 77.5525 12.9319 76.2917 12.9319Z" fill="#F15A29"/>
<path d="M56.3714 46.0163C50.6062 46.0163 45.9165 41.6765 45.9165 36.3423C45.9165 31.0081 50.6064 26.6683 56.3714 26.6683C62.1363 26.6683 66.8262 31.0081 66.8262 36.3423C66.8262 41.6765 62.1365 46.0163 56.3714 46.0163ZM56.3714 30.8926C53.1236 30.8926 50.4814 33.3369 50.4814 36.3423C50.4814 39.3476 53.1236 41.7919 56.3714 41.7919C59.6191 41.7919 62.2613 39.3476 62.2613 36.3423C62.2613 33.3369 59.6191 30.8926 56.3714 30.8926Z" fill="#F15A29"/>
<path d="M39.9201 38.4544H3.25219C1.99147 38.4544 0.969727 37.5083 0.969727 36.3423C0.969727 35.1763 1.99147 34.2302 3.25219 34.2302H39.9201C41.1808 34.2302 42.2025 35.1763 42.2025 36.3423C42.2025 37.5083 41.1808 38.4544 39.9201 38.4544Z" fill="#F15A29"/>
<path d="M76.2919 38.4544H64.5442C63.2835 38.4544 62.2617 37.5083 62.2617 36.3423C62.2617 35.1763 63.2835 34.2302 64.5442 34.2302H76.2919C77.5526 34.2302 78.5743 35.1763 78.5743 36.3423C78.5743 37.5083 77.5526 38.4544 76.2919 38.4544Z" fill="#F15A29"/>
<path d="M23.1726 71.5399C17.4076 71.5399 12.7178 67.2001 12.7178 61.8648C12.7178 56.5306 17.4076 52.1907 23.1726 52.1907C28.9376 52.1907 33.6275 56.5306 33.6275 61.8648C33.6275 67.2001 28.9376 71.5399 23.1726 71.5399ZM23.1726 56.4151C19.9248 56.4151 17.2827 58.8594 17.2827 61.8648C17.2827 64.8701 19.9248 67.3155 23.1726 67.3155C26.4204 67.3155 29.0625 64.8701 29.0625 61.8648C29.0625 58.8594 26.4204 56.4151 23.1726 56.4151Z" fill="#F15A29"/>
<path d="M76.2916 63.977H39.6238C38.363 63.977 37.3413 63.0309 37.3413 61.8649C37.3413 60.6989 38.363 59.7528 39.6238 59.7528H76.2916C77.5524 59.7528 78.5741 60.6989 78.5741 61.8649C78.5741 63.0309 77.5524 63.977 76.2916 63.977Z" fill="#F15A29"/>
<path d="M14.9999 63.977H3.25219C1.99147 63.977 0.969727 63.0309 0.969727 61.8648C0.969727 60.6988 1.99147 59.7527 3.25219 59.7527H14.9999C16.2606 59.7527 17.2824 60.6988 17.2824 61.8648C17.2824 63.0309 16.2606 63.977 14.9999 63.977Z" fill="#F15A29"/>
</g>
<defs>
<clipPath id="clip0">
<rect width="77.6046" height="71.8121" fill="white" transform="translate(0.969727 0.436241)"/>
</clipPath>
</defs>
</svg>
