<svg width="20" height="21" viewBox="0 0 20 21" fill="none" xmlns="http://www.w3.org/2000/svg">
<g clip-path="url(#clip0)">
<path d="M19.0099 10.1717C18.9854 10.1719 18.961 10.1739 18.9367 10.1775C18.7382 10.1182 18.2169 9.88587 17.3605 8.99642C17.2057 8.83588 17.0288 8.70004 16.8357 8.59333C16.949 8.40186 17.0354 8.19455 17.0922 7.97768C17.4038 6.76581 17.7426 6.29274 17.8853 6.13688C17.9205 6.1223 17.9373 6.11322 17.9373 6.11322C18.0121 6.06671 18.0662 5.99154 18.0882 5.9039C18.1108 5.81488 18.0997 5.72019 18.057 5.6395C17.9716 5.4844 17.7816 5.43047 17.6322 5.51896C17.611 5.53178 17.5908 5.5463 17.5718 5.56238C17.3745 5.6139 16.8133 5.6868 15.6397 5.36116C15.4277 5.30235 15.2084 5.27679 14.989 5.28534C14.9963 5.0606 14.9715 4.83599 14.9155 4.61881C14.6039 3.39723 14.6724 2.81366 14.722 2.60984C14.7372 2.59022 14.7509 2.56942 14.7631 2.54763C14.8011 2.46916 14.8082 2.37836 14.7827 2.29457C14.7566 2.20883 14.7004 2.13643 14.6254 2.09172C14.5511 2.04922 14.4635 2.03964 14.3823 2.06515C14.3007 2.09067 14.2323 2.14898 14.1922 2.22717C14.1922 2.22717 14.1835 2.24467 14.1695 2.28063C14.0193 2.42936 13.5646 2.78061 12.3988 3.10561C12.1875 3.16536 11.9858 3.25742 11.8005 3.37876C11.6982 3.18065 11.5687 2.99903 11.4163 2.83958C10.5599 1.94915 10.3374 1.40706 10.2801 1.20097C10.2832 1.17573 10.2847 1.15029 10.2844 1.12483C10.2727 0.941076 10.125 0.798849 9.94788 0.800801C9.77577 0.800801 9.63625 0.945873 9.63625 1.12483C9.63649 1.15042 9.63837 1.17597 9.64186 1.2013C9.58483 1.40738 9.3614 1.94948 8.50599 2.8399C8.35159 3.00099 8.22086 3.18485 8.11801 3.38556C7.93394 3.26768 7.73454 3.17787 7.52592 3.11889C6.36044 2.79486 5.90547 2.44265 5.75589 2.29392C5.74187 2.25795 5.73314 2.24045 5.73314 2.24045C5.6885 2.1628 5.61632 2.10649 5.53214 2.08362C5.44662 2.06021 5.35571 2.0718 5.27817 2.11603C5.20614 2.15862 5.15339 2.22928 5.13158 2.3124C5.10977 2.39552 5.12069 2.48425 5.16193 2.55897C5.17434 2.58079 5.18819 2.60169 5.20338 2.62151C5.25293 2.82532 5.32273 3.40825 5.00986 4.63048C4.95342 4.85088 4.92885 5.07879 4.93694 5.30672C4.72071 5.29917 4.50459 5.32494 4.29561 5.38319C3.1052 5.71305 2.55051 5.63464 2.36011 5.58279C2.34166 5.56759 2.3223 5.55363 2.30215 5.54099C2.14323 5.46157 1.95232 5.5241 1.86587 5.68389C1.82458 5.7612 1.81513 5.85261 1.83969 5.93728C1.86423 6.02212 1.92032 6.09327 1.99551 6.13493C1.99551 6.13493 2.01576 6.14465 2.04568 6.15762C2.18716 6.31056 2.5262 6.78072 2.84063 7.99971C2.89808 8.21958 2.98661 8.42935 3.10333 8.62217C2.91272 8.72842 2.73804 8.86301 2.58479 9.02169C1.74776 9.89268 1.23078 10.1328 1.0089 10.2034C0.984641 10.1998 0.960176 10.1978 0.935668 10.1976C0.758948 10.2098 0.622165 10.3634 0.624043 10.5475C0.624043 10.7265 0.763562 10.8716 0.935668 10.8716C0.96028 10.8713 0.984849 10.8694 1.00921 10.8657C1.20772 10.9254 1.72907 11.1574 2.5851 12.0468C2.73995 12.2073 2.91679 12.3432 3.10988 12.4499C2.99662 12.6414 2.91025 12.8487 2.85341 13.0655C2.54179 14.2774 2.20305 14.7505 2.06032 14.9063C2.02511 14.9209 2.00828 14.93 2.00828 14.93C1.93356 14.9765 1.8794 15.0517 1.85746 15.1393C1.83479 15.2283 1.84594 15.323 1.88862 15.4037C1.97401 15.5588 2.16404 15.6128 2.31336 15.5243C2.33457 15.5114 2.35478 15.4969 2.37382 15.4808C2.57108 15.4293 3.13232 15.3567 4.3059 15.6821C4.49485 15.7354 4.68972 15.7628 4.88552 15.7634C4.9092 15.7634 4.93258 15.7598 4.95657 15.7589C4.94927 15.9833 4.97405 16.2076 5.03012 16.4244C5.34704 17.6619 5.27163 18.239 5.22208 18.4373C5.20774 18.4562 5.19452 18.476 5.1825 18.4966C5.14448 18.575 5.13743 18.6658 5.16287 18.7496C5.18863 18.8351 5.24421 18.9075 5.31868 18.9525C5.36464 18.9793 5.4165 18.9932 5.4692 18.993C5.50084 18.993 5.53232 18.9883 5.56268 18.979C5.64428 18.9535 5.7127 18.8952 5.75277 18.817C5.75277 18.817 5.76181 18.7963 5.77428 18.7652C5.92136 18.6181 6.37322 18.2652 7.54618 17.9386C7.75752 17.8788 7.95916 17.7868 8.1445 17.6654C8.24682 17.8635 8.37625 18.0452 8.52873 18.2046C9.38165 19.0915 9.60571 19.6329 9.66492 19.8439C9.662 19.8686 9.66075 19.8935 9.66118 19.9184C9.67291 20.1021 9.82064 20.2444 9.99774 20.2424C10.1698 20.2424 10.3094 20.0974 10.3094 19.9184C10.3091 19.8927 10.3072 19.867 10.3038 19.8416C10.3608 19.6355 10.5842 19.0934 11.4396 18.2033C11.594 18.0422 11.7248 17.8584 11.8276 17.6577C12.0117 17.7755 12.2111 17.8654 12.4197 17.9243C13.5852 18.2484 14.0401 18.6006 14.1897 18.7493C14.2037 18.7853 14.2125 18.8028 14.2125 18.8028C14.2571 18.8804 14.3293 18.9367 14.4135 18.9596C14.441 18.9677 14.4696 18.9717 14.4982 18.9716C14.5574 18.9716 14.6156 18.9561 14.6674 18.9265C14.7395 18.884 14.7922 18.8133 14.814 18.7302C14.8358 18.6471 14.8249 18.5583 14.7837 18.4836C14.7713 18.4618 14.7574 18.4409 14.7422 18.4211C14.6927 18.2173 14.6229 17.6343 14.9358 16.4121C14.9921 16.1926 15.0166 15.9655 15.0087 15.7384C15.0292 15.7384 15.0498 15.7423 15.071 15.7423C15.2668 15.742 15.4618 15.7145 15.6506 15.6607C16.8261 15.3367 17.3867 15.4083 17.5827 15.4595C17.6024 15.4756 17.6232 15.4901 17.645 15.5029C17.8039 15.5826 17.9951 15.52 18.0813 15.36C18.1226 15.2827 18.132 15.1913 18.1075 15.1066C18.0829 15.0218 18.0269 14.9506 17.9517 14.9089C17.9517 14.9089 17.9348 14.8995 17.8999 14.885C17.7569 14.7288 17.4191 14.256 17.1065 13.0442C17.0491 12.8243 16.9606 12.6145 16.8438 12.4217C17.0344 12.3155 17.2091 12.1809 17.3624 12.0222C18.2187 11.1321 18.7401 10.9004 18.9386 10.8411C18.9623 10.8442 18.9861 10.8457 19.0099 10.8456C19.1867 10.8334 19.3234 10.6798 19.3216 10.4957C19.3216 10.3167 19.1821 10.1717 19.0099 10.1717ZM15.4767 5.98718C15.9908 6.14053 16.5205 6.23015 17.0548 6.25418C16.8086 6.74779 16.6192 7.26982 16.4905 7.80951C16.4261 8.07127 16.2991 8.31183 16.1212 8.50876C15.7544 8.86889 15.287 9.09835 14.7865 9.16394C14.7622 9.07256 14.7365 8.98616 14.7095 8.90472C14.6334 8.66933 14.5408 8.44006 14.4325 8.21875L15.7962 7.40026C15.9439 7.31018 15.9941 7.11296 15.9084 6.95871C15.8228 6.80446 15.6334 6.75101 15.4845 6.83905L14.1199 7.65819C14.0486 7.54737 13.9735 7.43914 13.8937 7.33416C14.3392 6.9748 14.6788 6.49261 14.8737 5.94246C15.0756 5.91645 15.2804 5.93164 15.4767 5.98718ZM11.329 14.8331C11.1789 14.8863 11.026 14.9301 10.8709 14.9643C10.2801 15.0884 9.67142 15.0884 9.08062 14.9643C8.9246 14.9301 8.7707 14.8862 8.61973 14.8328H8.61599L8.61318 14.8308C8.0526 14.6417 7.53555 14.3344 7.09432 13.9281C7.09058 13.9239 7.08653 13.9203 7.08248 13.9161L7.07594 13.9093C7.07126 13.9048 7.06721 13.8996 7.06222 13.8954C6.94231 13.7877 6.82985 13.6715 6.72567 13.5474C6.5239 13.3171 6.34631 13.0651 6.19591 12.7956C6.19591 12.794 6.19591 12.7917 6.19404 12.7901L6.19092 12.7866C6.04175 12.5158 5.92018 12.2295 5.82819 11.9324C5.77724 11.7762 5.7351 11.6171 5.70198 11.4558C5.58231 10.8422 5.58231 10.2098 5.70198 9.59619C5.73596 9.43082 5.77925 9.26766 5.83162 9.10756C6.0135 8.52441 6.30928 7.98663 6.70043 7.52793C6.7051 7.52371 6.70915 7.51885 6.71352 7.51432V7.5127C6.71881 7.50686 6.72473 7.50168 6.72972 7.49552C6.83269 7.37136 6.9439 7.25486 7.06254 7.14687C7.51334 6.72656 8.04287 6.40773 8.61786 6.21043C8.76792 6.15728 8.92088 6.11346 9.07595 6.0792C9.66603 5.95526 10.274 5.95526 10.8641 6.0792C11.0223 6.11406 11.1784 6.15886 11.3315 6.21335C11.8927 6.40215 12.4102 6.70961 12.8516 7.11641C12.8557 7.12127 12.8606 7.12548 12.8647 7.13002L12.8675 7.13261C12.8728 7.13812 12.8778 7.14395 12.8837 7.14914C13.003 7.2562 13.115 7.37184 13.2187 7.4952C13.6241 7.9628 13.9309 8.51347 14.1193 9.11177C14.1702 9.26797 14.2124 9.42712 14.2455 9.58841C14.3652 10.202 14.3652 10.8344 14.2455 11.448C14.2116 11.6125 14.1685 11.7748 14.1165 11.934C13.9346 12.5178 13.6386 13.0562 13.2471 13.5153C13.243 13.5189 13.2393 13.5234 13.2355 13.5273L13.2299 13.5331C13.2256 13.538 13.2206 13.5425 13.2162 13.5477C13.1132 13.6719 13.002 13.7884 12.8834 13.8964C12.4329 14.3166 11.9037 14.6354 11.329 14.8328V14.8331ZM12.5593 3.73195C13.0784 3.59806 13.5804 3.40099 14.0551 3.14481C14.0781 3.70082 14.1643 4.25205 14.3119 4.78698C14.3815 5.0474 14.387 5.32186 14.3278 5.58506C14.1846 6.08859 13.8884 6.53036 13.4836 6.84423C13.429 6.78817 13.3739 6.73341 13.3175 6.68222L13.3075 6.67185L13.3041 6.66828L13.2941 6.65824C13.116 6.49405 12.9265 6.34363 12.7273 6.20816L13.5144 4.79055C13.571 4.69024 13.5715 4.56611 13.5158 4.46528C13.4601 4.36445 13.3567 4.30239 13.2449 4.30264C13.1331 4.3029 13.03 4.36544 12.9747 4.46652L12.1875 5.88414C12.0729 5.82495 11.9558 5.7704 11.8363 5.7205C12.0432 5.17707 12.105 4.58562 12.0152 4.00867C12.1771 3.87985 12.3621 3.78579 12.5593 3.73195ZM9.96034 2.01039C10.2481 2.47986 10.5884 2.91221 10.9741 3.2984C11.1589 3.48753 11.2958 3.7213 11.3726 3.97886C11.4888 4.48989 11.4451 5.02612 11.248 5.50956C11.1673 5.4872 11.0831 5.46517 10.9918 5.44476C10.7583 5.39759 10.522 5.36717 10.2844 5.3537V3.71704C10.2844 3.53809 10.1449 3.39302 9.97281 3.39302C9.8007 3.39302 9.66118 3.53809 9.66118 3.71704V5.3537C9.53341 5.36181 9.40596 5.37444 9.27819 5.39259C9.19829 4.81292 8.96589 4.26749 8.60664 3.81652C8.68608 3.62214 8.80161 3.44596 8.94662 3.29808C9.33233 2.91205 9.67261 2.4798 9.96034 2.01039ZM5.61223 4.79703C5.75946 4.26267 5.84554 3.71213 5.8687 3.1568C6.34338 3.41279 6.84545 3.60965 7.3645 3.74329C7.61616 3.81019 7.84741 3.94229 8.03668 4.12726C8.38584 4.50673 8.60726 4.99368 8.66772 5.51507C8.57891 5.54034 8.49601 5.56691 8.41842 5.59478C8.19193 5.67402 7.97133 5.77041 7.7584 5.88317L6.97123 4.46522C6.8846 4.31156 6.69493 4.25942 6.54658 4.34848C6.39823 4.43754 6.34683 4.63441 6.43149 4.78925L7.21928 6.20816C7.11271 6.28237 7.00863 6.36046 6.90766 6.44341C6.56205 5.98022 6.0983 5.62725 5.56923 5.42467C5.54408 5.21497 5.55869 5.00218 5.61223 4.79832V4.79703ZM4.45704 6.00954C4.70749 5.93712 4.97145 5.93144 5.22457 5.99301C5.71093 6.14311 6.13737 6.45316 6.43991 6.87663C6.38662 6.93301 6.32804 6.98583 6.2788 7.04415L6.26914 7.05452L6.26664 7.05679L6.25636 7.06748C6.09877 7.25294 5.95431 7.45003 5.82414 7.65721L4.46015 6.83872C4.36368 6.77992 4.2443 6.77936 4.14734 6.83728C4.05037 6.89519 3.99068 7.00269 3.99092 7.11897C3.99117 7.23524 4.05132 7.34247 4.14853 7.39994L5.51189 8.21843C5.45455 8.33864 5.40188 8.45983 5.35421 8.58361C4.83189 8.36901 4.26357 8.30487 3.70913 8.39794C3.58525 8.22955 3.49479 8.03724 3.44301 7.83219C3.31404 7.29253 3.12452 6.77051 2.87834 6.27686C3.41287 6.25275 3.94278 6.16302 4.45704 6.00954ZM1.78703 10.5346C2.23857 10.2354 2.65438 9.88157 3.02574 9.48051C3.20766 9.28835 3.43248 9.14598 3.68015 9.06608C4.17175 8.94563 4.68746 8.99102 5.15258 9.19569C5.13077 9.27929 5.1102 9.36548 5.09026 9.45783V9.46302C5.04477 9.70547 5.01552 9.95092 5.00269 10.1976H3.42867C3.25657 10.1976 3.11705 10.3427 3.11705 10.5216C3.11705 10.7006 3.25657 10.8456 3.42867 10.8456H5.00269C5.01048 10.9782 5.02295 11.1104 5.0404 11.2435C4.48275 11.3266 3.95805 11.5683 3.52434 11.9421C3.33744 11.8595 3.16802 11.7394 3.02574 11.5886C2.65442 11.1875 2.23861 10.8337 1.78703 10.5346ZM4.46888 15.056C3.95481 14.9027 3.42511 14.8131 2.89081 14.789C3.13699 14.2954 3.32641 13.7734 3.45516 13.2337C3.5195 12.972 3.64654 12.7314 3.82444 12.5345C4.19119 12.1743 4.65864 11.9449 5.15913 11.8793C5.18343 11.9707 5.20899 12.0565 5.23579 12.1385C5.31157 12.3743 5.40385 12.604 5.51189 12.8258L4.14946 13.6436C4.05225 13.7011 3.99211 13.8083 3.99186 13.9246C3.99161 14.0409 4.0513 14.1484 4.14827 14.2063C4.24524 14.2642 4.36462 14.2636 4.46109 14.2048L5.82383 13.387C5.8955 13.4982 5.97112 13.6062 6.05069 13.711C5.60577 14.0703 5.26666 14.5521 5.07187 15.1017C4.86993 15.1276 4.66508 15.1121 4.46888 15.056ZM7.38663 17.3113C6.86756 17.4452 6.36549 17.6422 5.89082 17.8984C5.86785 17.3424 5.78166 16.7912 5.63405 16.2562C5.5644 15.9958 5.55894 15.7214 5.61815 15.4582C5.76134 14.9546 6.05751 14.5129 6.46235 14.199C6.51688 14.2551 6.57204 14.3098 6.62844 14.361C6.63576 14.3695 6.64357 14.3775 6.65181 14.385C6.83007 14.549 7.01963 14.6992 7.21897 14.8344L6.43149 16.2527C6.37494 16.353 6.37441 16.4771 6.43011 16.5779C6.48581 16.6788 6.58919 16.7408 6.70101 16.7406C6.81284 16.7403 6.91596 16.6778 6.97123 16.5767L7.7584 15.1588C7.8737 15.2184 7.99077 15.2731 8.1096 15.323C7.90246 15.8669 7.84076 16.4588 7.93104 17.0362C7.76878 17.1645 7.58362 17.258 7.38632 17.3113H7.38663ZM9.98527 19.0328C9.69738 18.5634 9.35711 18.1311 8.97155 17.7448C8.78671 17.5557 8.64978 17.3219 8.57299 17.0644C8.45701 16.5533 8.50067 16.0172 8.69764 15.5337C8.77772 15.556 8.8603 15.5774 8.94943 15.5985H8.95255H8.9541C9.18751 15.6457 9.42376 15.6761 9.66118 15.6895V17.3262C9.66118 17.5051 9.8007 17.6502 9.97281 17.6502C10.1449 17.6502 10.2844 17.5051 10.2844 17.3262V15.6895C10.4118 15.6815 10.5394 15.6685 10.6674 15.6503C10.7472 16.2301 10.9797 16.7756 11.339 17.2267C11.2595 17.4211 11.144 17.5973 10.999 17.7451C10.6133 18.1312 10.2731 18.5635 9.98527 19.0328ZM14.3334 16.2462C14.1862 16.7805 14.1001 17.3311 14.0769 17.8864C13.6022 17.6304 13.1002 17.4336 12.5811 17.2999C12.3295 17.233 12.0982 17.1009 11.9089 16.916C11.5598 16.5365 11.3384 16.0495 11.2779 15.5282C11.3667 15.5029 11.4496 15.4763 11.5272 15.4484C11.7537 15.3692 11.9743 15.2728 12.1872 15.1601L12.9744 16.578C13.061 16.7317 13.2507 16.7838 13.399 16.6947C13.5474 16.6057 13.5988 16.4088 13.5141 16.254L12.7263 14.8351C12.8329 14.7609 12.937 14.6828 13.038 14.5998C13.3836 15.063 13.8473 15.416 14.3764 15.6186C14.4015 15.8283 14.3869 16.041 14.3334 16.2449V16.2462ZM15.4864 15.035C15.236 15.1075 14.972 15.1132 14.7189 15.0515C14.2325 14.9014 13.8061 14.5914 13.5035 14.1679C13.5568 14.1115 13.6154 14.0587 13.6646 14.0004C13.6721 13.993 13.6796 13.9852 13.6871 13.977C13.8449 13.7917 13.9894 13.5946 14.1196 13.3873L15.4833 14.2058C15.6322 14.2938 15.8215 14.2404 15.9072 14.0861C15.9928 13.9319 15.9427 13.7347 15.7949 13.6446L14.4315 12.8261C14.4883 12.7073 14.5402 12.5859 14.5874 12.4619C14.9631 12.6116 15.3611 12.6916 15.7634 12.6984C15.9224 12.6962 16.0809 12.678 16.2365 12.644C16.3604 12.8126 16.4506 13.0053 16.502 13.2107C16.6309 13.7504 16.8205 14.2724 17.0666 14.766C16.5323 14.7903 16.0026 14.8801 15.4886 15.0337L15.4864 15.035ZM16.9183 11.564C16.7364 11.7562 16.5116 11.8985 16.2639 11.9784C15.7723 12.0989 15.2566 12.0535 14.7915 11.8488C14.8133 11.7639 14.8345 11.6764 14.8538 11.5815C14.8999 11.3387 14.9296 11.0928 14.9429 10.8456H16.5169C16.689 10.8456 16.8286 10.7006 16.8286 10.5216C16.8286 10.3427 16.689 10.1976 16.5169 10.1976H14.9429C14.9351 10.0651 14.9227 9.93285 14.9052 9.79968C15.4629 9.71666 15.9876 9.47488 16.4213 9.10108C16.6082 9.18375 16.7776 9.30387 16.9199 9.45459C17.2912 9.85576 17.7072 10.2096 18.1589 10.5087C17.7072 10.8077 17.2912 11.1615 16.9199 11.5627L16.9183 11.564Z" fill="#C53B0E"/>
<path d="M11.9558 12.0864L12.7856 12.5844C12.8821 12.6432 13.0015 12.6437 13.0984 12.5858C13.1954 12.5279 13.2551 12.4204 13.2549 12.3041C13.2546 12.1879 13.1945 12.0806 13.0973 12.0232L12.2708 11.5261C12.3582 11.3086 12.4166 11.0796 12.4444 10.8457H13.4008C13.5729 10.8457 13.7124 10.7006 13.7124 10.5216C13.7124 10.3427 13.5729 10.1976 13.4008 10.1976H12.4444C12.4166 9.96363 12.3582 9.7347 12.2708 9.51714L13.0973 9.02073C13.1945 8.96326 13.2546 8.85604 13.2549 8.73976C13.2551 8.62349 13.1954 8.51599 13.0984 8.45808C13.0015 8.40016 12.8821 8.40071 12.7856 8.45952L11.9558 8.95755C11.8187 8.77026 11.6579 8.60306 11.4777 8.46049L11.9567 7.59761C12.0133 7.4973 12.0138 7.37317 11.9581 7.27234C11.9024 7.17151 11.799 7.10945 11.6872 7.1097C11.5754 7.10996 11.4722 7.1725 11.417 7.27358L10.9389 8.13257C10.7298 8.04144 10.5096 7.9806 10.2845 7.95177V6.95733C10.2845 6.77837 10.145 6.6333 9.9729 6.6333C9.8008 6.6333 9.66128 6.77837 9.66128 6.95733V7.95177C9.43621 7.9806 9.21601 8.04144 9.00686 8.13257L8.52945 7.27293C8.47418 7.17185 8.37106 7.10931 8.25924 7.10906C8.14741 7.1088 8.04403 7.17087 7.98833 7.27169C7.93263 7.37252 7.93316 7.49665 7.98972 7.59696L8.46869 8.45984C8.28857 8.60242 8.12777 8.76961 7.99065 8.9569L7.1608 8.45887C7.06433 8.40006 6.94495 8.39951 6.84798 8.45743C6.75101 8.51534 6.69132 8.62284 6.69157 8.73912C6.69181 8.85539 6.75196 8.96262 6.84917 9.02008L7.67498 9.51714C7.58763 9.7347 7.52923 9.96363 7.5014 10.1976H6.54502C6.37292 10.1976 6.2334 10.3427 6.2334 10.5216C6.2334 10.7006 6.37292 10.8457 6.54502 10.8457H7.5014C7.52923 11.0796 7.58763 11.3086 7.67498 11.5261L6.84855 12.0225C6.75134 12.08 6.69119 12.1872 6.69094 12.3035C6.6907 12.4198 6.75039 12.5273 6.84736 12.5852C6.94433 12.6431 7.0637 12.6425 7.16017 12.5837L7.99003 12.0857C8.12715 12.273 8.28794 12.4402 8.46806 12.5828L7.9891 13.4456C7.93254 13.546 7.93201 13.6701 7.98771 13.7709C8.04341 13.8717 8.14679 13.9338 8.25862 13.9336C8.37044 13.9333 8.47356 13.8708 8.52883 13.7697L9.00686 12.9107C9.21601 13.0018 9.43621 13.0627 9.66128 13.0915V14.0859C9.66128 14.2649 9.8008 14.41 9.9729 14.41C10.145 14.41 10.2845 14.2649 10.2845 14.0859V13.0915C10.5096 13.0627 10.7298 13.0018 10.9389 12.9107L11.4164 13.7703C11.4716 13.8714 11.5747 13.9339 11.6866 13.9342C11.7984 13.9345 11.9018 13.8724 11.9575 13.7716C12.0132 13.6707 12.0126 13.5466 11.9561 13.4463L11.4771 12.5834C11.6575 12.4409 11.8185 12.2737 11.9558 12.0864ZM9.9729 12.4658C8.94027 12.4658 8.10315 11.5954 8.10315 10.5216C8.10315 9.4479 8.94027 8.57746 9.9729 8.57746C11.0055 8.57746 11.8427 9.4479 11.8427 10.5216C11.8416 11.5949 11.0051 12.4647 9.9729 12.4658Z" fill="#C53B0E"/>
<path d="M10.9079 10.1977H10.7253L10.8166 10.1027C10.9347 9.97559 10.933 9.77349 10.8128 9.6485C10.6926 9.52351 10.4983 9.52176 10.376 9.64455L10.2847 9.73949V9.54961C10.2847 9.37066 10.1452 9.22559 9.97306 9.22559C9.80096 9.22559 9.66144 9.37066 9.66144 9.54961V9.73949L9.57013 9.64455C9.44786 9.52176 9.25349 9.52351 9.13329 9.6485C9.01309 9.77349 9.0114 9.97559 9.12949 10.1027L9.2208 10.1977H9.03819C8.86608 10.1977 8.72656 10.3427 8.72656 10.5217C8.72656 10.7006 8.86608 10.8457 9.03819 10.8457H9.2208L9.12949 10.9407C9.04849 11.022 9.016 11.1425 9.04452 11.2558C9.07303 11.3691 9.15812 11.4575 9.26708 11.4872C9.37603 11.5169 9.49189 11.4831 9.57013 11.3988L9.66144 11.3039V11.4938C9.66144 11.6727 9.80096 11.8178 9.97306 11.8178C10.1452 11.8178 10.2847 11.6727 10.2847 11.4938V11.3039L10.376 11.3988C10.4983 11.5216 10.6926 11.5199 10.8128 11.3949C10.933 11.2699 10.9347 11.0678 10.8166 10.9407L10.7253 10.8457H10.9079C11.08 10.8457 11.2196 10.7006 11.2196 10.5217C11.2196 10.3427 11.08 10.1977 10.9079 10.1977Z" fill="#C53B0E"/>
<path d="M7.79161 2.421C7.96371 2.421 8.10323 2.27593 8.10323 2.09698C8.10323 1.91802 7.96371 1.77295 7.79161 1.77295C7.6195 1.77295 7.47998 1.91802 7.47998 2.09698C7.47998 2.27593 7.6195 2.421 7.79161 2.421Z" fill="#C53B0E"/>
<path d="M12.1539 2.421C12.326 2.421 12.4655 2.27593 12.4655 2.09698C12.4655 1.91802 12.326 1.77295 12.1539 1.77295C11.9818 1.77295 11.8423 1.91802 11.8423 2.09698C11.8423 2.27593 11.9818 2.421 12.1539 2.421Z" fill="#C53B0E"/>
<path d="M15.8937 4.68907C16.0658 4.68907 16.2053 4.544 16.2053 4.36504C16.2053 4.18609 16.0658 4.04102 15.8937 4.04102C15.7215 4.04102 15.582 4.18609 15.582 4.36504C15.582 4.544 15.7215 4.68907 15.8937 4.68907Z" fill="#C53B0E"/>
<path d="M18.0748 8.5775C18.2469 8.5775 18.3864 8.43243 18.3864 8.25347C18.3864 8.07452 18.2469 7.92944 18.0748 7.92944C17.9027 7.92944 17.7632 8.07452 17.7632 8.25347C17.7632 8.43243 17.9027 8.5775 18.0748 8.5775Z" fill="#C53B0E"/>
<path d="M18.0748 13.1139C18.2469 13.1139 18.3864 12.9688 18.3864 12.7898C18.3864 12.6109 18.2469 12.4658 18.0748 12.4658C17.9027 12.4658 17.7632 12.6109 17.7632 12.7898C17.7632 12.9688 17.9027 13.1139 18.0748 13.1139Z" fill="#C53B0E"/>
<path d="M15.8937 17.0021C16.0658 17.0021 16.2053 16.857 16.2053 16.678C16.2053 16.4991 16.0658 16.354 15.8937 16.354C15.7215 16.354 15.582 16.4991 15.582 16.678C15.582 16.857 15.7215 17.0021 15.8937 17.0021Z" fill="#C53B0E"/>
<path d="M12.1539 19.2704C12.326 19.2704 12.4655 19.1253 12.4655 18.9463C12.4655 18.7674 12.326 18.6223 12.1539 18.6223C11.9818 18.6223 11.8423 18.7674 11.8423 18.9463C11.8423 19.1253 11.9818 19.2704 12.1539 19.2704Z" fill="#C53B0E"/>
<path d="M7.79161 19.2704C7.96371 19.2704 8.10323 19.1253 8.10323 18.9463C8.10323 18.7674 7.96371 18.6223 7.79161 18.6223C7.6195 18.6223 7.47998 18.7674 7.47998 18.9463C7.47998 19.1253 7.6195 19.2704 7.79161 19.2704Z" fill="#C53B0E"/>
<path d="M4.05186 17.0021C4.22397 17.0021 4.36349 16.857 4.36349 16.678C4.36349 16.4991 4.22397 16.354 4.05186 16.354C3.87975 16.354 3.74023 16.4991 3.74023 16.678C3.74023 16.857 3.87975 17.0021 4.05186 17.0021Z" fill="#C53B0E"/>
<path d="M1.87071 13.1139C2.04281 13.1139 2.18233 12.9688 2.18233 12.7898C2.18233 12.6109 2.04281 12.4658 1.87071 12.4658C1.6986 12.4658 1.55908 12.6109 1.55908 12.7898C1.55908 12.9688 1.6986 13.1139 1.87071 13.1139Z" fill="#C53B0E"/>
<path d="M1.87071 8.5775C2.04281 8.5775 2.18233 8.43243 2.18233 8.25347C2.18233 8.07452 2.04281 7.92944 1.87071 7.92944C1.6986 7.92944 1.55908 8.07452 1.55908 8.25347C1.55908 8.43243 1.6986 8.5775 1.87071 8.5775Z" fill="#C53B0E"/>
<path d="M4.05186 4.68907C4.22397 4.68907 4.36349 4.544 4.36349 4.36504C4.36349 4.18609 4.22397 4.04102 4.05186 4.04102C3.87975 4.04102 3.74023 4.18609 3.74023 4.36504C3.74023 4.544 3.87975 4.68907 4.05186 4.68907Z" fill="#C53B0E"/>
</g>
<defs>
<clipPath id="clip0">
<rect width="18.6975" height="19.4416" fill="white" transform="translate(0.624023 0.800781)"/>
</clipPath>
</defs>
</svg>
