<svg width="20" height="21" viewBox="0 0 20 21" fill="none" xmlns="http://www.w3.org/2000/svg">
<g clip-path="url(#clip0)">
<path d="M19.0558 10.1717C19.0313 10.1719 19.0069 10.1739 18.9826 10.1775C18.7841 10.1182 18.2628 9.88587 17.4064 8.99642C17.2516 8.83588 17.0747 8.70004 16.8816 8.59333C16.9949 8.40186 17.0813 8.19455 17.1381 7.97768C17.4497 6.76581 17.7885 6.29274 17.9312 6.13688C17.9664 6.1223 17.9832 6.11322 17.9832 6.11322C18.0579 6.06671 18.1121 5.99154 18.1341 5.9039C18.1567 5.81488 18.1456 5.72019 18.1029 5.6395C18.0175 5.4844 17.8275 5.43047 17.6781 5.51896C17.6569 5.53178 17.6367 5.5463 17.6177 5.56238C17.4204 5.6139 16.8592 5.6868 15.6856 5.36116C15.4736 5.30235 15.2543 5.27679 15.0349 5.28534C15.0422 5.0606 15.0174 4.83599 14.9614 4.61881C14.6498 3.39723 14.7183 2.81366 14.7679 2.60984C14.7831 2.59022 14.7968 2.56942 14.809 2.54763C14.847 2.46916 14.8541 2.37836 14.8286 2.29457C14.8025 2.20883 14.7463 2.13643 14.6713 2.09172C14.597 2.04922 14.5094 2.03964 14.4282 2.06515C14.3466 2.09067 14.2782 2.14898 14.2381 2.22717C14.2381 2.22717 14.2294 2.24467 14.2154 2.28063C14.0652 2.42936 13.6105 2.78061 12.4447 3.10561C12.2334 3.16536 12.0317 3.25742 11.8464 3.37876C11.7441 3.18065 11.6146 2.99903 11.4622 2.83958C10.6058 1.94915 10.3833 1.40706 10.326 1.20097C10.3291 1.17573 10.3306 1.15029 10.3303 1.12483C10.3186 0.941076 10.1709 0.798849 9.99378 0.800801C9.82167 0.800801 9.68215 0.945873 9.68215 1.12483C9.68239 1.15042 9.68426 1.17597 9.68776 1.2013C9.63073 1.40738 9.4073 1.94948 8.55188 2.8399C8.39749 3.00099 8.26676 3.18485 8.16391 3.38556C7.97984 3.26768 7.78044 3.17787 7.57182 3.11889C6.40634 2.79486 5.95137 2.44265 5.80179 2.29392C5.78777 2.25795 5.77904 2.24045 5.77904 2.24045C5.7344 2.1628 5.66222 2.10649 5.57804 2.08362C5.49252 2.06021 5.40161 2.0718 5.32407 2.11603C5.25204 2.15862 5.19929 2.22928 5.17748 2.3124C5.15567 2.39552 5.16659 2.48425 5.20783 2.55897C5.22024 2.58079 5.23408 2.60169 5.24928 2.62151C5.29883 2.82532 5.36863 3.40825 5.05576 4.63048C4.99932 4.85088 4.97474 5.07879 4.98284 5.30672C4.7666 5.29917 4.55049 5.32494 4.34151 5.38319C3.1511 5.71305 2.59641 5.63464 2.40601 5.58279C2.38756 5.56759 2.3682 5.55363 2.34804 5.54099C2.18913 5.46157 1.99822 5.5241 1.91177 5.68389C1.87047 5.7612 1.86103 5.85261 1.88559 5.93728C1.91013 6.02212 1.96621 6.09327 2.0414 6.13493C2.0414 6.13493 2.06166 6.14465 2.09158 6.15762C2.23305 6.31056 2.5721 6.78072 2.88653 7.99971C2.94397 8.21958 3.03251 8.42935 3.14923 8.62217C2.95862 8.72842 2.78394 8.86301 2.63069 9.02169C1.79366 9.89268 1.27668 10.1328 1.0548 10.2034C1.03054 10.1998 1.00607 10.1978 0.981566 10.1976C0.804847 10.2098 0.668064 10.3634 0.669941 10.5475C0.669941 10.7265 0.80946 10.8716 0.981566 10.8716C1.00618 10.8713 1.03075 10.8694 1.05511 10.8657C1.25362 10.9254 1.77496 11.1574 2.631 12.0468C2.78585 12.2073 2.96269 12.3432 3.15578 12.4499C3.04251 12.6414 2.95615 12.8487 2.89931 13.0655C2.58768 14.2774 2.24895 14.7505 2.10622 14.9063C2.07101 14.9209 2.05418 14.93 2.05418 14.93C1.97946 14.9765 1.9253 15.0517 1.90335 15.1393C1.88068 15.2283 1.89184 15.323 1.93452 15.4037C2.01991 15.5588 2.20994 15.6128 2.35926 15.5243C2.38047 15.5114 2.40068 15.4969 2.41972 15.4808C2.61698 15.4293 3.17821 15.3567 4.3518 15.6821C4.54075 15.7354 4.73562 15.7628 4.93142 15.7634C4.9551 15.7634 4.97847 15.7598 5.00247 15.7589C4.99517 15.9833 5.01995 16.2076 5.07601 16.4244C5.39294 17.6619 5.31752 18.239 5.26797 18.4373C5.25364 18.4562 5.24042 18.476 5.2284 18.4966C5.19038 18.575 5.18333 18.6658 5.20877 18.7496C5.23453 18.8351 5.29011 18.9075 5.36458 18.9525C5.41053 18.9793 5.4624 18.9932 5.51509 18.993C5.54674 18.993 5.57822 18.9883 5.60858 18.979C5.69018 18.9535 5.7586 18.8952 5.79867 18.817C5.79867 18.817 5.80771 18.7963 5.82018 18.7652C5.96726 18.6181 6.41912 18.2652 7.59208 17.9386C7.80342 17.8788 8.00506 17.7868 8.1904 17.6654C8.29272 17.8635 8.42214 18.0452 8.57463 18.2046C9.42755 19.0915 9.65161 19.6329 9.71082 19.8439C9.7079 19.8686 9.70665 19.8935 9.70708 19.9184C9.71881 20.1021 9.86654 20.2444 10.0436 20.2424C10.2157 20.2424 10.3553 20.0974 10.3553 19.9184C10.355 19.8927 10.3531 19.867 10.3497 19.8416C10.4067 19.6355 10.6301 19.0934 11.4855 18.2033C11.6399 18.0422 11.7706 17.8584 11.8735 17.6577C12.0576 17.7755 12.257 17.8654 12.4656 17.9243C13.6311 18.2484 14.086 18.6006 14.2356 18.7493C14.2496 18.7853 14.2584 18.8028 14.2584 18.8028C14.303 18.8804 14.3752 18.9367 14.4594 18.9596C14.4869 18.9677 14.5155 18.9717 14.5441 18.9716C14.6033 18.9716 14.6615 18.9561 14.7133 18.9265C14.7854 18.884 14.8381 18.8133 14.8599 18.7302C14.8817 18.6471 14.8708 18.5583 14.8296 18.4836C14.8172 18.4618 14.8033 18.4409 14.7881 18.4211C14.7386 18.2173 14.6688 17.6343 14.9817 16.4121C15.038 16.1926 15.0625 15.9655 15.0546 15.7384C15.0751 15.7384 15.0957 15.7423 15.1169 15.7423C15.3127 15.742 15.5077 15.7145 15.6965 15.6607C16.872 15.3367 17.4326 15.4083 17.6286 15.4595C17.6483 15.4756 17.6691 15.4901 17.6909 15.5029C17.8498 15.5826 18.041 15.52 18.1272 15.36C18.1685 15.2827 18.1779 15.1913 18.1534 15.1066C18.1288 15.0218 18.0728 14.9506 17.9976 14.9089C17.9976 14.9089 17.9807 14.8995 17.9458 14.885C17.8028 14.7288 17.465 14.256 17.1524 13.0442C17.095 12.8243 17.0065 12.6145 16.8897 12.4217C17.0803 12.3155 17.255 12.1809 17.4083 12.0222C18.2646 11.1321 18.786 10.9004 18.9845 10.8411C19.0082 10.8442 19.032 10.8457 19.0558 10.8456C19.2326 10.8334 19.3693 10.6798 19.3675 10.4957C19.3675 10.3167 19.228 10.1717 19.0558 10.1717ZM15.5226 5.98718C16.0367 6.14053 16.5664 6.23015 17.1007 6.25418C16.8545 6.74779 16.6651 7.26982 16.5364 7.80951C16.472 8.07127 16.345 8.31183 16.1671 8.50876C15.8003 8.86889 15.3329 9.09835 14.8324 9.16394C14.8081 9.07256 14.7824 8.98616 14.7554 8.90472C14.6793 8.66933 14.5867 8.44006 14.4784 8.21875L15.8421 7.40026C15.9898 7.31018 16.04 7.11296 15.9543 6.95871C15.8687 6.80446 15.6793 6.75101 15.5304 6.83905L14.1658 7.65819C14.0945 7.54737 14.0194 7.43914 13.9396 7.33416C14.3851 6.9748 14.7247 6.49261 14.9196 5.94246C15.1215 5.91645 15.3263 5.93164 15.5226 5.98718ZM11.3749 14.8331C11.2248 14.8863 11.0719 14.9301 10.9168 14.9643C10.326 15.0884 9.71732 15.0884 9.12652 14.9643C8.9705 14.9301 8.8166 14.8862 8.66563 14.8328H8.66189L8.65908 14.8308C8.0985 14.6417 7.58144 14.3344 7.14022 13.9281C7.13648 13.9239 7.13243 13.9203 7.12838 13.9161L7.12184 13.9093C7.11716 13.9048 7.11311 13.8996 7.10812 13.8954C6.98821 13.7877 6.87575 13.6715 6.77157 13.5474C6.5698 13.3171 6.39221 13.0651 6.2418 12.7956C6.2418 12.794 6.2418 12.7917 6.23993 12.7901L6.23682 12.7866C6.08765 12.5158 5.96608 12.2295 5.87409 11.9324C5.82314 11.7762 5.781 11.6171 5.74788 11.4558C5.62821 10.8422 5.62821 10.2098 5.74788 9.59619C5.78186 9.43082 5.82515 9.26766 5.87751 9.10756C6.0594 8.52441 6.35518 7.98663 6.74633 7.52793C6.751 7.52371 6.75505 7.51885 6.75941 7.51432V7.5127C6.76471 7.50686 6.77063 7.50168 6.77562 7.49552C6.87859 7.37136 6.9898 7.25486 7.10843 7.14687C7.55923 6.72656 8.08877 6.40773 8.66376 6.21043C8.81382 6.15728 8.96678 6.11346 9.12185 6.0792C9.71192 5.95526 10.3199 5.95526 10.91 6.0792C11.0682 6.11406 11.2243 6.15886 11.3774 6.21335C11.9386 6.40215 12.4561 6.70961 12.8975 7.11641C12.9016 7.12127 12.9065 7.12548 12.9106 7.13002L12.9134 7.13261C12.9187 7.13812 12.9237 7.14395 12.9296 7.14914C13.0489 7.2562 13.1609 7.37184 13.2646 7.4952C13.67 7.9628 13.9768 8.51347 14.1652 9.11177C14.2161 9.26797 14.2583 9.42712 14.2914 9.58841C14.4111 10.202 14.4111 10.8344 14.2914 11.448C14.2575 11.6125 14.2144 11.7748 14.1624 11.934C13.9805 12.5178 13.6845 13.0562 13.293 13.5153C13.2889 13.5189 13.2852 13.5234 13.2814 13.5273L13.2758 13.5331C13.2715 13.538 13.2665 13.5425 13.2621 13.5477C13.1591 13.6719 13.0479 13.7884 12.9293 13.8964C12.4788 14.3166 11.9496 14.6354 11.3749 14.8328V14.8331ZM12.6052 3.73195C13.1243 3.59806 13.6263 3.40099 14.101 3.14481C14.124 3.70082 14.2102 4.25205 14.3578 4.78698C14.4274 5.0474 14.4329 5.32186 14.3737 5.58506C14.2305 6.08859 13.9343 6.53036 13.5295 6.84423C13.4749 6.78817 13.4198 6.73341 13.3634 6.68222L13.3534 6.67185L13.35 6.66828L13.34 6.65824C13.1619 6.49405 12.9724 6.34363 12.7732 6.20816L13.5603 4.79055C13.6169 4.69024 13.6174 4.56611 13.5617 4.46528C13.506 4.36445 13.4026 4.30239 13.2908 4.30264C13.179 4.3029 13.0759 4.36544 13.0206 4.46652L12.2334 5.88414C12.1187 5.82495 12.0017 5.7704 11.8822 5.7205C12.0891 5.17707 12.1509 4.58562 12.0611 4.00867C12.223 3.87985 12.408 3.78579 12.6052 3.73195ZM10.0062 2.01039C10.294 2.47986 10.6343 2.91221 11.02 3.2984C11.2048 3.48753 11.3417 3.7213 11.4185 3.97886C11.5347 4.48989 11.491 5.02612 11.2939 5.50956C11.2132 5.4872 11.129 5.46517 11.0377 5.44476C10.8042 5.39759 10.5679 5.36717 10.3303 5.3537V3.71704C10.3303 3.53809 10.1908 3.39302 10.0187 3.39302C9.8466 3.39302 9.70708 3.53809 9.70708 3.71704V5.3537C9.57931 5.36181 9.45186 5.37444 9.32409 5.39259C9.24419 4.81292 9.01179 4.26749 8.65254 3.81652C8.73198 3.62214 8.84751 3.44596 8.99252 3.29808C9.37823 2.91205 9.71851 2.4798 10.0062 2.01039ZM5.65813 4.79703C5.80536 4.26267 5.89144 3.71213 5.9146 3.1568C6.38928 3.41279 6.89135 3.60965 7.4104 3.74329C7.66205 3.81019 7.89331 3.94229 8.08258 4.12726C8.43174 4.50673 8.65316 4.99368 8.71362 5.51507C8.6248 5.54034 8.54191 5.56691 8.46432 5.59478C8.23783 5.67402 8.01723 5.77041 7.80429 5.88317L7.01713 4.46522C6.93049 4.31156 6.74083 4.25942 6.59248 4.34848C6.44413 4.43754 6.39273 4.63441 6.47739 4.78925L7.26518 6.20816C7.15861 6.28237 7.05452 6.36046 6.95356 6.44341C6.60794 5.98022 6.1442 5.62725 5.61513 5.42467C5.58998 5.21497 5.60459 5.00218 5.65813 4.79832V4.79703ZM4.50293 6.00954C4.75339 5.93712 5.01734 5.93144 5.27047 5.99301C5.75683 6.14311 6.18327 6.45316 6.48581 6.87663C6.43252 6.93301 6.37393 6.98583 6.3247 7.04415L6.31504 7.05452L6.31254 7.05679L6.30226 7.06748C6.14467 7.25294 6.00021 7.45003 5.87004 7.65721L4.50605 6.83872C4.40958 6.77992 4.2902 6.77936 4.19324 6.83728C4.09627 6.89519 4.03658 7.00269 4.03682 7.11897C4.03707 7.23524 4.09721 7.34247 4.19443 7.39994L5.55779 8.21843C5.50045 8.33864 5.44778 8.45983 5.4001 8.58361C4.87778 8.36901 4.30947 8.30487 3.75503 8.39794C3.63115 8.22955 3.54068 8.03724 3.4889 7.83219C3.35994 7.29253 3.17042 6.77051 2.92424 6.27686C3.45876 6.25275 3.98867 6.16302 4.50293 6.00954ZM1.83293 10.5346C2.28447 10.2354 2.70028 9.88157 3.07164 9.48051C3.25356 9.28835 3.47838 9.14598 3.72605 9.06608C4.21765 8.94563 4.73336 8.99102 5.19848 9.19569C5.17667 9.27929 5.1561 9.36548 5.13616 9.45783V9.46302C5.09067 9.70547 5.06141 9.95092 5.04859 10.1976H3.47457C3.30246 10.1976 3.16294 10.3427 3.16294 10.5216C3.16294 10.7006 3.30246 10.8456 3.47457 10.8456H5.04859C5.05638 10.9782 5.06885 11.1104 5.0863 11.2435C4.52865 11.3266 4.00395 11.5683 3.57024 11.9421C3.38334 11.8595 3.21392 11.7394 3.07164 11.5886C2.70032 11.1875 2.28451 10.8337 1.83293 10.5346ZM4.51478 15.056C4.00071 14.9027 3.47101 14.8131 2.9367 14.789C3.18289 14.2954 3.37231 13.7734 3.50106 13.2337C3.5654 12.972 3.69244 12.7314 3.87033 12.5345C4.23709 12.1743 4.70454 11.9449 5.20503 11.8793C5.22933 11.9707 5.25489 12.0565 5.28169 12.1385C5.35747 12.3743 5.44975 12.604 5.55779 12.8258L4.19536 13.6436C4.09815 13.7011 4.038 13.8083 4.03776 13.9246C4.03751 14.0409 4.0972 14.1484 4.19417 14.2063C4.29114 14.2642 4.41052 14.2636 4.50699 14.2048L5.86972 13.387C5.9414 13.4982 6.01702 13.6062 6.09659 13.711C5.65166 14.0703 5.31255 14.5521 5.11777 15.1017C4.91583 15.1276 4.71098 15.1121 4.51478 15.056ZM7.43253 17.3113C6.91346 17.4452 6.41139 17.6422 5.93672 17.8984C5.91375 17.3424 5.82756 16.7912 5.67994 16.2562C5.6103 15.9958 5.60484 15.7214 5.66405 15.4582C5.80723 14.9546 6.10341 14.5129 6.50824 14.199C6.56278 14.2551 6.61794 14.3098 6.67434 14.361C6.68166 14.3695 6.68947 14.3775 6.69771 14.385C6.87597 14.549 7.06553 14.6992 7.26487 14.8344L6.47739 16.2527C6.42084 16.353 6.42031 16.4771 6.47601 16.5779C6.5317 16.6788 6.63509 16.7408 6.74691 16.7406C6.85874 16.7403 6.96186 16.6778 7.01713 16.5767L7.80429 15.1588C7.9196 15.2184 8.03666 15.2731 8.1555 15.323C7.94836 15.8669 7.88666 16.4588 7.97694 17.0362C7.81468 17.1645 7.62952 17.258 7.43221 17.3113H7.43253ZM10.0312 19.0328C9.74328 18.5634 9.40301 18.1311 9.01745 17.7448C8.83261 17.5557 8.69568 17.3219 8.61888 17.0644C8.50291 16.5533 8.54657 16.0172 8.74353 15.5337C8.82362 15.556 8.9062 15.5774 8.99533 15.5985H8.99844H9C9.23341 15.6457 9.46966 15.6761 9.70708 15.6895V17.3262C9.70708 17.5051 9.8466 17.6502 10.0187 17.6502C10.1908 17.6502 10.3303 17.5051 10.3303 17.3262V15.6895C10.4577 15.6815 10.5853 15.6685 10.7133 15.6503C10.7931 16.2301 11.0256 16.7756 11.3849 17.2267C11.3054 17.4211 11.1899 17.5973 11.0449 17.7451C10.6592 18.1312 10.319 18.5635 10.0312 19.0328ZM14.3793 16.2462C14.2321 16.7805 14.146 17.3311 14.1228 17.8864C13.6481 17.6304 13.1461 17.4336 12.627 17.2999C12.3754 17.233 12.1441 17.1009 11.9548 16.916C11.6057 16.5365 11.3843 16.0495 11.3238 15.5282C11.4126 15.5029 11.4955 15.4763 11.5731 15.4484C11.7996 15.3692 12.0202 15.2728 12.2331 15.1601L13.0203 16.578C13.1069 16.7317 13.2966 16.7838 13.4449 16.6947C13.5933 16.6057 13.6447 16.4088 13.56 16.254L12.7722 14.8351C12.8788 14.7609 12.9829 14.6828 13.0839 14.5998C13.4295 15.063 13.8932 15.416 14.4223 15.6186C14.4474 15.8283 14.4328 16.041 14.3793 16.2449V16.2462ZM15.5323 15.035C15.2819 15.1075 15.0179 15.1132 14.7648 15.0515C14.2784 14.9014 13.852 14.5914 13.5494 14.1679C13.6027 14.1115 13.6613 14.0587 13.7105 14.0004C13.718 13.993 13.7255 13.9852 13.733 13.977C13.8908 13.7917 14.0353 13.5946 14.1655 13.3873L15.5292 14.2058C15.6781 14.2938 15.8674 14.2404 15.9531 14.0861C16.0387 13.9319 15.9886 13.7347 15.8408 13.6446L14.4774 12.8261C14.5342 12.7073 14.5861 12.5859 14.6333 12.4619C15.009 12.6116 15.407 12.6916 15.8093 12.6984C15.9683 12.6962 16.1268 12.678 16.2824 12.644C16.4063 12.8126 16.4965 13.0053 16.5479 13.2107C16.6768 13.7504 16.8664 14.2724 17.1125 14.766C16.5782 14.7903 16.0485 14.8801 15.5345 15.0337L15.5323 15.035ZM16.9642 11.564C16.7823 11.7562 16.5575 11.8985 16.3098 11.9784C15.8182 12.0989 15.3025 12.0535 14.8374 11.8488C14.8592 11.7639 14.8804 11.6764 14.8997 11.5815C14.9458 11.3387 14.9755 11.0928 14.9888 10.8456H16.5628C16.7349 10.8456 16.8745 10.7006 16.8745 10.5216C16.8745 10.3427 16.7349 10.1976 16.5628 10.1976H14.9888C14.981 10.0651 14.9686 9.93285 14.9511 9.79968C15.5088 9.71666 16.0335 9.47488 16.4672 9.10108C16.6541 9.18375 16.8235 9.30387 16.9658 9.45459C17.3371 9.85576 17.7531 10.2096 18.2048 10.5087C17.7531 10.8077 17.3371 11.1615 16.9658 11.5627L16.9642 11.564Z" fill="#EF6A3F"/>
<path d="M12.0017 12.0864L12.8315 12.5844C12.928 12.6432 13.0474 12.6437 13.1443 12.5858C13.2413 12.5279 13.301 12.4204 13.3008 12.3041C13.3005 12.1879 13.2404 12.0806 13.1432 12.0232L12.3167 11.5261C12.4041 11.3086 12.4625 11.0796 12.4903 10.8457H13.4467C13.6188 10.8457 13.7583 10.7006 13.7583 10.5216C13.7583 10.3427 13.6188 10.1976 13.4467 10.1976H12.4903C12.4625 9.96363 12.4041 9.7347 12.3167 9.51714L13.1432 9.02073C13.2404 8.96326 13.3005 8.85604 13.3008 8.73976C13.301 8.62349 13.2413 8.51599 13.1443 8.45808C13.0474 8.40016 12.928 8.40071 12.8315 8.45952L12.0017 8.95755C11.8646 8.77026 11.7038 8.60306 11.5236 8.46049L12.0026 7.59761C12.0592 7.4973 12.0597 7.37317 12.004 7.27234C11.9483 7.17151 11.8449 7.10945 11.7331 7.1097C11.6213 7.10996 11.5181 7.1725 11.4629 7.27358L10.9848 8.13257C10.7757 8.04144 10.5555 7.9806 10.3304 7.95177V6.95733C10.3304 6.77837 10.1909 6.6333 10.0188 6.6333C9.8467 6.6333 9.70718 6.77837 9.70718 6.95733V7.95177C9.48211 7.9806 9.26191 8.04144 9.05276 8.13257L8.57535 7.27293C8.52008 7.17185 8.41696 7.10931 8.30514 7.10906C8.19331 7.1088 8.08993 7.17087 8.03423 7.27169C7.97853 7.37252 7.97906 7.49665 8.03562 7.59696L8.51459 8.45984C8.33447 8.60242 8.17367 8.76961 8.03655 8.9569L7.20669 8.45887C7.11022 8.40006 6.99085 8.39951 6.89388 8.45743C6.79691 8.51534 6.73722 8.62284 6.73747 8.73912C6.73771 8.85539 6.79786 8.96262 6.89507 9.02008L7.72088 9.51714C7.63353 9.7347 7.57513 9.96363 7.5473 10.1976H6.59092C6.41882 10.1976 6.2793 10.3427 6.2793 10.5216C6.2793 10.7006 6.41882 10.8457 6.59092 10.8457H7.5473C7.57513 11.0796 7.63353 11.3086 7.72088 11.5261L6.89445 12.0225C6.79723 12.08 6.73709 12.1872 6.73684 12.3035C6.7366 12.4198 6.79629 12.5273 6.89326 12.5852C6.99022 12.6431 7.1096 12.6425 7.20607 12.5837L8.03593 12.0857C8.17305 12.273 8.33384 12.4402 8.51396 12.5828L8.03499 13.4456C7.97844 13.546 7.97791 13.6701 8.03361 13.7709C8.0893 13.8717 8.19269 13.9338 8.30451 13.9336C8.41634 13.9333 8.51946 13.8708 8.57473 13.7697L9.05276 12.9107C9.26191 13.0018 9.48211 13.0627 9.70718 13.0915V14.0859C9.70718 14.2649 9.8467 14.41 10.0188 14.41C10.1909 14.41 10.3304 14.2649 10.3304 14.0859V13.0915C10.5555 13.0627 10.7757 13.0018 10.9848 12.9107L11.4623 13.7703C11.5175 13.8714 11.6206 13.9339 11.7325 13.9342C11.8443 13.9345 11.9477 13.8724 12.0034 13.7716C12.0591 13.6707 12.0585 13.5466 12.002 13.4463L11.523 12.5834C11.7034 12.4409 11.8644 12.2737 12.0017 12.0864ZM10.0188 12.4658C8.98617 12.4658 8.14905 11.5954 8.14905 10.5216C8.14905 9.4479 8.98617 8.57746 10.0188 8.57746C11.0514 8.57746 11.8886 9.4479 11.8886 10.5216C11.8875 11.5949 11.051 12.4647 10.0188 12.4658Z" fill="#EF6A3F"/>
<path d="M10.9538 10.1977H10.7712L10.8625 10.1027C10.9806 9.97559 10.9789 9.77349 10.8587 9.6485C10.7385 9.52351 10.5442 9.52176 10.4219 9.64455L10.3306 9.73949V9.54961C10.3306 9.37066 10.1911 9.22559 10.019 9.22559C9.84686 9.22559 9.70734 9.37066 9.70734 9.54961V9.73949L9.61603 9.64455C9.49376 9.52176 9.29939 9.52351 9.17919 9.6485C9.05898 9.77349 9.0573 9.97559 9.17539 10.1027L9.2667 10.1977H9.08409C8.91198 10.1977 8.77246 10.3427 8.77246 10.5217C8.77246 10.7006 8.91198 10.8457 9.08409 10.8457H9.2667L9.17539 10.9407C9.09438 11.022 9.0619 11.1425 9.09041 11.2558C9.11893 11.3691 9.20402 11.4575 9.31297 11.4872C9.42193 11.5169 9.53779 11.4831 9.61603 11.3988L9.70734 11.3039V11.4938C9.70734 11.6727 9.84686 11.8178 10.019 11.8178C10.1911 11.8178 10.3306 11.6727 10.3306 11.4938V11.3039L10.4219 11.3988C10.5442 11.5216 10.7385 11.5199 10.8587 11.3949C10.9789 11.2699 10.9806 11.0678 10.8625 10.9407L10.7712 10.8457H10.9538C11.1259 10.8457 11.2655 10.7006 11.2655 10.5217C11.2655 10.3427 11.1259 10.1977 10.9538 10.1977Z" fill="#EF6A3F"/>
<path d="M7.8375 2.421C8.00961 2.421 8.14913 2.27593 8.14913 2.09698C8.14913 1.91802 8.00961 1.77295 7.8375 1.77295C7.6654 1.77295 7.52588 1.91802 7.52588 2.09698C7.52588 2.27593 7.6654 2.421 7.8375 2.421Z" fill="#EF6A3F"/>
<path d="M12.1998 2.421C12.3719 2.421 12.5114 2.27593 12.5114 2.09698C12.5114 1.91802 12.3719 1.77295 12.1998 1.77295C12.0277 1.77295 11.8882 1.91802 11.8882 2.09698C11.8882 2.27593 12.0277 2.421 12.1998 2.421Z" fill="#EF6A3F"/>
<path d="M15.9396 4.68907C16.1117 4.68907 16.2512 4.544 16.2512 4.36504C16.2512 4.18609 16.1117 4.04102 15.9396 4.04102C15.7674 4.04102 15.6279 4.18609 15.6279 4.36504C15.6279 4.544 15.7674 4.68907 15.9396 4.68907Z" fill="#EF6A3F"/>
<path d="M18.1207 8.5775C18.2928 8.5775 18.4323 8.43243 18.4323 8.25347C18.4323 8.07452 18.2928 7.92944 18.1207 7.92944C17.9486 7.92944 17.8091 8.07452 17.8091 8.25347C17.8091 8.43243 17.9486 8.5775 18.1207 8.5775Z" fill="#EF6A3F"/>
<path d="M18.1207 13.1139C18.2928 13.1139 18.4323 12.9688 18.4323 12.7898C18.4323 12.6109 18.2928 12.4658 18.1207 12.4658C17.9486 12.4658 17.8091 12.6109 17.8091 12.7898C17.8091 12.9688 17.9486 13.1139 18.1207 13.1139Z" fill="#EF6A3F"/>
<path d="M15.9396 17.0021C16.1117 17.0021 16.2512 16.857 16.2512 16.678C16.2512 16.4991 16.1117 16.354 15.9396 16.354C15.7674 16.354 15.6279 16.4991 15.6279 16.678C15.6279 16.857 15.7674 17.0021 15.9396 17.0021Z" fill="#EF6A3F"/>
<path d="M12.1998 19.2704C12.3719 19.2704 12.5114 19.1253 12.5114 18.9463C12.5114 18.7674 12.3719 18.6223 12.1998 18.6223C12.0277 18.6223 11.8882 18.7674 11.8882 18.9463C11.8882 19.1253 12.0277 19.2704 12.1998 19.2704Z" fill="#EF6A3F"/>
<path d="M7.8375 19.2704C8.00961 19.2704 8.14913 19.1253 8.14913 18.9463C8.14913 18.7674 8.00961 18.6223 7.8375 18.6223C7.6654 18.6223 7.52588 18.7674 7.52588 18.9463C7.52588 19.1253 7.6654 19.2704 7.8375 19.2704Z" fill="#EF6A3F"/>
<path d="M4.09776 17.0021C4.26986 17.0021 4.40938 16.857 4.40938 16.678C4.40938 16.4991 4.26986 16.354 4.09776 16.354C3.92565 16.354 3.78613 16.4991 3.78613 16.678C3.78613 16.857 3.92565 17.0021 4.09776 17.0021Z" fill="#EF6A3F"/>
<path d="M1.91661 13.1139C2.08871 13.1139 2.22823 12.9688 2.22823 12.7898C2.22823 12.6109 2.08871 12.4658 1.91661 12.4658C1.7445 12.4658 1.60498 12.6109 1.60498 12.7898C1.60498 12.9688 1.7445 13.1139 1.91661 13.1139Z" fill="#EF6A3F"/>
<path d="M1.91661 8.5775C2.08871 8.5775 2.22823 8.43243 2.22823 8.25347C2.22823 8.07452 2.08871 7.92944 1.91661 7.92944C1.7445 7.92944 1.60498 8.07452 1.60498 8.25347C1.60498 8.43243 1.7445 8.5775 1.91661 8.5775Z" fill="#EF6A3F"/>
<path d="M4.09776 4.68907C4.26986 4.68907 4.40938 4.544 4.40938 4.36504C4.40938 4.18609 4.26986 4.04102 4.09776 4.04102C3.92565 4.04102 3.78613 4.18609 3.78613 4.36504C3.78613 4.544 3.92565 4.68907 4.09776 4.68907Z" fill="#EF6A3F"/>
</g>
<defs>
<clipPath id="clip0">
<rect width="18.6975" height="19.4416" fill="white" transform="translate(0.669922 0.800781)"/>
</clipPath>
</defs>
</svg>
