<svg width="20" height="21" viewBox="0 0 20 21" fill="none" xmlns="http://www.w3.org/2000/svg">
<path d="M19.1022 10.1717C19.0777 10.1719 19.0533 10.1739 19.029 10.1775C18.8305 10.1182 18.3091 9.88587 17.4528 8.99642C17.2979 8.83588 17.1211 8.70004 16.928 8.59333C17.0413 8.40186 17.1276 8.19455 17.1845 7.97768C17.4961 6.76581 17.8349 6.29274 17.9776 6.13688C18.0128 6.1223 18.0296 6.11322 18.0296 6.11322C18.1043 6.06671 18.1585 5.99154 18.1804 5.9039C18.2031 5.81488 18.192 5.72019 18.1493 5.6395C18.0639 5.4844 17.8739 5.43047 17.7245 5.51896C17.7033 5.53178 17.6831 5.5463 17.6641 5.56238C17.4668 5.6139 16.9056 5.6868 15.732 5.36116C15.5199 5.30235 15.3006 5.27679 15.0813 5.28534C15.0886 5.0606 15.0638 4.83599 15.0078 4.61881C14.6962 3.39723 14.7647 2.81366 14.8143 2.60984C14.8295 2.59022 14.8432 2.56942 14.8554 2.54763C14.8934 2.46916 14.9005 2.37836 14.875 2.29457C14.8489 2.20883 14.7927 2.13643 14.7177 2.09172C14.6434 2.04922 14.5558 2.03964 14.4746 2.06515C14.393 2.09067 14.3246 2.14898 14.2845 2.22717C14.2845 2.22717 14.2758 2.24467 14.2618 2.28063C14.1115 2.42936 13.6569 2.78061 12.4911 3.10561C12.2798 3.16536 12.0781 3.25742 11.8928 3.37876C11.7905 3.18065 11.661 2.99903 11.5085 2.83958C10.6522 1.94915 10.4297 1.40706 10.3724 1.20097C10.3755 1.17573 10.377 1.15029 10.3767 1.12483C10.365 0.941076 10.2173 0.798849 10.0402 0.800801C9.86806 0.800801 9.72854 0.945873 9.72854 1.12483C9.72878 1.15042 9.73065 1.17597 9.73415 1.2013C9.67712 1.40738 9.45368 1.94948 8.59827 2.8399C8.44388 3.00099 8.31315 3.18485 8.2103 3.38556C8.02622 3.26768 7.82683 3.17787 7.61821 3.11889C6.45273 2.79486 5.99776 2.44265 5.84818 2.29392C5.83415 2.25795 5.82543 2.24045 5.82543 2.24045C5.78079 2.1628 5.70861 2.10649 5.62443 2.08362C5.5389 2.06021 5.448 2.0718 5.37045 2.11603C5.29843 2.15862 5.24568 2.22928 5.22387 2.3124C5.20205 2.39552 5.21298 2.48425 5.25422 2.55897C5.26662 2.58079 5.28047 2.60169 5.29566 2.62151C5.34521 2.82532 5.41502 3.40825 5.10214 4.63048C5.04571 4.85088 5.02113 5.07879 5.02922 5.30672C4.81299 5.29917 4.59687 5.32494 4.3879 5.38319C3.19749 5.71305 2.6428 5.63464 2.45239 5.58279C2.43395 5.56759 2.41459 5.55363 2.39443 5.54099C2.23552 5.46157 2.0446 5.5241 1.95816 5.68389C1.91686 5.7612 1.90742 5.85261 1.93198 5.93728C1.95651 6.02212 2.0126 6.09327 2.08779 6.13493C2.08779 6.13493 2.10805 6.14465 2.13796 6.15762C2.27944 6.31056 2.61849 6.78072 2.93292 7.99971C2.99036 8.21958 3.07889 8.42935 3.19562 8.62217C3.00501 8.72842 2.83032 8.86301 2.67708 9.02169C1.84005 9.89268 1.32306 10.1328 1.10119 10.2034C1.07693 10.1998 1.05246 10.1978 1.02795 10.1976C0.851233 10.2098 0.71445 10.3634 0.716328 10.5475C0.716328 10.7265 0.855847 10.8716 1.02795 10.8716C1.05257 10.8713 1.07713 10.8694 1.1015 10.8657C1.3 10.9254 1.82135 11.1574 2.67739 12.0468C2.83224 12.2073 3.00908 12.3432 3.20216 12.4499C3.0889 12.6414 3.00254 12.8487 2.9457 13.0655C2.63407 14.2774 2.29533 14.7505 2.15261 14.9063C2.1174 14.9209 2.10057 14.93 2.10057 14.93C2.02585 14.9765 1.97168 15.0517 1.94974 15.1393C1.92707 15.2283 1.93823 15.323 1.9809 15.4037C2.06629 15.5588 2.25632 15.6128 2.40565 15.5243C2.42685 15.5114 2.44707 15.4969 2.4661 15.4808C2.66336 15.4293 3.2246 15.3567 4.39818 15.6821C4.58713 15.7354 4.78201 15.7628 4.97781 15.7634C5.00149 15.7634 5.02486 15.7598 5.04886 15.7589C5.04155 15.9833 5.06634 16.2076 5.1224 16.4244C5.43932 17.6619 5.36391 18.239 5.31436 18.4373C5.30002 18.4562 5.28681 18.476 5.27479 18.4966C5.23676 18.575 5.22972 18.6658 5.25515 18.7496C5.28091 18.8351 5.33649 18.9075 5.41097 18.9525C5.45692 18.9793 5.50878 18.9932 5.56148 18.993C5.59312 18.993 5.6246 18.9883 5.65497 18.979C5.73656 18.9535 5.80499 18.8952 5.84506 18.817C5.84506 18.817 5.8541 18.7963 5.86656 18.7652C6.01365 18.6181 6.46551 18.2652 7.63846 17.9386C7.84981 17.8788 8.05145 17.7868 8.23678 17.6654C8.3391 17.8635 8.46853 18.0452 8.62102 18.2046C9.47394 19.0915 9.698 19.6329 9.75721 19.8439C9.75429 19.8686 9.75304 19.8935 9.75347 19.9184C9.7652 20.1021 9.91292 20.2444 10.09 20.2424C10.2621 20.2424 10.4016 20.0974 10.4016 19.9184C10.4014 19.8927 10.3995 19.867 10.396 19.8416C10.4531 19.6355 10.6765 19.0934 11.5319 18.2033C11.6863 18.0422 11.817 17.8584 11.9199 17.6577C12.104 17.7755 12.3034 17.8654 12.512 17.9243C13.6775 18.2484 14.1324 18.6006 14.282 18.7493C14.296 18.7853 14.3048 18.8028 14.3048 18.8028C14.3494 18.8804 14.4216 18.9367 14.5058 18.9596C14.5333 18.9677 14.5619 18.9717 14.5905 18.9716C14.6497 18.9716 14.7079 18.9561 14.7597 18.9265C14.8318 18.884 14.8845 18.8133 14.9063 18.7302C14.9281 18.6471 14.9172 18.5583 14.876 18.4836C14.8636 18.4618 14.8497 18.4409 14.8345 18.4211C14.785 18.2173 14.7152 17.6343 15.028 16.4121C15.0843 16.1926 15.1089 15.9655 15.101 15.7384C15.1215 15.7384 15.1421 15.7423 15.1633 15.7423C15.3591 15.742 15.554 15.7145 15.7429 15.6607C16.9184 15.3367 17.479 15.4083 17.675 15.4595C17.6947 15.4756 17.7155 15.4901 17.7373 15.5029C17.8962 15.5826 18.0873 15.52 18.1736 15.36C18.2149 15.2827 18.2243 15.1913 18.1998 15.1066C18.1752 15.0218 18.1191 14.9506 18.044 14.9089C18.044 14.9089 18.0271 14.8995 17.9922 14.885C17.8492 14.7288 17.5114 14.256 17.1988 13.0442C17.1414 12.8243 17.0528 12.6145 16.9361 12.4217C17.1267 12.3155 17.3014 12.1809 17.4547 12.0222C18.311 11.1321 18.8324 10.9004 19.0309 10.8411C19.0545 10.8442 19.0784 10.8457 19.1022 10.8456C19.279 10.8334 19.4157 10.6798 19.4139 10.4957C19.4139 10.3167 19.2743 10.1717 19.1022 10.1717ZM15.569 5.98718C16.0831 6.14053 16.6128 6.23015 17.1471 6.25418C16.9009 6.74779 16.7115 7.26982 16.5827 7.80951C16.5184 8.07127 16.3914 8.31183 16.2135 8.50876C15.8467 8.86889 15.3793 9.09835 14.8788 9.16394C14.8545 9.07256 14.8288 8.98616 14.8018 8.90472C14.7257 8.66933 14.6331 8.44006 14.5248 8.21875L15.8884 7.40026C16.0362 7.31018 16.0864 7.11296 16.0007 6.95871C15.9151 6.80446 15.7257 6.75101 15.5768 6.83905L14.2122 7.65819C14.1408 7.54737 14.0657 7.43914 13.986 7.33416C14.4315 6.9748 14.7711 6.49261 14.966 5.94246C15.1679 5.91645 15.3727 5.93164 15.569 5.98718ZM11.4213 14.8331C11.2712 14.8863 11.1183 14.9301 10.9632 14.9643C10.3724 15.0884 9.7637 15.0884 9.17291 14.9643C9.01689 14.9301 8.86298 14.8862 8.71201 14.8328H8.70827L8.70547 14.8308C8.14488 14.6417 7.62783 14.3344 7.18661 13.9281C7.18287 13.9239 7.17882 13.9203 7.17477 13.9161L7.16822 13.9093C7.16355 13.9048 7.1595 13.8996 7.15451 13.8954C7.0346 13.7877 6.92213 13.6715 6.81795 13.5474C6.61619 13.3171 6.4386 13.0651 6.28819 12.7956C6.28819 12.794 6.28819 12.7917 6.28632 12.7901L6.28321 12.7866C6.13404 12.5158 6.01247 12.2295 5.92047 11.9324C5.86953 11.7762 5.82739 11.6171 5.79426 11.4558C5.6746 10.8422 5.6746 10.2098 5.79426 9.59619C5.82825 9.43082 5.87154 9.26766 5.9239 9.10756C6.10578 8.52441 6.40157 7.98663 6.79271 7.52793C6.79739 7.52371 6.80144 7.51885 6.8058 7.51432V7.5127C6.8111 7.50686 6.81702 7.50168 6.82201 7.49552C6.92497 7.37136 7.03618 7.25486 7.15482 7.14687C7.60562 6.72656 8.13515 6.40773 8.71014 6.21043C8.8602 6.15728 9.01317 6.11346 9.16823 6.0792C9.75831 5.95526 10.3663 5.95526 10.9563 6.0792C11.1146 6.11406 11.2707 6.15886 11.4238 6.21335C11.985 6.40215 12.5025 6.70961 12.9439 7.11641C12.9479 7.12127 12.9529 7.12548 12.957 7.13002L12.9598 7.13261C12.9651 7.13812 12.9701 7.14395 12.976 7.14914C13.0953 7.2562 13.2072 7.37184 13.311 7.4952C13.7164 7.9628 14.0232 8.51347 14.2116 9.11177C14.2625 9.26797 14.3047 9.42712 14.3378 9.58841C14.4575 10.202 14.4575 10.8344 14.3378 11.448C14.3039 11.6125 14.2608 11.7748 14.2088 11.934C14.0269 12.5178 13.7309 13.0562 13.3393 13.5153C13.3353 13.5189 13.3316 13.5234 13.3278 13.5273L13.3222 13.5331C13.3178 13.538 13.3129 13.5425 13.3085 13.5477C13.2055 13.6719 13.0943 13.7884 12.9757 13.8964C12.5251 14.3166 11.9959 14.6354 11.4213 14.8328V14.8331ZM12.6516 3.73195C13.1706 3.59806 13.6727 3.40099 14.1474 3.14481C14.1704 3.70082 14.2565 4.25205 14.4042 4.78698C14.4738 5.0474 14.4793 5.32186 14.4201 5.58506C14.2769 6.08859 13.9807 6.53036 13.5759 6.84423C13.5213 6.78817 13.4662 6.73341 13.4098 6.68222L13.3998 6.67185L13.3964 6.66828L13.3864 6.65824C13.2082 6.49405 13.0188 6.34363 12.8195 6.20816L13.6067 4.79055C13.6633 4.69024 13.6638 4.56611 13.6081 4.46528C13.5524 4.36445 13.449 4.30239 13.3372 4.30264C13.2254 4.3029 13.1223 4.36544 13.067 4.46652L12.2798 5.88414C12.1651 5.82495 12.0481 5.7704 11.9286 5.7205C12.1355 5.17707 12.1973 4.58562 12.1075 4.00867C12.2694 3.87985 12.4544 3.78579 12.6516 3.73195ZM10.0526 2.01039C10.3404 2.47986 10.6807 2.91221 11.0663 3.2984C11.2512 3.48753 11.3881 3.7213 11.4649 3.97886C11.5811 4.48989 11.5374 5.02612 11.3403 5.50956C11.2596 5.4872 11.1754 5.46517 11.0841 5.44476C10.8506 5.39759 10.6142 5.36717 10.3767 5.3537V3.71704C10.3767 3.53809 10.2372 3.39302 10.0651 3.39302C9.89299 3.39302 9.75347 3.53809 9.75347 3.71704V5.3537C9.6257 5.36181 9.49825 5.37444 9.37048 5.39259C9.29058 4.81292 9.05817 4.26749 8.69893 3.81652C8.77836 3.62214 8.8939 3.44596 9.03891 3.29808C9.42461 2.91205 9.7649 2.4798 10.0526 2.01039ZM5.70452 4.79703C5.85174 4.26267 5.93783 3.71213 5.96098 3.1568C6.43567 3.41279 6.93774 3.60965 7.45679 3.74329C7.70844 3.81019 7.93969 3.94229 8.12896 4.12726C8.47812 4.50673 8.69954 4.99368 8.76 5.51507C8.67119 5.54034 8.5883 5.56691 8.5107 5.59478C8.28422 5.67402 8.06362 5.77041 7.85068 5.88317L7.06352 4.46522C6.97688 4.31156 6.78721 4.25942 6.63887 4.34848C6.49052 4.43754 6.43911 4.63441 6.52378 4.78925L7.31157 6.20816C7.20499 6.28237 7.10091 6.36046 6.99994 6.44341C6.65433 5.98022 6.19059 5.62725 5.66151 5.42467C5.63637 5.21497 5.65098 5.00218 5.70452 4.79832V4.79703ZM4.54932 6.00954C4.79978 5.93712 5.06373 5.93144 5.31685 5.99301C5.80322 6.14311 6.22966 6.45316 6.53219 6.87663C6.47891 6.93301 6.42032 6.98583 6.37108 7.04415L6.36142 7.05452L6.35893 7.05679L6.34865 7.06748C6.19105 7.25294 6.0466 7.45003 5.91642 7.65721L4.55244 6.83872C4.45597 6.77992 4.33659 6.77936 4.23962 6.83728C4.14265 6.89519 4.08296 7.00269 4.08321 7.11897C4.08346 7.23524 4.1436 7.34247 4.24081 7.39994L5.60417 8.21843C5.54683 8.33864 5.49417 8.45983 5.44649 8.58361C4.92417 8.36901 4.35586 8.30487 3.80142 8.39794C3.67753 8.22955 3.58707 8.03724 3.53529 7.83219C3.40633 7.29253 3.2168 6.77051 2.97063 6.27686C3.50515 6.25275 4.03506 6.16302 4.54932 6.00954ZM1.87931 10.5346C2.33085 10.2354 2.74666 9.88157 3.11803 9.48051C3.29995 9.28835 3.52476 9.14598 3.77244 9.06608C4.26403 8.94563 4.77974 8.99102 5.24487 9.19569C5.22306 9.27929 5.20249 9.36548 5.18254 9.45783V9.46302C5.13706 9.70547 5.1078 9.95092 5.09498 10.1976H3.52096C3.34885 10.1976 3.20933 10.3427 3.20933 10.5216C3.20933 10.7006 3.34885 10.8456 3.52096 10.8456H5.09498C5.10277 10.9782 5.11523 11.1104 5.13268 11.2435C4.57504 11.3266 4.05034 11.5683 3.61663 11.9421C3.42973 11.8595 3.2603 11.7394 3.11803 11.5886C2.74671 11.1875 2.33089 10.8337 1.87931 10.5346ZM4.56116 15.056C4.0471 14.9027 3.5174 14.8131 2.98309 14.789C3.22928 14.2954 3.4187 13.7734 3.54745 13.2337C3.61179 12.972 3.73883 12.7314 3.91672 12.5345C4.28348 12.1743 4.75092 11.9449 5.25141 11.8793C5.27572 11.9707 5.30127 12.0565 5.32807 12.1385C5.40386 12.3743 5.49614 12.604 5.60417 12.8258L4.24175 13.6436C4.14453 13.7011 4.08439 13.8083 4.08414 13.9246C4.0839 14.0409 4.14359 14.1484 4.24056 14.2063C4.33752 14.2642 4.4569 14.2636 4.55337 14.2048L5.91611 13.387C5.98778 13.4982 6.06341 13.6062 6.14297 13.711C5.69805 14.0703 5.35894 14.5521 5.16416 15.1017C4.96222 15.1276 4.75736 15.1121 4.56116 15.056ZM7.47891 17.3113C6.95985 17.4452 6.45778 17.6422 5.98311 17.8984C5.96014 17.3424 5.87395 16.7912 5.72633 16.2562C5.65669 15.9958 5.65122 15.7214 5.71044 15.4582C5.85362 14.9546 6.1498 14.5129 6.55463 14.199C6.60917 14.2551 6.66432 14.3098 6.72073 14.361C6.72805 14.3695 6.73585 14.3775 6.7441 14.385C6.92236 14.549 7.11192 14.6992 7.31126 14.8344L6.52378 16.2527C6.46722 16.353 6.4667 16.4771 6.52239 16.5779C6.57809 16.6788 6.68147 16.7408 6.7933 16.7406C6.90512 16.7403 7.00824 16.6778 7.06352 16.5767L7.85068 15.1588C7.96598 15.2184 8.08305 15.2731 8.20188 15.323C7.99475 15.8669 7.93305 16.4588 8.02332 17.0362C7.86107 17.1645 7.67591 17.258 7.4786 17.3113H7.47891ZM10.0776 19.0328C9.78967 18.5634 9.4494 18.1311 9.06384 17.7448C8.87899 17.5557 8.74206 17.3219 8.66527 17.0644C8.54929 16.5533 8.59296 16.0172 8.78992 15.5337C8.87001 15.556 8.95259 15.5774 9.04171 15.5985H9.04483H9.04639C9.27979 15.6457 9.51604 15.6761 9.75347 15.6895V17.3262C9.75347 17.5051 9.89299 17.6502 10.0651 17.6502C10.2372 17.6502 10.3767 17.5051 10.3767 17.3262V15.6895C10.5041 15.6815 10.6317 15.6685 10.7597 15.6503C10.8395 16.2301 11.0719 16.7756 11.4313 17.2267C11.3518 17.4211 11.2363 17.5973 11.0913 17.7451C10.7056 18.1312 10.3653 18.5635 10.0776 19.0328ZM14.4257 16.2462C14.2784 16.7805 14.1924 17.3311 14.1692 17.8864C13.6945 17.6304 13.1924 17.4336 12.6734 17.2999C12.4217 17.233 12.1905 17.1009 12.0012 16.916C11.6521 16.5365 11.4306 16.0495 11.3702 15.5282C11.459 15.5029 11.5419 15.4763 11.6195 15.4484C11.846 15.3692 12.0666 15.2728 12.2795 15.1601L13.0667 16.578C13.1533 16.7317 13.343 16.7838 13.4913 16.6947C13.6397 16.6057 13.6911 16.4088 13.6064 16.254L12.8186 14.8351C12.9252 14.7609 13.0293 14.6828 13.1302 14.5998C13.4759 15.063 13.9396 15.416 14.4687 15.6186C14.4938 15.8283 14.4792 16.041 14.4257 16.2449V16.2462ZM15.5787 15.035C15.3282 15.1075 15.0643 15.1132 14.8111 15.0515C14.3248 14.9014 13.8983 14.5914 13.5958 14.1679C13.6491 14.1115 13.7077 14.0587 13.7569 14.0004C13.7644 13.993 13.7719 13.9852 13.7794 13.977C13.9372 13.7917 14.0817 13.5946 14.2119 13.3873L15.5756 14.2058C15.7245 14.2938 15.9138 14.2404 15.9995 14.0861C16.0851 13.9319 16.035 13.7347 15.8872 13.6446L14.5238 12.8261C14.5805 12.7073 14.6325 12.5859 14.6796 12.4619C15.0554 12.6116 15.4534 12.6916 15.8557 12.6984C16.0147 12.6962 16.1731 12.678 16.3288 12.644C16.4527 12.8126 16.5429 13.0053 16.5943 13.2107C16.7232 13.7504 16.9128 14.2724 17.1589 14.766C16.6246 14.7903 16.0949 14.8801 15.5809 15.0337L15.5787 15.035ZM17.0106 11.564C16.8287 11.7562 16.6039 11.8985 16.3562 11.9784C15.8646 12.0989 15.3489 12.0535 14.8838 11.8488C14.9056 11.7639 14.9268 11.6764 14.9461 11.5815C14.9921 11.3387 15.0219 11.0928 15.0352 10.8456H16.6092C16.7813 10.8456 16.9209 10.7006 16.9209 10.5216C16.9209 10.3427 16.7813 10.1976 16.6092 10.1976H15.0352C15.0274 10.0651 15.015 9.93285 14.9975 9.79968C15.5551 9.71666 16.0798 9.47488 16.5136 9.10108C16.7005 9.18375 16.8699 9.30387 17.0122 9.45459C17.3835 9.85576 17.7995 10.2096 18.2512 10.5087C17.7995 10.8077 17.3835 11.1615 17.0122 11.5627L17.0106 11.564Z" fill="#97A98F"/>
<path d="M12.0481 12.0864L12.8779 12.5844C12.9744 12.6432 13.0938 12.6437 13.1907 12.5858C13.2877 12.5279 13.3474 12.4204 13.3471 12.3041C13.3469 12.1879 13.2868 12.0806 13.1895 12.0232L12.3631 11.5261C12.4505 11.3086 12.5089 11.0796 12.5367 10.8457H13.4931C13.6652 10.8457 13.8047 10.7006 13.8047 10.5216C13.8047 10.3427 13.6652 10.1976 13.4931 10.1976H12.5367C12.5089 9.96363 12.4505 9.7347 12.3631 9.51714L13.1895 9.02073C13.2868 8.96326 13.3469 8.85604 13.3471 8.73976C13.3474 8.62349 13.2877 8.51599 13.1907 8.45808C13.0938 8.40016 12.9744 8.40071 12.8779 8.45952L12.0481 8.95755C11.9109 8.77026 11.7501 8.60306 11.57 8.46049L12.049 7.59761C12.1056 7.4973 12.1061 7.37317 12.0504 7.27234C11.9947 7.17151 11.8913 7.10945 11.7795 7.1097C11.6677 7.10996 11.5645 7.1725 11.5093 7.27358L11.0312 8.13257C10.8221 8.04144 10.6019 7.9806 10.3768 7.95177V6.95733C10.3768 6.77837 10.2373 6.6333 10.0652 6.6333C9.89308 6.6333 9.75356 6.77837 9.75356 6.95733V7.95177C9.52849 7.9806 9.3083 8.04144 9.09915 8.13257L8.62174 7.27293C8.56647 7.17185 8.46335 7.10931 8.35152 7.10906C8.2397 7.1088 8.13631 7.17087 8.08062 7.27169C8.02492 7.37252 8.02545 7.49665 8.082 7.59696L8.56097 8.45984C8.38085 8.60242 8.22006 8.76961 8.08294 8.9569L7.25308 8.45887C7.15661 8.40006 7.03723 8.39951 6.94027 8.45743C6.8433 8.51534 6.78361 8.62284 6.78385 8.73912C6.7841 8.85539 6.84424 8.96262 6.94146 9.02008L7.76726 9.51714C7.67992 9.7347 7.62152 9.96363 7.59369 10.1976H6.63731C6.4652 10.1976 6.32568 10.3427 6.32568 10.5216C6.32568 10.7006 6.4652 10.8457 6.63731 10.8457H7.59369C7.62152 11.0796 7.67992 11.3086 7.76726 11.5261L6.94083 12.0225C6.84362 12.08 6.78348 12.1872 6.78323 12.3035C6.78298 12.4198 6.84267 12.5273 6.93964 12.5852C7.03661 12.6431 7.15599 12.6425 7.25246 12.5837L8.08232 12.0857C8.21943 12.273 8.38023 12.4402 8.56035 12.5828L8.08138 13.4456C8.02483 13.546 8.0243 13.6701 8.07999 13.7709C8.13569 13.8717 8.23908 13.9338 8.3509 13.9336C8.46273 13.9333 8.56585 13.8708 8.62112 13.7697L9.09915 12.9107C9.3083 13.0018 9.52849 13.0627 9.75356 13.0915V14.0859C9.75356 14.2649 9.89308 14.41 10.0652 14.41C10.2373 14.41 10.3768 14.2649 10.3768 14.0859V13.0915C10.6019 13.0627 10.8221 13.0018 11.0312 12.9107L11.5086 13.7703C11.5639 13.8714 11.667 13.9339 11.7789 13.9342C11.8907 13.9345 11.9941 13.8724 12.0498 13.7716C12.1055 13.6707 12.1049 13.5466 12.0484 13.4463L11.5694 12.5834C11.7497 12.4409 11.9108 12.2737 12.0481 12.0864ZM10.0652 12.4658C9.03255 12.4658 8.19544 11.5954 8.19544 10.5216C8.19544 9.4479 9.03255 8.57746 10.0652 8.57746C11.0978 8.57746 11.9349 9.4479 11.9349 10.5216C11.9339 11.5949 11.0974 12.4647 10.0652 12.4658Z" fill="#97A98F"/>
<path d="M10.9997 10.1977H10.8171L10.9084 10.1027C11.0265 9.97559 11.0248 9.77349 10.9046 9.6485C10.7844 9.52351 10.5901 9.52176 10.4678 9.64455L10.3765 9.73949V9.54961C10.3765 9.37066 10.237 9.22559 10.0649 9.22559C9.89276 9.22559 9.75324 9.37066 9.75324 9.54961V9.73949L9.66193 9.64455C9.53965 9.52176 9.34529 9.52351 9.22509 9.6485C9.10488 9.77349 9.10319 9.97559 9.22129 10.1027L9.3126 10.1977H9.12998C8.95788 10.1977 8.81836 10.3427 8.81836 10.5217C8.81836 10.7006 8.95788 10.8457 9.12998 10.8457H9.3126L9.22129 10.9407C9.14028 11.022 9.10779 11.1425 9.13631 11.2558C9.16483 11.3691 9.24992 11.4575 9.35887 11.4872C9.46783 11.5169 9.58369 11.4831 9.66193 11.3988L9.75324 11.3039V11.4938C9.75324 11.6727 9.89276 11.8178 10.0649 11.8178C10.237 11.8178 10.3765 11.6727 10.3765 11.4938V11.3039L10.4678 11.3988C10.5901 11.5216 10.7844 11.5199 10.9046 11.3949C11.0248 11.2699 11.0265 11.0678 10.9084 10.9407L10.8171 10.8457H10.9997C11.1718 10.8457 11.3114 10.7006 11.3114 10.5217C11.3114 10.3427 11.1718 10.1977 10.9997 10.1977Z" fill="#97A98F"/>
<path d="M7.88389 2.421C8.056 2.421 8.19552 2.27593 8.19552 2.09698C8.19552 1.91802 8.056 1.77295 7.88389 1.77295C7.71179 1.77295 7.57227 1.91802 7.57227 2.09698C7.57227 2.27593 7.71179 2.421 7.88389 2.421Z" fill="#97A98F"/>
<path d="M12.2462 2.421C12.4183 2.421 12.5578 2.27593 12.5578 2.09698C12.5578 1.91802 12.4183 1.77295 12.2462 1.77295C12.0741 1.77295 11.9346 1.91802 11.9346 2.09698C11.9346 2.27593 12.0741 2.421 12.2462 2.421Z" fill="#97A98F"/>
<path d="M15.9859 4.68907C16.158 4.68907 16.2976 4.544 16.2976 4.36504C16.2976 4.18609 16.158 4.04102 15.9859 4.04102C15.8138 4.04102 15.6743 4.18609 15.6743 4.36504C15.6743 4.544 15.8138 4.68907 15.9859 4.68907Z" fill="#97A98F"/>
<path d="M18.1671 8.5775C18.3392 8.5775 18.4787 8.43243 18.4787 8.25347C18.4787 8.07452 18.3392 7.92944 18.1671 7.92944C17.995 7.92944 17.8555 8.07452 17.8555 8.25347C17.8555 8.43243 17.995 8.5775 18.1671 8.5775Z" fill="#97A98F"/>
<path d="M18.1671 13.1139C18.3392 13.1139 18.4787 12.9688 18.4787 12.7898C18.4787 12.6109 18.3392 12.4658 18.1671 12.4658C17.995 12.4658 17.8555 12.6109 17.8555 12.7898C17.8555 12.9688 17.995 13.1139 18.1671 13.1139Z" fill="#97A98F"/>
<path d="M15.9859 17.0021C16.158 17.0021 16.2976 16.857 16.2976 16.678C16.2976 16.4991 16.158 16.354 15.9859 16.354C15.8138 16.354 15.6743 16.4991 15.6743 16.678C15.6743 16.857 15.8138 17.0021 15.9859 17.0021Z" fill="#97A98F"/>
<path d="M12.2462 19.2704C12.4183 19.2704 12.5578 19.1253 12.5578 18.9463C12.5578 18.7674 12.4183 18.6223 12.2462 18.6223C12.0741 18.6223 11.9346 18.7674 11.9346 18.9463C11.9346 19.1253 12.0741 19.2704 12.2462 19.2704Z" fill="#97A98F"/>
<path d="M7.88389 19.2704C8.056 19.2704 8.19552 19.1253 8.19552 18.9463C8.19552 18.7674 8.056 18.6223 7.88389 18.6223C7.71179 18.6223 7.57227 18.7674 7.57227 18.9463C7.57227 19.1253 7.71179 19.2704 7.88389 19.2704Z" fill="#97A98F"/>
<path d="M4.14415 17.0021C4.31625 17.0021 4.45577 16.857 4.45577 16.678C4.45577 16.4991 4.31625 16.354 4.14415 16.354C3.97204 16.354 3.83252 16.4991 3.83252 16.678C3.83252 16.857 3.97204 17.0021 4.14415 17.0021Z" fill="#97A98F"/>
<path d="M1.96299 13.1139C2.1351 13.1139 2.27462 12.9688 2.27462 12.7898C2.27462 12.6109 2.1351 12.4658 1.96299 12.4658C1.79089 12.4658 1.65137 12.6109 1.65137 12.7898C1.65137 12.9688 1.79089 13.1139 1.96299 13.1139Z" fill="#97A98F"/>
<path d="M1.96299 8.5775C2.1351 8.5775 2.27462 8.43243 2.27462 8.25347C2.27462 8.07452 2.1351 7.92944 1.96299 7.92944C1.79089 7.92944 1.65137 8.07452 1.65137 8.25347C1.65137 8.43243 1.79089 8.5775 1.96299 8.5775Z" fill="#97A98F"/>
<path d="M4.14415 4.68907C4.31625 4.68907 4.45577 4.544 4.45577 4.36504C4.45577 4.18609 4.31625 4.04102 4.14415 4.04102C3.97204 4.04102 3.83252 4.18609 3.83252 4.36504C3.83252 4.544 3.97204 4.68907 4.14415 4.68907Z" fill="#97A98F"/>
</svg>
