<svg width="20" height="21" viewBox="0 0 20 21" fill="none" xmlns="http://www.w3.org/2000/svg">
<g clip-path="url(#clip0)">
<path d="M19.1491 10.1717C19.1246 10.1719 19.1001 10.1739 19.0759 10.1775C18.8774 10.1182 18.356 9.88587 17.4997 8.99642C17.3448 8.83588 17.168 8.70004 16.9749 8.59333C17.0882 8.40186 17.1745 8.19455 17.2314 7.97768C17.543 6.76581 17.8817 6.29274 18.0244 6.13688C18.0597 6.1223 18.0765 6.11322 18.0765 6.11322C18.1512 6.06671 18.2054 5.99154 18.2273 5.9039C18.25 5.81488 18.2388 5.72019 18.1962 5.6395C18.1108 5.4844 17.9207 5.43047 17.7714 5.51896C17.7502 5.53178 17.73 5.5463 17.711 5.56238C17.5137 5.6139 16.9525 5.6868 15.7789 5.36116C15.5668 5.30235 15.3475 5.27679 15.1282 5.28534C15.1355 5.0606 15.1107 4.83599 15.0547 4.61881C14.743 3.39723 14.8116 2.81366 14.8611 2.60984C14.8763 2.59022 14.8901 2.56942 14.9023 2.54763C14.9403 2.46916 14.9473 2.37836 14.9219 2.29457C14.8958 2.20883 14.8396 2.13643 14.7645 2.09172C14.6903 2.04922 14.6026 2.03964 14.5215 2.06515C14.4399 2.09067 14.3714 2.14898 14.3314 2.22717C14.3314 2.22717 14.3226 2.24467 14.3086 2.28063C14.1584 2.42936 13.7038 2.78061 12.538 3.10561C12.3266 3.16536 12.125 3.25742 11.9397 3.37876C11.8373 3.18065 11.7079 2.99903 11.5554 2.83958C10.6991 1.94915 10.4766 1.40706 10.4192 1.20097C10.4224 1.17573 10.4239 1.15029 10.4236 1.12483C10.4119 0.941076 10.2641 0.798849 10.087 0.800801C9.91493 0.800801 9.77541 0.945873 9.77541 1.12483C9.77565 1.15042 9.77753 1.17597 9.78102 1.2013C9.72399 1.40738 9.50056 1.94948 8.64515 2.8399C8.49075 3.00099 8.36002 3.18485 8.25717 3.38556C8.0731 3.26768 7.8737 3.17787 7.66508 3.11889C6.4996 2.79486 6.04463 2.44265 5.89505 2.29392C5.88103 2.25795 5.8723 2.24045 5.8723 2.24045C5.82766 2.1628 5.75548 2.10649 5.6713 2.08362C5.58578 2.06021 5.49487 2.0718 5.41733 2.11603C5.3453 2.15862 5.29255 2.22928 5.27074 2.3124C5.24893 2.39552 5.25985 2.48425 5.30109 2.55897C5.3135 2.58079 5.32735 2.60169 5.34254 2.62151C5.39209 2.82532 5.46189 3.40825 5.14902 4.63048C5.09258 4.85088 5.06801 5.07879 5.0761 5.30672C4.85987 5.29917 4.64375 5.32494 4.43477 5.38319C3.24436 5.71305 2.68967 5.63464 2.49927 5.58279C2.48082 5.56759 2.46146 5.55363 2.44131 5.54099C2.28239 5.46157 2.09148 5.5241 2.00503 5.68389C1.96374 5.7612 1.95429 5.85261 1.97885 5.93728C2.00339 6.02212 2.05948 6.09327 2.13467 6.13493C2.13467 6.13493 2.15492 6.14465 2.18484 6.15762C2.32632 6.31056 2.66536 6.78072 2.97979 7.99971C3.03724 8.21958 3.12577 8.42935 3.24249 8.62217C3.05188 8.72842 2.8772 8.86301 2.72395 9.02169C1.88692 9.89268 1.36994 10.1328 1.14806 10.2034C1.1238 10.1998 1.09934 10.1978 1.07483 10.1976C0.898108 10.2098 0.761325 10.3634 0.763203 10.5475C0.763203 10.7265 0.902722 10.8716 1.07483 10.8716C1.09944 10.8713 1.12401 10.8694 1.14837 10.8657C1.34688 10.9254 1.86823 11.1574 2.72426 12.0468C2.87911 12.2073 3.05595 12.3432 3.24904 12.4499C3.13578 12.6414 3.04941 12.8487 2.99257 13.0655C2.68095 14.2774 2.34221 14.7505 2.19948 14.9063C2.16427 14.9209 2.14744 14.93 2.14744 14.93C2.07272 14.9765 2.01856 15.0517 1.99662 15.1393C1.97395 15.2283 1.9851 15.323 2.02778 15.4037C2.11317 15.5588 2.3032 15.6128 2.45252 15.5243C2.47373 15.5114 2.49394 15.4969 2.51298 15.4808C2.71024 15.4293 3.27148 15.3567 4.44506 15.6821C4.63401 15.7354 4.82888 15.7628 5.02468 15.7634C5.04836 15.7634 5.07174 15.7598 5.09573 15.7589C5.08843 15.9833 5.11321 16.2076 5.16928 16.4244C5.4862 17.6619 5.41079 18.239 5.36124 18.4373C5.3469 18.4562 5.33368 18.476 5.32166 18.4966C5.28364 18.575 5.27659 18.6658 5.30203 18.7496C5.32779 18.8351 5.38337 18.9075 5.45784 18.9525C5.5038 18.9793 5.55566 18.9932 5.60836 18.993C5.64 18.993 5.67148 18.9883 5.70184 18.979C5.78344 18.9535 5.85186 18.8952 5.89193 18.817C5.89193 18.817 5.90097 18.7963 5.91344 18.7652C6.06052 18.6181 6.51238 18.2652 7.68534 17.9386C7.89668 17.8788 8.09832 17.7868 8.28366 17.6654C8.38598 17.8635 8.51541 18.0452 8.66789 18.2046C9.52081 19.0915 9.74487 19.6329 9.80408 19.8439C9.80116 19.8686 9.79991 19.8935 9.80034 19.9184C9.81207 20.1021 9.9598 20.2444 10.1369 20.2424C10.309 20.2424 10.4485 20.0974 10.4485 19.9184C10.4483 19.8927 10.4464 19.867 10.4429 19.8416C10.4999 19.6355 10.7234 19.0934 11.5788 18.2033C11.7332 18.0422 11.8639 17.8584 11.9668 17.6577C12.1508 17.7755 12.3502 17.8654 12.5589 17.9243C13.7243 18.2484 14.1793 18.6006 14.3289 18.7493C14.3429 18.7853 14.3516 18.8028 14.3516 18.8028C14.3963 18.8804 14.4685 18.9367 14.5526 18.9596C14.5802 18.9677 14.6087 18.9717 14.6374 18.9716C14.6965 18.9716 14.7547 18.9561 14.8066 18.9265C14.8786 18.884 14.9314 18.8133 14.9532 18.7302C14.975 18.6471 14.9641 18.5583 14.9228 18.4836C14.9104 18.4618 14.8966 18.4409 14.8814 18.4211C14.8318 18.2173 14.762 17.6343 15.0749 16.4121C15.1312 16.1926 15.1558 15.9655 15.1478 15.7384C15.1684 15.7384 15.189 15.7423 15.2102 15.7423C15.406 15.742 15.6009 15.7145 15.7898 15.6607C16.9652 15.3367 17.5258 15.4083 17.7219 15.4595C17.7415 15.4756 17.7624 15.4901 17.7842 15.5029C17.9431 15.5826 18.1342 15.52 18.2205 15.36C18.2618 15.2827 18.2712 15.1913 18.2466 15.1066C18.2221 15.0218 18.166 14.9506 18.0908 14.9089C18.0908 14.9089 18.074 14.8995 18.0391 14.885C17.8961 14.7288 17.5583 14.256 17.2457 13.0442C17.1883 12.8243 17.0997 12.6145 16.983 12.4217C17.1736 12.3155 17.3483 12.1809 17.5015 12.0222C18.3579 11.1321 18.8792 10.9004 19.0777 10.8411C19.1014 10.8442 19.1252 10.8457 19.1491 10.8456C19.3258 10.8334 19.4626 10.6798 19.4607 10.4957C19.4607 10.3167 19.3212 10.1717 19.1491 10.1717ZM15.6159 5.98718C16.13 6.14053 16.6597 6.23015 17.194 6.25418C16.9478 6.74779 16.7584 7.26982 16.6296 7.80951C16.5653 8.07127 16.4382 8.31183 16.2603 8.50876C15.8936 8.86889 15.4261 9.09835 14.9256 9.16394C14.9013 9.07256 14.8757 8.98616 14.8487 8.90472C14.7726 8.66933 14.68 8.44006 14.5716 8.21875L15.9353 7.40026C16.0831 7.31018 16.1332 7.11296 16.0476 6.95871C15.9619 6.80446 15.7726 6.75101 15.6237 6.83905L14.2591 7.65819C14.1877 7.54737 14.1126 7.43914 14.0328 7.33416C14.4784 6.9748 14.8179 6.49261 15.0129 5.94246C15.2148 5.91645 15.4196 5.93164 15.6159 5.98718ZM11.4682 14.8331C11.3181 14.8863 11.1651 14.9301 11.0101 14.9643C10.4193 15.0884 9.81058 15.0884 9.21978 14.9643C9.06376 14.9301 8.90986 14.8862 8.75889 14.8328H8.75515L8.75234 14.8308C8.19176 14.6417 7.67471 14.3344 7.23348 13.9281C7.22974 13.9239 7.22569 13.9203 7.22164 13.9161L7.2151 13.9093C7.21042 13.9048 7.20637 13.8996 7.20139 13.8954C7.08147 13.7877 6.96901 13.6715 6.86483 13.5474C6.66306 13.3171 6.48547 13.0651 6.33507 12.7956C6.33507 12.794 6.33507 12.7917 6.3332 12.7901L6.33008 12.7866C6.18091 12.5158 6.05934 12.2295 5.96735 11.9324C5.9164 11.7762 5.87426 11.6171 5.84114 11.4558C5.72147 10.8422 5.72147 10.2098 5.84114 9.59619C5.87512 9.43082 5.91841 9.26766 5.97078 9.10756C6.15266 8.52441 6.44844 7.98663 6.83959 7.52793C6.84426 7.52371 6.84831 7.51885 6.85268 7.51432V7.5127C6.85797 7.50686 6.86389 7.50168 6.86888 7.49552C6.97185 7.37136 7.08306 7.25486 7.2017 7.14687C7.6525 6.72656 8.18203 6.40773 8.75702 6.21043C8.90708 6.15728 9.06004 6.11346 9.21511 6.0792C9.80519 5.95526 10.4131 5.95526 11.0032 6.0792C11.1615 6.11406 11.3176 6.15886 11.4707 6.21335C12.0318 6.40215 12.5494 6.70961 12.9908 7.11641C12.9948 7.12127 12.9998 7.12548 13.0039 7.13002L13.0067 7.13261C13.012 7.13812 13.0169 7.14395 13.0229 7.14914C13.1422 7.2562 13.2541 7.37184 13.3579 7.4952C13.7633 7.9628 14.07 8.51347 14.2585 9.11177C14.3094 9.26797 14.3515 9.42712 14.3847 9.58841C14.5043 10.202 14.5043 10.8344 14.3847 11.448C14.3508 11.6125 14.3077 11.7748 14.2557 11.934C14.0738 12.5178 13.7778 13.0562 13.3862 13.5153C13.3822 13.5189 13.3784 13.5234 13.3747 13.5273L13.3691 13.5331C13.3647 13.538 13.3597 13.5425 13.3554 13.5477C13.2524 13.6719 13.1412 13.7884 13.0225 13.8964C12.572 14.3166 12.0428 14.6354 11.4682 14.8328V14.8331ZM12.6985 3.73195C13.2175 3.59806 13.7196 3.40099 14.1943 3.14481C14.2172 3.70082 14.3034 4.25205 14.451 4.78698C14.5207 5.0474 14.5261 5.32186 14.4669 5.58506C14.3237 6.08859 14.0276 6.53036 13.6227 6.84423C13.5682 6.78817 13.513 6.73341 13.4566 6.68222L13.4467 6.67185L13.4432 6.66828L13.4333 6.65824C13.2551 6.49405 13.0657 6.34363 12.8664 6.20816L13.6536 4.79055C13.7101 4.69024 13.7107 4.56611 13.655 4.46528C13.5993 4.36445 13.4959 4.30239 13.3841 4.30264C13.2722 4.3029 13.1691 4.36544 13.1139 4.46652L12.3267 5.88414C12.212 5.82495 12.0949 5.7704 11.9755 5.7205C12.1823 5.17707 12.2442 4.58562 12.1544 4.00867C12.3163 3.87985 12.5012 3.78579 12.6985 3.73195ZM10.0995 2.01039C10.3873 2.47986 10.7276 2.91221 11.1132 3.2984C11.2981 3.48753 11.435 3.7213 11.5118 3.97886C11.6279 4.48989 11.5843 5.02612 11.3871 5.50956C11.3064 5.4872 11.2223 5.46517 11.131 5.44476C10.8975 5.39759 10.6611 5.36717 10.4236 5.3537V3.71704C10.4236 3.53809 10.2841 3.39302 10.112 3.39302C9.93986 3.39302 9.80034 3.53809 9.80034 3.71704V5.3537C9.67257 5.36181 9.54512 5.37444 9.41735 5.39259C9.33745 4.81292 9.10505 4.26749 8.7458 3.81652C8.82524 3.62214 8.94077 3.44596 9.08578 3.29808C9.47149 2.91205 9.81177 2.4798 10.0995 2.01039ZM5.75139 4.79703C5.89862 4.26267 5.9847 3.71213 6.00786 3.1568C6.48254 3.41279 6.98461 3.60965 7.50366 3.74329C7.75532 3.81019 7.98657 3.94229 8.17584 4.12726C8.525 4.50673 8.74642 4.99368 8.80688 5.51507C8.71807 5.54034 8.63517 5.56691 8.55758 5.59478C8.33109 5.67402 8.1105 5.77041 7.89756 5.88317L7.11039 4.46522C7.02376 4.31156 6.83409 4.25942 6.68574 4.34848C6.53739 4.43754 6.48599 4.63441 6.57065 4.78925L7.35844 6.20816C7.25187 6.28237 7.14779 6.36046 7.04682 6.44341C6.70121 5.98022 6.23746 5.62725 5.70839 5.42467C5.68324 5.21497 5.69785 5.00218 5.75139 4.79832V4.79703ZM4.5962 6.00954C4.84665 5.93712 5.11061 5.93144 5.36373 5.99301C5.85009 6.14311 6.27653 6.45316 6.57907 6.87663C6.52578 6.93301 6.4672 6.98583 6.41796 7.04415L6.4083 7.05452L6.40581 7.05679L6.39552 7.06748C6.23793 7.25294 6.09347 7.45003 5.9633 7.65721L4.59931 6.83872C4.50284 6.77992 4.38347 6.77936 4.2865 6.83728C4.18953 6.89519 4.12984 7.00269 4.13008 7.11897C4.13033 7.23524 4.19048 7.34247 4.28769 7.39994L5.65105 8.21843C5.59371 8.33864 5.54104 8.45983 5.49337 8.58361C4.97105 8.36901 4.40273 8.30487 3.84829 8.39794C3.72441 8.22955 3.63395 8.03724 3.58217 7.83219C3.4532 7.29253 3.26368 6.77051 3.0175 6.27686C3.55203 6.25275 4.08194 6.16302 4.5962 6.00954ZM1.92619 10.5346C2.37773 10.2354 2.79354 9.88157 3.1649 9.48051C3.34682 9.28835 3.57164 9.14598 3.81931 9.06608C4.31091 8.94563 4.82662 8.99102 5.29174 9.19569C5.26993 9.27929 5.24936 9.36548 5.22942 9.45783V9.46302C5.18393 9.70547 5.15468 9.95092 5.14185 10.1976H3.56783C3.39573 10.1976 3.25621 10.3427 3.25621 10.5216C3.25621 10.7006 3.39573 10.8456 3.56783 10.8456H5.14185C5.14964 10.9782 5.16211 11.1104 5.17956 11.2435C4.62191 11.3266 4.09721 11.5683 3.6635 11.9421C3.4766 11.8595 3.30718 11.7394 3.1649 11.5886C2.79358 11.1875 2.37777 10.8337 1.92619 10.5346ZM4.60804 15.056C4.09397 14.9027 3.56427 14.8131 3.02997 14.789C3.27615 14.2954 3.46557 13.7734 3.59432 13.2337C3.65866 12.972 3.7857 12.7314 3.9636 12.5345C4.33035 12.1743 4.7978 11.9449 5.29829 11.8793C5.3226 11.9707 5.34815 12.0565 5.37495 12.1385C5.45073 12.3743 5.54301 12.604 5.65105 12.8258L4.28862 13.6436C4.19141 13.7011 4.13127 13.8083 4.13102 13.9246C4.13077 14.0409 4.19046 14.1484 4.28743 14.2063C4.3844 14.2642 4.50378 14.2636 4.60025 14.2048L5.96299 13.387C6.03466 13.4982 6.11028 13.6062 6.18985 13.711C5.74493 14.0703 5.40582 14.5521 5.21103 15.1017C5.00909 15.1276 4.80424 15.1121 4.60804 15.056ZM7.52579 17.3113C7.00672 17.4452 6.50465 17.6422 6.02998 17.8984C6.00701 17.3424 5.92082 16.7912 5.77321 16.2562C5.70357 15.9958 5.6981 15.7214 5.75731 15.4582C5.9005 14.9546 6.19667 14.5129 6.60151 14.199C6.65604 14.2551 6.7112 14.3098 6.7676 14.361C6.77492 14.3695 6.78273 14.3775 6.79097 14.385C6.96923 14.549 7.15879 14.6992 7.35813 14.8344L6.57065 16.2527C6.5141 16.353 6.51357 16.4771 6.56927 16.5779C6.62497 16.6788 6.72835 16.7408 6.84017 16.7406C6.952 16.7403 7.05512 16.6778 7.11039 16.5767L7.89756 15.1588C8.01286 15.2184 8.12993 15.2731 8.24876 15.323C8.04162 15.8669 7.97992 16.4588 8.0702 17.0362C7.90794 17.1645 7.72278 17.258 7.52548 17.3113H7.52579ZM10.1244 19.0328C9.83654 18.5634 9.49627 18.1311 9.11071 17.7448C8.92587 17.5557 8.78894 17.3219 8.71215 17.0644C8.59617 16.5533 8.63983 16.0172 8.8368 15.5337C8.91688 15.556 8.99946 15.5774 9.08859 15.5985H9.09171H9.09326C9.32667 15.6457 9.56292 15.6761 9.80034 15.6895V17.3262C9.80034 17.5051 9.93986 17.6502 10.112 17.6502C10.2841 17.6502 10.4236 17.5051 10.4236 17.3262V15.6895C10.5509 15.6815 10.6786 15.6685 10.8066 15.6503C10.8864 16.2301 11.1188 16.7756 11.4781 17.2267C11.3987 17.4211 11.2832 17.5973 11.1381 17.7451C10.7525 18.1312 10.4122 18.5635 10.1244 19.0328ZM14.4725 16.2462C14.3253 16.7805 14.2392 17.3311 14.2161 17.8864C13.7414 17.6304 13.2393 17.4336 12.7203 17.2999C12.4686 17.233 12.2374 17.1009 12.0481 16.916C11.6989 16.5365 11.4775 16.0495 11.4171 15.5282C11.5059 15.5029 11.5888 15.4763 11.6664 15.4484C11.8928 15.3692 12.1134 15.2728 12.3264 15.1601L13.1135 16.578C13.2002 16.7317 13.3898 16.7838 13.5382 16.6947C13.6865 16.6057 13.7379 16.4088 13.6533 16.254L12.8655 14.8351C12.9721 14.7609 13.0761 14.6828 13.1771 14.5998C13.5227 15.063 13.9865 15.416 14.5155 15.6186C14.5407 15.8283 14.5261 16.041 14.4725 16.2449V16.2462ZM15.6256 15.035C15.3751 15.1075 15.1111 15.1132 14.858 15.0515C14.3717 14.9014 13.9452 14.5914 13.6427 14.1679C13.696 14.1115 13.7546 14.0587 13.8038 14.0004C13.8113 13.993 13.8188 13.9852 13.8262 13.977C13.984 13.7917 14.1286 13.5946 14.2588 13.3873L15.6224 14.2058C15.7714 14.2938 15.9607 14.2404 16.0463 14.0861C16.132 13.9319 16.0818 13.7347 15.9341 13.6446L14.5707 12.8261C14.6274 12.7073 14.6794 12.5859 14.7265 12.4619C15.1022 12.6116 15.5003 12.6916 15.9026 12.6984C16.0616 12.6962 16.22 12.678 16.3756 12.644C16.4995 12.8126 16.5898 13.0053 16.6411 13.2107C16.7701 13.7504 16.9596 14.2724 17.2058 14.766C16.6715 14.7903 16.1418 14.8801 15.6277 15.0337L15.6256 15.035ZM17.0575 11.564C16.8756 11.7562 16.6507 11.8985 16.4031 11.9784C15.9115 12.0989 15.3957 12.0535 14.9306 11.8488C14.9524 11.7639 14.9736 11.6764 14.993 11.5815C15.039 11.3387 15.0688 11.0928 15.0821 10.8456H16.6561C16.8282 10.8456 16.9677 10.7006 16.9677 10.5216C16.9677 10.3427 16.8282 10.1976 16.6561 10.1976H15.0821C15.0743 10.0651 15.0618 9.93285 15.0444 9.79968C15.602 9.71666 16.1267 9.47488 16.5604 9.10108C16.7473 9.18375 16.9168 9.30387 17.059 9.45459C17.4304 9.85576 17.8463 10.2096 18.2981 10.5087C17.8463 10.8077 17.4304 11.1615 17.059 11.5627L17.0575 11.564Z" fill="#5B8C45"/>
<path d="M12.0949 12.0864L12.9248 12.5844C13.0213 12.6432 13.1406 12.6437 13.2376 12.5858C13.3346 12.5279 13.3943 12.4204 13.394 12.3041C13.3938 12.1879 13.3336 12.0806 13.2364 12.0232L12.41 11.5261C12.4973 11.3086 12.5557 11.0796 12.5836 10.8457H13.5399C13.712 10.8457 13.8516 10.7006 13.8516 10.5216C13.8516 10.3427 13.712 10.1976 13.5399 10.1976H12.5836C12.5557 9.96363 12.4973 9.7347 12.41 9.51714L13.2364 9.02073C13.3336 8.96326 13.3938 8.85604 13.394 8.73976C13.3943 8.62349 13.3346 8.51599 13.2376 8.45808C13.1406 8.40016 13.0213 8.40071 12.9248 8.45952L12.0949 8.95755C11.9578 8.77026 11.797 8.60306 11.6169 8.46049L12.0959 7.59761C12.1524 7.4973 12.153 7.37317 12.0973 7.27234C12.0416 7.17151 11.9382 7.10945 11.8264 7.1097C11.7145 7.10996 11.6114 7.1725 11.5561 7.27358L11.0781 8.13257C10.869 8.04144 10.6488 7.9806 10.4237 7.95177V6.95733C10.4237 6.77837 10.2842 6.6333 10.1121 6.6333C9.93996 6.6333 9.80044 6.77837 9.80044 6.95733V7.95177C9.57537 7.9806 9.35517 8.04144 9.14602 8.13257L8.66861 7.27293C8.61334 7.17185 8.51022 7.10931 8.3984 7.10906C8.28657 7.1088 8.18319 7.17087 8.12749 7.27169C8.07179 7.37252 8.07232 7.49665 8.12888 7.59696L8.60785 8.45984C8.42773 8.60242 8.26693 8.76961 8.12981 8.9569L7.29996 8.45887C7.20349 8.40006 7.08411 8.39951 6.98714 8.45743C6.89017 8.51534 6.83048 8.62284 6.83073 8.73912C6.83097 8.85539 6.89112 8.96262 6.98833 9.02008L7.81414 9.51714C7.72679 9.7347 7.66839 9.96363 7.64056 10.1976H6.68418C6.51208 10.1976 6.37256 10.3427 6.37256 10.5216C6.37256 10.7006 6.51208 10.8457 6.68418 10.8457H7.64056C7.66839 11.0796 7.72679 11.3086 7.81414 11.5261L6.98771 12.0225C6.8905 12.08 6.83035 12.1872 6.83011 12.3035C6.82986 12.4198 6.88955 12.5273 6.98652 12.5852C7.08349 12.6431 7.20286 12.6425 7.29933 12.5837L8.12919 12.0857C8.26631 12.273 8.4271 12.4402 8.60722 12.5828L8.12826 13.4456C8.0717 13.546 8.07117 13.6701 8.12687 13.7709C8.18257 13.8717 8.28595 13.9338 8.39778 13.9336C8.5096 13.9333 8.61272 13.8708 8.66799 13.7697L9.14602 12.9107C9.35517 13.0018 9.57537 13.0627 9.80044 13.0915V14.0859C9.80044 14.2649 9.93996 14.41 10.1121 14.41C10.2842 14.41 10.4237 14.2649 10.4237 14.0859V13.0915C10.6488 13.0627 10.869 13.0018 11.0781 12.9107L11.5555 13.7703C11.6108 13.8714 11.7139 13.9339 11.8257 13.9342C11.9376 13.9345 12.0409 13.8724 12.0966 13.7716C12.1523 13.6707 12.1518 13.5466 12.0952 13.4463L11.6163 12.5834C11.7966 12.4409 11.9576 12.2737 12.0949 12.0864ZM10.1121 12.4658C9.07943 12.4658 8.24231 11.5954 8.24231 10.5216C8.24231 9.4479 9.07943 8.57746 10.1121 8.57746C11.1447 8.57746 11.9818 9.4479 11.9818 10.5216C11.9808 11.5949 11.1443 12.4647 10.1121 12.4658Z" fill="#5B8C45"/>
<path d="M11.0466 10.1977H10.864L10.9553 10.1027C11.0734 9.97559 11.0717 9.77349 10.9515 9.6485C10.8313 9.52351 10.6369 9.52176 10.5147 9.64455L10.4234 9.73949V9.54961C10.4234 9.37066 10.2838 9.22559 10.1117 9.22559C9.93963 9.22559 9.80011 9.37066 9.80011 9.54961V9.73949L9.70881 9.64455C9.58653 9.52176 9.39217 9.52351 9.27196 9.6485C9.15176 9.77349 9.15007 9.97559 9.26817 10.1027L9.35947 10.1977H9.17686C9.00475 10.1977 8.86523 10.3427 8.86523 10.5217C8.86523 10.7006 9.00475 10.8457 9.17686 10.8457H9.35947L9.26817 10.9407C9.18716 11.022 9.15467 11.1425 9.18319 11.2558C9.21171 11.3691 9.29679 11.4575 9.40575 11.4872C9.5147 11.5169 9.63056 11.4831 9.70881 11.3988L9.80011 11.3039V11.4938C9.80011 11.6727 9.93963 11.8178 10.1117 11.8178C10.2838 11.8178 10.4234 11.6727 10.4234 11.4938V11.3039L10.5147 11.3988C10.6369 11.5216 10.8313 11.5199 10.9515 11.3949C11.0717 11.2699 11.0734 11.0678 10.9553 10.9407L10.864 10.8457H11.0466C11.2187 10.8457 11.3582 10.7006 11.3582 10.5217C11.3582 10.3427 11.2187 10.1977 11.0466 10.1977Z" fill="#5B8C45"/>
<path d="M7.93077 2.421C8.10287 2.421 8.24239 2.27593 8.24239 2.09698C8.24239 1.91802 8.10287 1.77295 7.93077 1.77295C7.75866 1.77295 7.61914 1.91802 7.61914 2.09698C7.61914 2.27593 7.75866 2.421 7.93077 2.421Z" fill="#5B8C45"/>
<path d="M12.2931 2.421C12.4652 2.421 12.6047 2.27593 12.6047 2.09698C12.6047 1.91802 12.4652 1.77295 12.2931 1.77295C12.121 1.77295 11.9814 1.91802 11.9814 2.09698C11.9814 2.27593 12.121 2.421 12.2931 2.421Z" fill="#5B8C45"/>
<path d="M16.0328 4.68907C16.2049 4.68907 16.3444 4.544 16.3444 4.36504C16.3444 4.18609 16.2049 4.04102 16.0328 4.04102C15.8607 4.04102 15.7212 4.18609 15.7212 4.36504C15.7212 4.544 15.8607 4.68907 16.0328 4.68907Z" fill="#5B8C45"/>
<path d="M18.214 8.5775C18.3861 8.5775 18.5256 8.43243 18.5256 8.25347C18.5256 8.07452 18.3861 7.92944 18.214 7.92944C18.0419 7.92944 17.9023 8.07452 17.9023 8.25347C17.9023 8.43243 18.0419 8.5775 18.214 8.5775Z" fill="#5B8C45"/>
<path d="M18.214 13.1139C18.3861 13.1139 18.5256 12.9688 18.5256 12.7898C18.5256 12.6109 18.3861 12.4658 18.214 12.4658C18.0419 12.4658 17.9023 12.6109 17.9023 12.7898C17.9023 12.9688 18.0419 13.1139 18.214 13.1139Z" fill="#5B8C45"/>
<path d="M16.0328 17.0021C16.2049 17.0021 16.3444 16.857 16.3444 16.678C16.3444 16.4991 16.2049 16.354 16.0328 16.354C15.8607 16.354 15.7212 16.4991 15.7212 16.678C15.7212 16.857 15.8607 17.0021 16.0328 17.0021Z" fill="#5B8C45"/>
<path d="M12.2931 19.2704C12.4652 19.2704 12.6047 19.1253 12.6047 18.9463C12.6047 18.7674 12.4652 18.6223 12.2931 18.6223C12.121 18.6223 11.9814 18.7674 11.9814 18.9463C11.9814 19.1253 12.121 19.2704 12.2931 19.2704Z" fill="#5B8C45"/>
<path d="M7.93077 19.2704C8.10287 19.2704 8.24239 19.1253 8.24239 18.9463C8.24239 18.7674 8.10287 18.6223 7.93077 18.6223C7.75866 18.6223 7.61914 18.7674 7.61914 18.9463C7.61914 19.1253 7.75866 19.2704 7.93077 19.2704Z" fill="#5B8C45"/>
<path d="M4.19102 17.0021C4.36313 17.0021 4.50265 16.857 4.50265 16.678C4.50265 16.4991 4.36313 16.354 4.19102 16.354C4.01891 16.354 3.87939 16.4991 3.87939 16.678C3.87939 16.857 4.01891 17.0021 4.19102 17.0021Z" fill="#5B8C45"/>
<path d="M2.00987 13.1139C2.18197 13.1139 2.32149 12.9688 2.32149 12.7898C2.32149 12.6109 2.18197 12.4658 2.00987 12.4658C1.83776 12.4658 1.69824 12.6109 1.69824 12.7898C1.69824 12.9688 1.83776 13.1139 2.00987 13.1139Z" fill="#5B8C45"/>
<path d="M2.00987 8.5775C2.18197 8.5775 2.32149 8.43243 2.32149 8.25347C2.32149 8.07452 2.18197 7.92944 2.00987 7.92944C1.83776 7.92944 1.69824 8.07452 1.69824 8.25347C1.69824 8.43243 1.83776 8.5775 2.00987 8.5775Z" fill="#5B8C45"/>
<path d="M4.19102 4.68907C4.36313 4.68907 4.50265 4.544 4.50265 4.36504C4.50265 4.18609 4.36313 4.04102 4.19102 4.04102C4.01891 4.04102 3.87939 4.18609 3.87939 4.36504C3.87939 4.544 4.01891 4.68907 4.19102 4.68907Z" fill="#5B8C45"/>
</g>
<defs>
<clipPath id="clip0">
<rect width="18.6975" height="19.4416" fill="white" transform="translate(0.763184 0.800781)"/>
</clipPath>
</defs>
</svg>
