<svg width="20" height="21" viewBox="0 0 20 21" fill="none" xmlns="http://www.w3.org/2000/svg">
<g clip-path="url(#clip0)">
<path d="M19.195 10.1717C19.1705 10.1719 19.146 10.1739 19.1218 10.1775C18.9233 10.1182 18.4019 9.88587 17.5456 8.99642C17.3907 8.83588 17.2139 8.70004 17.0208 8.59333C17.1341 8.40186 17.2204 8.19455 17.2773 7.97768C17.5889 6.76581 17.9276 6.29274 18.0703 6.13688C18.1056 6.1223 18.1224 6.11322 18.1224 6.11322C18.1971 6.06671 18.2513 5.99154 18.2732 5.9039C18.2959 5.81488 18.2847 5.72019 18.2421 5.6395C18.1567 5.4844 17.9666 5.43047 17.8173 5.51896C17.7961 5.53178 17.7759 5.5463 17.7569 5.56238C17.5596 5.6139 16.9984 5.6868 15.8248 5.36116C15.6127 5.30235 15.3934 5.27679 15.1741 5.28534C15.1814 5.0606 15.1566 4.83599 15.1006 4.61881C14.7889 3.39723 14.8575 2.81366 14.907 2.60984C14.9222 2.59022 14.936 2.56942 14.9482 2.54763C14.9862 2.46916 14.9932 2.37836 14.9678 2.29457C14.9417 2.20883 14.8855 2.13643 14.8104 2.09172C14.7362 2.04922 14.6485 2.03964 14.5674 2.06515C14.4858 2.09067 14.4173 2.14898 14.3773 2.22717C14.3773 2.22717 14.3685 2.24467 14.3545 2.28063C14.2043 2.42936 13.7497 2.78061 12.5839 3.10561C12.3725 3.16536 12.1709 3.25742 11.9855 3.37876C11.8832 3.18065 11.7538 2.99903 11.6013 2.83958C10.745 1.94915 10.5225 1.40706 10.4651 1.20097C10.4683 1.17573 10.4698 1.15029 10.4695 1.12483C10.4578 0.941076 10.31 0.798849 10.1329 0.800801C9.96083 0.800801 9.82131 0.945873 9.82131 1.12483C9.82155 1.15042 9.82342 1.17597 9.82692 1.2013C9.76989 1.40738 9.54646 1.94948 8.69104 2.8399C8.53665 3.00099 8.40592 3.18485 8.30307 3.38556C8.119 3.26768 7.9196 3.17787 7.71098 3.11889C6.5455 2.79486 6.09053 2.44265 5.94095 2.29392C5.92693 2.25795 5.9182 2.24045 5.9182 2.24045C5.87356 2.1628 5.80138 2.10649 5.7172 2.08362C5.63168 2.06021 5.54077 2.0718 5.46323 2.11603C5.3912 2.15862 5.33845 2.22928 5.31664 2.3124C5.29483 2.39552 5.30575 2.48425 5.34699 2.55897C5.3594 2.58079 5.37324 2.60169 5.38844 2.62151C5.43799 2.82532 5.50779 3.40825 5.19492 4.63048C5.13848 4.85088 5.1139 5.07879 5.122 5.30672C4.90577 5.29917 4.68965 5.32494 4.48067 5.38319C3.29026 5.71305 2.73557 5.63464 2.54517 5.58279C2.52672 5.56759 2.50736 5.55363 2.4872 5.54099C2.32829 5.46157 2.13738 5.5241 2.05093 5.68389C2.00963 5.7612 2.00019 5.85261 2.02475 5.93728C2.04929 6.02212 2.10537 6.09327 2.18056 6.13493C2.18056 6.13493 2.20082 6.14465 2.23074 6.15762C2.37221 6.31056 2.71126 6.78072 3.02569 7.99971C3.08313 8.21958 3.17167 8.42935 3.28839 8.62217C3.09778 8.72842 2.9231 8.86301 2.76985 9.02169C1.93282 9.89268 1.41584 10.1328 1.19396 10.2034C1.1697 10.1998 1.14523 10.1978 1.12073 10.1976C0.944007 10.2098 0.807224 10.3634 0.809101 10.5475C0.809101 10.7265 0.948621 10.8716 1.12073 10.8716C1.14534 10.8713 1.16991 10.8694 1.19427 10.8657C1.39278 10.9254 1.91413 11.1574 2.77016 12.0468C2.92501 12.2073 3.10185 12.3432 3.29494 12.4499C3.18167 12.6414 3.09531 12.8487 3.03847 13.0655C2.72684 14.2774 2.38811 14.7505 2.24538 14.9063C2.21017 14.9209 2.19334 14.93 2.19334 14.93C2.11862 14.9765 2.06446 15.0517 2.04251 15.1393C2.01984 15.2283 2.031 15.323 2.07368 15.4037C2.15907 15.5588 2.3491 15.6128 2.49842 15.5243C2.51963 15.5114 2.53984 15.4969 2.55888 15.4808C2.75614 15.4293 3.31737 15.3567 4.49096 15.6821C4.67991 15.7354 4.87478 15.7628 5.07058 15.7634C5.09426 15.7634 5.11763 15.7598 5.14163 15.7589C5.13433 15.9833 5.15911 16.2076 5.21517 16.4244C5.5321 17.6619 5.45668 18.239 5.40714 18.4373C5.3928 18.4562 5.37958 18.476 5.36756 18.4966C5.32954 18.575 5.32249 18.6658 5.34793 18.7496C5.37369 18.8351 5.42927 18.9075 5.50374 18.9525C5.54969 18.9793 5.60156 18.9932 5.65425 18.993C5.6859 18.993 5.71738 18.9883 5.74774 18.979C5.82934 18.9535 5.89776 18.8952 5.93783 18.817C5.93783 18.817 5.94687 18.7963 5.95934 18.7652C6.10642 18.6181 6.55828 18.2652 7.73124 17.9386C7.94258 17.8788 8.14422 17.7868 8.32956 17.6654C8.43188 17.8635 8.5613 18.0452 8.71379 18.2046C9.56671 19.0915 9.79077 19.6329 9.84998 19.8439C9.84706 19.8686 9.84581 19.8935 9.84624 19.9184C9.85797 20.1021 10.0057 20.2444 10.1828 20.2424C10.3549 20.2424 10.4944 20.0974 10.4944 19.9184C10.4942 19.8927 10.4923 19.867 10.4888 19.8416C10.5458 19.6355 10.7693 19.0934 11.6247 18.2033C11.7791 18.0422 11.9098 17.8584 12.0127 17.6577C12.1967 17.7755 12.3961 17.8654 12.6047 17.9243C13.7702 18.2484 14.2252 18.6006 14.3748 18.7493C14.3888 18.7853 14.3975 18.8028 14.3975 18.8028C14.4422 18.8804 14.5143 18.9367 14.5985 18.9596C14.6261 18.9677 14.6546 18.9717 14.6833 18.9716C14.7424 18.9716 14.8006 18.9561 14.8525 18.9265C14.9245 18.884 14.9773 18.8133 14.9991 18.7302C15.0209 18.6471 15.01 18.5583 14.9687 18.4836C14.9563 18.4618 14.9425 18.4409 14.9273 18.4211C14.8777 18.2173 14.8079 17.6343 15.1208 16.4121C15.1771 16.1926 15.2017 15.9655 15.1937 15.7384C15.2143 15.7384 15.2349 15.7423 15.2561 15.7423C15.4519 15.742 15.6468 15.7145 15.8357 15.6607C17.0111 15.3367 17.5717 15.4083 17.7678 15.4595C17.7874 15.4756 17.8083 15.4901 17.8301 15.5029C17.989 15.5826 18.1801 15.52 18.2664 15.36C18.3077 15.2827 18.3171 15.1913 18.2925 15.1066C18.268 15.0218 18.2119 14.9506 18.1367 14.9089C18.1367 14.9089 18.1199 14.8995 18.085 14.885C17.942 14.7288 17.6042 14.256 17.2916 13.0442C17.2342 12.8243 17.1456 12.6145 17.0289 12.4217C17.2195 12.3155 17.3942 12.1809 17.5474 12.0222C18.4038 11.1321 18.9251 10.9004 19.1236 10.8411C19.1473 10.8442 19.1711 10.8457 19.195 10.8456C19.3717 10.8334 19.5085 10.6798 19.5066 10.4957C19.5066 10.3167 19.3671 10.1717 19.195 10.1717ZM15.6618 5.98718C16.1759 6.14053 16.7056 6.23015 17.2399 6.25418C16.9937 6.74779 16.8043 7.26982 16.6755 7.80951C16.6112 8.07127 16.4841 8.31183 16.3062 8.50876C15.9395 8.86889 15.472 9.09835 14.9715 9.16394C14.9472 9.07256 14.9216 8.98616 14.8946 8.90472C14.8185 8.66933 14.7259 8.44006 14.6175 8.21875L15.9812 7.40026C16.129 7.31018 16.1791 7.11296 16.0935 6.95871C16.0078 6.80446 15.8185 6.75101 15.6696 6.83905L14.305 7.65819C14.2336 7.54737 14.1585 7.43914 14.0787 7.33416C14.5243 6.9748 14.8638 6.49261 15.0588 5.94246C15.2607 5.91645 15.4655 5.93164 15.6618 5.98718ZM11.5141 14.8331C11.364 14.8863 11.211 14.9301 11.056 14.9643C10.4652 15.0884 9.85648 15.0884 9.26568 14.9643C9.10966 14.9301 8.95576 14.8862 8.80479 14.8328H8.80105L8.79824 14.8308C8.23766 14.6417 7.7206 14.3344 7.27938 13.9281C7.27564 13.9239 7.27159 13.9203 7.26754 13.9161L7.261 13.9093C7.25632 13.9048 7.25227 13.8996 7.24728 13.8954C7.12737 13.7877 7.01491 13.6715 6.91073 13.5474C6.70896 13.3171 6.53137 13.0651 6.38096 12.7956C6.38096 12.794 6.38096 12.7917 6.3791 12.7901L6.37598 12.7866C6.22681 12.5158 6.10524 12.2295 6.01325 11.9324C5.9623 11.7762 5.92016 11.6171 5.88704 11.4558C5.76737 10.8422 5.76737 10.2098 5.88704 9.59619C5.92102 9.43082 5.96431 9.26766 6.01667 9.10756C6.19856 8.52441 6.49434 7.98663 6.88549 7.52793C6.89016 7.52371 6.89421 7.51885 6.89857 7.51432V7.5127C6.90387 7.50686 6.90979 7.50168 6.91478 7.49552C7.01775 7.37136 7.12896 7.25486 7.24759 7.14687C7.69839 6.72656 8.22793 6.40773 8.80292 6.21043C8.95298 6.15728 9.10594 6.11346 9.26101 6.0792C9.85108 5.95526 10.459 5.95526 11.0491 6.0792C11.2074 6.11406 11.3635 6.15886 11.5166 6.21335C12.0777 6.40215 12.5953 6.70961 13.0367 7.11641C13.0407 7.12127 13.0457 7.12548 13.0497 7.13002L13.0526 7.13261C13.0579 7.13812 13.0628 7.14395 13.0688 7.14914C13.1881 7.2562 13.3 7.37184 13.4038 7.4952C13.8092 7.9628 14.1159 8.51347 14.3044 9.11177C14.3553 9.26797 14.3974 9.42712 14.4306 9.58841C14.5502 10.202 14.5502 10.8344 14.4306 11.448C14.3967 11.6125 14.3536 11.7748 14.3015 11.934C14.1197 12.5178 13.8237 13.0562 13.4321 13.5153C13.4281 13.5189 13.4243 13.5234 13.4206 13.5273L13.415 13.5331C13.4106 13.538 13.4056 13.5425 13.4013 13.5477C13.2983 13.6719 13.1871 13.7884 13.0684 13.8964C12.6179 14.3166 12.0887 14.6354 11.5141 14.8328V14.8331ZM12.7444 3.73195C13.2634 3.59806 13.7655 3.40099 14.2402 3.14481C14.2631 3.70082 14.3493 4.25205 14.4969 4.78698C14.5666 5.0474 14.572 5.32186 14.5128 5.58506C14.3696 6.08859 14.0735 6.53036 13.6686 6.84423C13.6141 6.78817 13.5589 6.73341 13.5025 6.68222L13.4926 6.67185L13.4891 6.66828L13.4792 6.65824C13.301 6.49405 13.1116 6.34363 12.9123 6.20816L13.6995 4.79055C13.756 4.69024 13.7566 4.56611 13.7009 4.46528C13.6452 4.36445 13.5418 4.30239 13.43 4.30264C13.3181 4.3029 13.215 4.36544 13.1598 4.46652L12.3726 5.88414C12.2579 5.82495 12.1408 5.7704 12.0214 5.7205C12.2282 5.17707 12.29 4.58562 12.2003 4.00867C12.3622 3.87985 12.5471 3.78579 12.7444 3.73195ZM10.1454 2.01039C10.4332 2.47986 10.7735 2.91221 11.1591 3.2984C11.344 3.48753 11.4809 3.7213 11.5577 3.97886C11.6738 4.48989 11.6302 5.02612 11.433 5.50956C11.3523 5.4872 11.2682 5.46517 11.1769 5.44476C10.9434 5.39759 10.707 5.36717 10.4695 5.3537V3.71704C10.4695 3.53809 10.33 3.39302 10.1579 3.39302C9.98576 3.39302 9.84624 3.53809 9.84624 3.71704V5.3537C9.71847 5.36181 9.59102 5.37444 9.46325 5.39259C9.38335 4.81292 9.15095 4.26749 8.7917 3.81652C8.87114 3.62214 8.98667 3.44596 9.13168 3.29808C9.51739 2.91205 9.85767 2.4798 10.1454 2.01039ZM5.79729 4.79703C5.94452 4.26267 6.0306 3.71213 6.05376 3.1568C6.52844 3.41279 7.03051 3.60965 7.54956 3.74329C7.80121 3.81019 8.03247 3.94229 8.22174 4.12726C8.5709 4.50673 8.79232 4.99368 8.85278 5.51507C8.76396 5.54034 8.68107 5.56691 8.60348 5.59478C8.37699 5.67402 8.15639 5.77041 7.94345 5.88317L7.15629 4.46522C7.06965 4.31156 6.87999 4.25942 6.73164 4.34848C6.58329 4.43754 6.53189 4.63441 6.61655 4.78925L7.40434 6.20816C7.29777 6.28237 7.19368 6.36046 7.09272 6.44341C6.7471 5.98022 6.28336 5.62725 5.75429 5.42467C5.72914 5.21497 5.74375 5.00218 5.79729 4.79832V4.79703ZM4.64209 6.00954C4.89255 5.93712 5.15651 5.93144 5.40963 5.99301C5.89599 6.14311 6.32243 6.45316 6.62497 6.87663C6.57168 6.93301 6.51309 6.98583 6.46386 7.04415L6.4542 7.05452L6.4517 7.05679L6.44142 7.06748C6.28383 7.25294 6.13937 7.45003 6.0092 7.65721L4.64521 6.83872C4.54874 6.77992 4.42936 6.77936 4.3324 6.83728C4.23543 6.89519 4.17574 7.00269 4.17598 7.11897C4.17623 7.23524 4.23637 7.34247 4.33359 7.39994L5.69695 8.21843C5.63961 8.33864 5.58694 8.45983 5.53926 8.58361C5.01694 8.36901 4.44863 8.30487 3.89419 8.39794C3.77031 8.22955 3.67984 8.03724 3.62807 7.83219C3.4991 7.29253 3.30958 6.77051 3.0634 6.27686C3.59792 6.25275 4.12783 6.16302 4.64209 6.00954ZM1.97209 10.5346C2.42363 10.2354 2.83944 9.88157 3.2108 9.48051C3.39272 9.28835 3.61754 9.14598 3.86521 9.06608C4.35681 8.94563 4.87252 8.99102 5.33764 9.19569C5.31583 9.27929 5.29526 9.36548 5.27532 9.45783V9.46302C5.22983 9.70547 5.20057 9.95092 5.18775 10.1976H3.61373C3.44162 10.1976 3.3021 10.3427 3.3021 10.5216C3.3021 10.7006 3.44162 10.8456 3.61373 10.8456H5.18775C5.19554 10.9782 5.20801 11.1104 5.22546 11.2435C4.66781 11.3266 4.14311 11.5683 3.7094 11.9421C3.5225 11.8595 3.35308 11.7394 3.2108 11.5886C2.83948 11.1875 2.42367 10.8337 1.97209 10.5346ZM4.65394 15.056C4.13987 14.9027 3.61017 14.8131 3.07586 14.789C3.32205 14.2954 3.51147 13.7734 3.64022 13.2337C3.70456 12.972 3.8316 12.7314 4.00949 12.5345C4.37625 12.1743 4.8437 11.9449 5.34419 11.8793C5.36849 11.9707 5.39405 12.0565 5.42085 12.1385C5.49663 12.3743 5.58891 12.604 5.69695 12.8258L4.33452 13.6436C4.23731 13.7011 4.17716 13.8083 4.17692 13.9246C4.17667 14.0409 4.23636 14.1484 4.33333 14.2063C4.4303 14.2642 4.54968 14.2636 4.64615 14.2048L6.00888 13.387C6.08056 13.4982 6.15618 13.6062 6.23575 13.711C5.79082 14.0703 5.45171 14.5521 5.25693 15.1017C5.05499 15.1276 4.85014 15.1121 4.65394 15.056ZM7.57169 17.3113C7.05262 17.4452 6.55055 17.6422 6.07588 17.8984C6.05291 17.3424 5.96672 16.7912 5.8191 16.2562C5.74946 15.9958 5.744 15.7214 5.80321 15.4582C5.94639 14.9546 6.24257 14.5129 6.6474 14.199C6.70194 14.2551 6.7571 14.3098 6.8135 14.361C6.82082 14.3695 6.82863 14.3775 6.83687 14.385C7.01513 14.549 7.20469 14.6992 7.40403 14.8344L6.61655 16.2527C6.56 16.353 6.55947 16.4771 6.61517 16.5779C6.67086 16.6788 6.77425 16.7408 6.88607 16.7406C6.9979 16.7403 7.10102 16.6778 7.15629 16.5767L7.94345 15.1588C8.05876 15.2184 8.17582 15.2731 8.29466 15.323C8.08752 15.8669 8.02582 16.4588 8.1161 17.0362C7.95384 17.1645 7.76868 17.258 7.57137 17.3113H7.57169ZM10.1703 19.0328C9.88244 18.5634 9.54217 18.1311 9.15661 17.7448C8.97177 17.5557 8.83484 17.3219 8.75804 17.0644C8.64207 16.5533 8.68573 16.0172 8.88269 15.5337C8.96278 15.556 9.04536 15.5774 9.13449 15.5985H9.1376H9.13916C9.37257 15.6457 9.60882 15.6761 9.84624 15.6895V17.3262C9.84624 17.5051 9.98576 17.6502 10.1579 17.6502C10.33 17.6502 10.4695 17.5051 10.4695 17.3262V15.6895C10.5968 15.6815 10.7245 15.6685 10.8525 15.6503C10.9323 16.2301 11.1647 16.7756 11.524 17.2267C11.4446 17.4211 11.3291 17.5973 11.184 17.7451C10.7984 18.1312 10.4581 18.5635 10.1703 19.0328ZM14.5184 16.2462C14.3712 16.7805 14.2851 17.3311 14.262 17.8864C13.7873 17.6304 13.2852 17.4336 12.7662 17.2999C12.5145 17.233 12.2833 17.1009 12.094 16.916C11.7448 16.5365 11.5234 16.0495 11.463 15.5282C11.5518 15.5029 11.6347 15.4763 11.7123 15.4484C11.9387 15.3692 12.1593 15.2728 12.3723 15.1601L13.1594 16.578C13.2461 16.7317 13.4357 16.7838 13.5841 16.6947C13.7324 16.6057 13.7838 16.4088 13.6992 16.254L12.9114 14.8351C13.018 14.7609 13.122 14.6828 13.223 14.5998C13.5686 15.063 14.0324 15.416 14.5614 15.6186C14.5866 15.8283 14.572 16.041 14.5184 16.2449V16.2462ZM15.6715 15.035C15.421 15.1075 15.157 15.1132 14.9039 15.0515C14.4176 14.9014 13.9911 14.5914 13.6886 14.1679C13.7419 14.1115 13.8005 14.0587 13.8497 14.0004C13.8572 13.993 13.8646 13.9852 13.8721 13.977C14.0299 13.7917 14.1745 13.5946 14.3047 13.3873L15.6683 14.2058C15.8173 14.2938 16.0066 14.2404 16.0922 14.0861C16.1779 13.9319 16.1277 13.7347 15.98 13.6446L14.6166 12.8261C14.6733 12.7073 14.7253 12.5859 14.7724 12.4619C15.1481 12.6116 15.5462 12.6916 15.9485 12.6984C16.1075 12.6962 16.2659 12.678 16.4215 12.644C16.5454 12.8126 16.6357 13.0053 16.687 13.2107C16.816 13.7504 17.0055 14.2724 17.2517 14.766C16.7174 14.7903 16.1877 14.8801 15.6736 15.0337L15.6715 15.035ZM17.1034 11.564C16.9215 11.7562 16.6966 11.8985 16.449 11.9784C15.9574 12.0989 15.4416 12.0535 14.9765 11.8488C14.9983 11.7639 15.0195 11.6764 15.0389 11.5815C15.0849 11.3387 15.1147 11.0928 15.128 10.8456H16.702C16.8741 10.8456 17.0136 10.7006 17.0136 10.5216C17.0136 10.3427 16.8741 10.1976 16.702 10.1976H15.128C15.1202 10.0651 15.1077 9.93285 15.0903 9.79968C15.6479 9.71666 16.1726 9.47488 16.6063 9.10108C16.7932 9.18375 16.9627 9.30387 17.1049 9.45459C17.4763 9.85576 17.8922 10.2096 18.344 10.5087C17.8922 10.8077 17.4763 11.1615 17.1049 11.5627L17.1034 11.564Z" fill="#5DAC38"/>
<path d="M12.1408 12.0864L12.9707 12.5844C13.0672 12.6432 13.1865 12.6437 13.2835 12.5858C13.3805 12.5279 13.4402 12.4204 13.4399 12.3041C13.4397 12.1879 13.3795 12.0806 13.2823 12.0232L12.4559 11.5261C12.5432 11.3086 12.6016 11.0796 12.6295 10.8457H13.5858C13.7579 10.8457 13.8975 10.7006 13.8975 10.5216C13.8975 10.3427 13.7579 10.1976 13.5858 10.1976H12.6295C12.6016 9.96363 12.5432 9.7347 12.4559 9.51714L13.2823 9.02073C13.3795 8.96326 13.4397 8.85604 13.4399 8.73976C13.4402 8.62349 13.3805 8.51599 13.2835 8.45808C13.1865 8.40016 13.0672 8.40071 12.9707 8.45952L12.1408 8.95755C12.0037 8.77026 11.8429 8.60306 11.6628 8.46049L12.1418 7.59761C12.1983 7.4973 12.1989 7.37317 12.1432 7.27234C12.0875 7.17151 11.9841 7.10945 11.8723 7.1097C11.7604 7.10996 11.6573 7.1725 11.602 7.27358L11.124 8.13257C10.9149 8.04144 10.6947 7.9806 10.4696 7.95177V6.95733C10.4696 6.77837 10.3301 6.6333 10.158 6.6333C9.98586 6.6333 9.84634 6.77837 9.84634 6.95733V7.95177C9.62127 7.9806 9.40107 8.04144 9.19192 8.13257L8.71451 7.27293C8.65924 7.17185 8.55612 7.10931 8.4443 7.10906C8.33247 7.1088 8.22909 7.17087 8.17339 7.27169C8.11769 7.37252 8.11822 7.49665 8.17478 7.59696L8.65375 8.45984C8.47363 8.60242 8.31283 8.76961 8.17571 8.9569L7.34585 8.45887C7.24938 8.40006 7.13001 8.39951 7.03304 8.45743C6.93607 8.51534 6.87638 8.62284 6.87663 8.73912C6.87687 8.85539 6.93702 8.96262 7.03423 9.02008L7.86004 9.51714C7.77269 9.7347 7.71429 9.96363 7.68646 10.1976H6.73008C6.55798 10.1976 6.41846 10.3427 6.41846 10.5216C6.41846 10.7006 6.55798 10.8457 6.73008 10.8457H7.68646C7.71429 11.0796 7.77269 11.3086 7.86004 11.5261L7.03361 12.0225C6.93639 12.08 6.87625 12.1872 6.876 12.3035C6.87576 12.4198 6.93545 12.5273 7.03242 12.5852C7.12938 12.6431 7.24876 12.6425 7.34523 12.5837L8.17509 12.0857C8.31221 12.273 8.473 12.4402 8.65312 12.5828L8.17416 13.4456C8.1176 13.546 8.11707 13.6701 8.17277 13.7709C8.22847 13.8717 8.33185 13.9338 8.44367 13.9336C8.5555 13.9333 8.65862 13.8708 8.71389 13.7697L9.19192 12.9107C9.40107 13.0018 9.62127 13.0627 9.84634 13.0915V14.0859C9.84634 14.2649 9.98586 14.41 10.158 14.41C10.3301 14.41 10.4696 14.2649 10.4696 14.0859V13.0915C10.6947 13.0627 10.9149 13.0018 11.124 12.9107L11.6014 13.7703C11.6567 13.8714 11.7598 13.9339 11.8716 13.9342C11.9835 13.9345 12.0868 13.8724 12.1425 13.7716C12.1982 13.6707 12.1977 13.5466 12.1411 13.4463L11.6622 12.5834C11.8425 12.4409 12.0035 12.2737 12.1408 12.0864ZM10.158 12.4658C9.12533 12.4658 8.28821 11.5954 8.28821 10.5216C8.28821 9.4479 9.12533 8.57746 10.158 8.57746C11.1906 8.57746 12.0277 9.4479 12.0277 10.5216C12.0267 11.5949 11.1902 12.4647 10.158 12.4658Z" fill="#5DAC38"/>
<path d="M11.0925 10.1977H10.9099L11.0012 10.1027C11.1193 9.97559 11.1176 9.77349 10.9974 9.6485C10.8772 9.52351 10.6828 9.52176 10.5606 9.64455L10.4693 9.73949V9.54961C10.4693 9.37066 10.3297 9.22559 10.1576 9.22559C9.98553 9.22559 9.84601 9.37066 9.84601 9.54961V9.73949L9.7547 9.64455C9.63243 9.52176 9.43807 9.52351 9.31786 9.6485C9.19766 9.77349 9.19597 9.97559 9.31406 10.1027L9.40537 10.1977H9.22276C9.05065 10.1977 8.91113 10.3427 8.91113 10.5217C8.91113 10.7006 9.05065 10.8457 9.22276 10.8457H9.40537L9.31406 10.9407C9.23306 11.022 9.20057 11.1425 9.22909 11.2558C9.2576 11.3691 9.34269 11.4575 9.45165 11.4872C9.5606 11.5169 9.67646 11.4831 9.7547 11.3988L9.84601 11.3039V11.4938C9.84601 11.6727 9.98553 11.8178 10.1576 11.8178C10.3297 11.8178 10.4693 11.6727 10.4693 11.4938V11.3039L10.5606 11.3988C10.6828 11.5216 10.8772 11.5199 10.9974 11.3949C11.1176 11.2699 11.1193 11.0678 11.0012 10.9407L10.9099 10.8457H11.0925C11.2646 10.8457 11.4041 10.7006 11.4041 10.5217C11.4041 10.3427 11.2646 10.1977 11.0925 10.1977Z" fill="#5DAC38"/>
<path d="M7.97666 2.421C8.14877 2.421 8.28829 2.27593 8.28829 2.09698C8.28829 1.91802 8.14877 1.77295 7.97666 1.77295C7.80456 1.77295 7.66504 1.91802 7.66504 2.09698C7.66504 2.27593 7.80456 2.421 7.97666 2.421Z" fill="#5DAC38"/>
<path d="M12.339 2.421C12.5111 2.421 12.6506 2.27593 12.6506 2.09698C12.6506 1.91802 12.5111 1.77295 12.339 1.77295C12.1669 1.77295 12.0273 1.91802 12.0273 2.09698C12.0273 2.27593 12.1669 2.421 12.339 2.421Z" fill="#5DAC38"/>
<path d="M16.0787 4.68907C16.2508 4.68907 16.3903 4.544 16.3903 4.36504C16.3903 4.18609 16.2508 4.04102 16.0787 4.04102C15.9066 4.04102 15.7671 4.18609 15.7671 4.36504C15.7671 4.544 15.9066 4.68907 16.0787 4.68907Z" fill="#5DAC38"/>
<path d="M18.2599 8.5775C18.432 8.5775 18.5715 8.43243 18.5715 8.25347C18.5715 8.07452 18.432 7.92944 18.2599 7.92944C18.0878 7.92944 17.9482 8.07452 17.9482 8.25347C17.9482 8.43243 18.0878 8.5775 18.2599 8.5775Z" fill="#5DAC38"/>
<path d="M18.2599 13.1139C18.432 13.1139 18.5715 12.9688 18.5715 12.7898C18.5715 12.6109 18.432 12.4658 18.2599 12.4658C18.0878 12.4658 17.9482 12.6109 17.9482 12.7898C17.9482 12.9688 18.0878 13.1139 18.2599 13.1139Z" fill="#5DAC38"/>
<path d="M16.0787 17.0021C16.2508 17.0021 16.3903 16.857 16.3903 16.678C16.3903 16.4991 16.2508 16.354 16.0787 16.354C15.9066 16.354 15.7671 16.4991 15.7671 16.678C15.7671 16.857 15.9066 17.0021 16.0787 17.0021Z" fill="#5DAC38"/>
<path d="M12.339 19.2704C12.5111 19.2704 12.6506 19.1253 12.6506 18.9463C12.6506 18.7674 12.5111 18.6223 12.339 18.6223C12.1669 18.6223 12.0273 18.7674 12.0273 18.9463C12.0273 19.1253 12.1669 19.2704 12.339 19.2704Z" fill="#5DAC38"/>
<path d="M7.97666 19.2704C8.14877 19.2704 8.28829 19.1253 8.28829 18.9463C8.28829 18.7674 8.14877 18.6223 7.97666 18.6223C7.80456 18.6223 7.66504 18.7674 7.66504 18.9463C7.66504 19.1253 7.80456 19.2704 7.97666 19.2704Z" fill="#5DAC38"/>
<path d="M4.23692 17.0021C4.40902 17.0021 4.54854 16.857 4.54854 16.678C4.54854 16.4991 4.40902 16.354 4.23692 16.354C4.06481 16.354 3.92529 16.4991 3.92529 16.678C3.92529 16.857 4.06481 17.0021 4.23692 17.0021Z" fill="#5DAC38"/>
<path d="M2.05577 13.1139C2.22787 13.1139 2.36739 12.9688 2.36739 12.7898C2.36739 12.6109 2.22787 12.4658 2.05577 12.4658C1.88366 12.4658 1.74414 12.6109 1.74414 12.7898C1.74414 12.9688 1.88366 13.1139 2.05577 13.1139Z" fill="#5DAC38"/>
<path d="M2.05577 8.5775C2.22787 8.5775 2.36739 8.43243 2.36739 8.25347C2.36739 8.07452 2.22787 7.92944 2.05577 7.92944C1.88366 7.92944 1.74414 8.07452 1.74414 8.25347C1.74414 8.43243 1.88366 8.5775 2.05577 8.5775Z" fill="#5DAC38"/>
<path d="M4.23692 4.68907C4.40902 4.68907 4.54854 4.544 4.54854 4.36504C4.54854 4.18609 4.40902 4.04102 4.23692 4.04102C4.06481 4.04102 3.92529 4.18609 3.92529 4.36504C3.92529 4.544 4.06481 4.68907 4.23692 4.68907Z" fill="#5DAC38"/>
</g>
<defs>
<clipPath id="clip0">
<rect width="18.6975" height="19.4416" fill="white" transform="translate(0.809082 0.800781)"/>
</clipPath>
</defs>
</svg>
